<svg xmlns="http://www.w3.org/2000/svg" version="1.1" xmlns:xlink="http://www.w3.org/1999/xlink" xmlns:svgjs="http://svgjs.dev/svgjs" width="130.7" height="193.45"><svg xmlns="http://www.w3.org/2000/svg" xmlns:xlink="http://www.w3.org/1999/xlink" viewBox="41.05 3.9 130.7 193.45">
	<path transform="scale(0.886719 0.78125)" d="M182.333 182.719C182.359 182.768 182.385 182.816 182.409 182.865C182.651 183.343 182.746 183.667 182.74 184.201L182.589 184.1L183.017 184.304L182.94 183.604C183.258 183.319 183.314 183.293 183.733 183.214C183.764 185.41 183.388 187.647 183.131 189.826C181.913 188.559 182.433 185.333 182.168 183.502L182.333 182.719Z"></path>
	<path transform="scale(0.886719 0.78125)" d="M178.156 38.6057C179.258 37.4843 180.27 36.2983 181.913 36.1269C181.423 37.8061 180.492 38.7255 179.174 39.8288L177.51 40.1516L177.288 39.9649L178.257 39.0021L178.156 38.6057Z"></path>
	<path transform="scale(0.886719 0.78125)" d="M193.15 102.353C194.085 103.968 193.542 107.226 193.457 109.097C193.496 112.459 194.17 121.845 192.826 124.502C192.448 121.471 192.714 118.518 192.511 115.491C192.602 113.923 192.533 112.348 192.5 110.779C192.381 109.283 192.836 107.88 192.337 106.405C192.371 105.179 192.464 104.034 192.672 102.823L193.15 102.353ZM193.15 102.353L192.672 102.823C192.464 104.034 192.371 105.179 192.337 106.405C192.836 107.88 192.381 109.283 192.5 110.779C192.591 110.35 192.716 109.938 192.846 109.52C193.409 110.528 193.09 113.841 193.111 115.12C193.138 113.273 192.888 111.056 193.4 109.285C193.418 109.222 193.438 109.159 193.457 109.097C193.542 107.226 194.085 103.968 193.15 102.353Z"></path>
	<path transform="scale(0.886719 0.78125)" d="M193.15 102.353C194.085 103.968 193.542 107.226 193.457 109.097C193.438 109.159 193.418 109.222 193.4 109.285C192.888 111.056 193.138 113.273 193.111 115.12C193.09 113.841 193.409 110.528 192.846 109.52C192.716 109.938 192.591 110.35 192.5 110.779C192.381 109.283 192.836 107.88 192.337 106.405C192.371 105.179 192.464 104.034 192.672 102.823L193.15 102.353Z"></path>
	<defs>
		<linearGradient id="SvgjsLinearGradient1077" gradientUnits="userSpaceOnUse" x1="181.63521" y1="196.91472" x2="179.72879" y2="196.50163">
			<stop offset="0" stop-color="black" stop-opacity="0.95686275"></stop>
			<stop offset="1" stop-color="black"></stop>
		</linearGradient>
	</defs>
	<path fill="url(#gradient_0)" transform="scale(0.886719 0.78125)" d="M181.004 192.267C181.228 192.669 181.43 192.978 181.756 193.304C181.837 192.747 181.929 192.199 182.052 191.649L182.707 191.459C182.804 195.655 181.591 200.224 181.183 204.437C181.169 204.398 181.159 204.357 181.14 204.321C180.452 203.065 180.61 200.318 180.102 199.83C179.901 198.377 180.337 197.349 179.712 195.891C179.756 195.104 179.893 194.306 179.992 193.523C180.227 193.557 180.385 193.514 180.616 193.467L181.004 192.267Z"></path>
	<defs>
		<linearGradient id="SvgjsLinearGradient1076" gradientUnits="userSpaceOnUse" x1="170.73584" y1="45.622742" x2="170.03493" y2="44.655914">
			<stop offset="0" stop-color="black" stop-opacity="0.95686275"></stop>
			<stop offset="1" stop-color="black"></stop>
		</linearGradient>
	</defs>
	<path fill="url(#gradient_1)" transform="scale(0.886719 0.78125)" d="M169.436 44.8223C170.128 43.8645 176.7 39.6085 178.156 38.6057L178.257 39.0021L177.288 39.9649L177.51 40.1516L179.174 39.8288C177.63 41.2315 175.898 42.3636 174.342 43.722L172.453 45.328C171.361 46.1886 170.259 46.9649 169.083 47.7063L168.919 46.9828C169.4 46.1555 169.616 45.7627 169.436 44.8223ZM172.453 45.328L174.342 43.722C174.209 43.3348 174.095 42.9115 173.884 42.5609C173.073 43.2462 172.002 43.9687 171.45 44.8821L171.587 45.0842C172.03 45.0824 172.08 45.0541 172.453 45.328Z"></path>
	<path transform="scale(0.886719 0.78125)" d="M172.453 45.328C172.08 45.0541 172.03 45.0824 171.587 45.0842L171.45 44.8821C172.002 43.9687 173.073 43.2462 173.884 42.5609C174.095 42.9115 174.209 43.3348 174.342 43.722L172.453 45.328Z"></path>
	<defs>
		<linearGradient id="SvgjsLinearGradient1075" gradientUnits="userSpaceOnUse" x1="186.21158" y1="169.23227" x2="183.28842" y2="168.01773">
			<stop offset="0" stop-color="black" stop-opacity="0.94117647"></stop>
			<stop offset="1" stop-color="black"></stop>
		</linearGradient>
	</defs>
	<path fill="url(#gradient_2)" transform="scale(0.886719 0.78125)" d="M184.398 164.629L185.079 164.481Q185.274 166.285 185.499 168.086C185.835 168.312 185.809 168.34 186.202 168.266C186.045 170.395 184.566 182.158 183.733 183.214C183.314 183.293 183.258 183.319 182.94 183.604L183.017 184.304L182.589 184.1L182.74 184.201C182.746 183.667 182.651 183.343 182.409 182.865C182.385 182.816 182.359 182.768 182.333 182.719C182.457 182.093 182.287 181.48 182.384 180.852C182.918 177.382 183.724 174.504 183.487 170.916L183.531 170.5C183.551 169.269 183.896 167.966 184.115 166.752L184.398 164.629ZM183.531 170.5L183.487 170.916C183.724 174.504 182.918 177.382 182.384 180.852C182.287 181.48 182.457 182.093 182.333 182.719C182.359 182.768 182.385 182.816 182.409 182.865C182.651 183.343 182.746 183.667 182.74 184.201L182.589 184.1L183.017 184.304L182.94 183.604C183.258 183.319 183.314 183.293 183.733 183.214C183.25 179.052 185.149 175.137 184.13 171.019C184.041 170.741 183.772 170.654 183.531 170.5Z"></path>
	<path transform="scale(0.886719 0.78125)" d="M184.115 166.752C184.638 167.43 184.695 167.769 184.604 168.629C184.519 169.435 184.212 170.216 184.13 171.019C184.041 170.741 183.772 170.654 183.531 170.5C183.551 169.269 183.896 167.966 184.115 166.752Z"></path>
	<path transform="scale(0.886719 0.78125)" d="M183.531 170.5C183.772 170.654 184.041 170.741 184.13 171.019C185.149 175.137 183.25 179.052 183.733 183.214C183.314 183.293 183.258 183.319 182.94 183.604L183.017 184.304L182.589 184.1L182.74 184.201C182.746 183.667 182.651 183.343 182.409 182.865C182.385 182.816 182.359 182.768 182.333 182.719C182.457 182.093 182.287 181.48 182.384 180.852C182.918 177.382 183.724 174.504 183.487 170.916L183.531 170.5Z"></path>
	<defs>
		<linearGradient id="SvgjsLinearGradient1074" gradientUnits="userSpaceOnUse" x1="177.96239" y1="221.10947" x2="176.51854" y2="220.8876">
			<stop offset="0" stop-color="black" stop-opacity="0.96078432"></stop>
			<stop offset="1" stop-color="black"></stop>
		</linearGradient>
	</defs>
	<path fill="url(#gradient_3)" transform="scale(0.886719 0.78125)" d="M180.102 199.83C180.61 200.318 180.452 203.065 181.14 204.321C181.159 204.357 181.169 204.398 181.183 204.437C180.998 206.485 180.561 211.52 179.835 213.245L179.721 213.459C179.698 216.387 177.961 229.66 176.887 232.175L176.527 231.299C176.153 229.743 176.62 227.232 175.55 226.054C176.165 218.87 177.659 211.612 178.596 204.44C178.65 203.501 178.841 202.54 178.972 201.607C179.665 201.247 179.844 200.514 180.102 199.83ZM180.102 199.83C179.844 200.514 179.665 201.247 178.972 201.607C178.841 202.54 178.65 203.501 178.596 204.44C179.123 205.073 179.255 205.307 179.184 206.154C179.14 206.686 179.009 207.196 179.109 207.727C179.887 208.869 179.422 211.707 179.835 213.245C180.561 211.52 180.998 206.485 181.183 204.437C181.169 204.398 181.159 204.357 181.14 204.321C180.452 203.065 180.61 200.318 180.102 199.83ZM179.109 207.727C178.536 209.718 177.753 213.794 178.529 215.76L178.858 215.906C178.866 215.16 178.727 214.203 179.137 213.588L179.721 213.459L179.835 213.245C179.422 211.707 179.887 208.869 179.109 207.727Z"></path>
	<path transform="scale(0.886719 0.78125)" d="M179.109 207.727C179.887 208.869 179.422 211.707 179.835 213.245L179.721 213.459L179.137 213.588C178.727 214.203 178.866 215.16 178.858 215.906L178.529 215.76C177.753 213.794 178.536 209.718 179.109 207.727Z"></path>
	<defs>
		<linearGradient id="SvgjsLinearGradient1073" gradientUnits="userSpaceOnUse" x1="180.22141" y1="203.96484" x2="178.91135" y2="203.71516">
			<stop offset="0" stop-color="black" stop-opacity="0.96078432"></stop>
			<stop offset="1" stop-color="black"></stop>
		</linearGradient>
	</defs>
	<path fill="url(#gradient_4)" transform="scale(0.886719 0.78125)" d="M180.102 199.83C180.61 200.318 180.452 203.065 181.14 204.321C181.159 204.357 181.169 204.398 181.183 204.437C180.998 206.485 180.561 211.52 179.835 213.245C179.422 211.707 179.887 208.869 179.109 207.727C179.009 207.196 179.14 206.686 179.184 206.154C179.255 205.307 179.123 205.073 178.596 204.44C178.65 203.501 178.841 202.54 178.972 201.607C179.665 201.247 179.844 200.514 180.102 199.83Z"></path>
	<path transform="scale(0.886719 0.78125)" d="M158.16 7.44377C158.718 6.42819 159.38 5.50653 160.521 5.09961C160.997 4.92997 161.537 4.97951 161.987 5.20129C163.516 5.95422 164.469 8.4949 164.892 10.0147C165.406 11.8638 165.496 13.6768 165.582 15.5861C167.826 15.4369 169.796 15.2079 171.94 14.4639C172.865 15.0204 174.257 15.6846 174.543 16.8163C174.708 17.4704 174.308 18.5266 173.961 19.0652C172.788 21.3493 171.688 22.2997 169.192 23.0878C166.927 23.8029 164.402 23.859 162.268 22.7352C162.254 22.7278 162.24 22.7197 162.226 22.712C161.363 22.2899 160.065 21.1727 159.1 21.4962C158.566 21.6753 157.973 22.2042 157.71 22.7066C157.636 22.8492 157.586 23.0025 157.541 23.1563C158.812 24.6783 167.232 25.011 169.324 25.6054C170.03 25.8059 170.653 26.2275 171.254 26.6371C171.914 27.7223 173.251 31.3878 174.272 31.7116C174.755 31.8649 175.381 31.8551 175.888 31.8799C177.466 32.1493 180.176 32.0453 181.164 33.4266C181.709 34.1894 181.805 35.2236 181.913 36.1269C180.27 36.2983 179.258 37.4843 178.156 38.6057C176.7 39.6085 170.128 43.8645 169.436 44.8223C169.616 45.7627 169.4 46.1555 168.919 46.9828L169.083 47.7063C165.554 50.407 161.528 51.8882 157.354 53.2861C156.664 53.5169 154.8 53.9012 154.503 54.5057C154.609 54.7485 154.878 55.2085 154.9 55.4564C157.31 59.3284 160.035 63.852 161.154 68.292C162.867 74.5707 165.048 80.7346 166.109 87.1919C166.483 88.9962 166.535 90.7294 166.553 92.5671C166.911 92.5685 167.265 92.5756 167.623 92.5453C169.557 92.3809 171.919 93.3581 173.794 93.815C183.497 96.1791 184.761 95.9121 193.15 102.353L192.672 102.823C188.501 98.8139 172.951 95.7178 166.886 94.1111L166.494 94.3752C166.509 94.9587 166.513 94.9913 166.882 95.4415C169.482 95.5871 172.282 96.3334 174.791 97.0252C178.365 98.0108 186.255 101.378 188.063 104.556C188.105 104.924 188.202 105.203 188.03 105.543C187.465 106.663 185.459 107.154 184.312 107.492C178.327 109.256 168.956 111.158 162.757 111.899C159.508 112.288 156.236 112.373 152.981 112.684C149.97 112.972 146.985 113.484 143.97 113.753C139.012 114.195 134.023 114.348 129.053 114.611C123.743 114.892 118.341 115.499 113.029 115.261C104.767 114.891 96.5134 113.26 88.3859 111.812C83.0993 110.871 77.291 110.239 72.5372 107.579C71.7627 107.146 70.6011 106.437 70.3852 105.503C69.6527 102.334 75.6 102.134 76.6549 100.411C75.4698 99.8909 68.6972 102.176 66.6593 102.516L66.6426 101.834C69.2681 99.7107 72.4269 99.4503 75.6437 98.9531C73.675 97.7206 72.2724 96.714 71.0067 94.699C70.6257 94.0926 70.249 93.2675 69.7421 92.7796C68.9858 92.0518 67.7009 91.7165 67.0521 90.9021C66.7688 90.5465 66.8687 90.3882 66.9426 89.9925C67.3538 89.7346 67.7162 89.7394 68.1847 89.7291L68.3839 89.7256L68.5137 89.4577C68.1937 89.0613 67.8952 88.7026 67.6846 88.2342C68.8192 88.0046 70.2629 88.8381 71.482 88.8824L71.701 88.6571C70.8416 87.5718 69.7172 86.6679 68.6927 85.7408C67.7331 86.5229 66.0452 86.7018 64.85 86.9774C59.4955 88.2122 54.6102 89.0241 49.078 88.4812L48.9617 88.4693C48.0628 88.0728 47.251 87.1007 46.5416 86.4223C46.4782 85.3154 46.3051 84.0423 46.4601 82.9471C46.6405 81.6734 47.2721 80.3508 47.277 79.0663C47.2822 77.6943 46.543 76.2523 46.3361 74.8888C46.2033 74.0132 46.4353 73.1118 46.8979 72.368C48.612 69.6118 60.6082 57.9884 63.6051 55.3324C66.2721 52.9686 69.2196 50.5276 72.1771 48.5438C73.2435 47.8285 74.3747 47.0929 75.5383 46.547C76.9182 45.8997 80.8304 45.0669 81.5954 43.8522C81.7467 43.6119 81.7237 43.7144 81.6064 43.4498C79.8998 39.5997 78.8433 36.02 77.9927 31.8924C82.4067 29.8302 86.4875 27.2092 90.8293 25.0157C98.0363 21.3746 110.231 16.898 118.328 17.319C119.039 18.0222 119.997 18.8157 120.281 19.8022C120.294 19.8475 120.305 19.8932 120.319 19.9384C120.84 21.7146 120.555 23.9415 120.495 25.7891C123.465 25.4532 126.411 24.7809 129.358 24.2826C134.313 23.4448 140.515 22.566 145.47 22.2517C148.061 22.0875 153.293 23.4759 155.08 22.9312C156.535 22.4879 158.75 21.5327 159.388 20.004C159.711 19.2305 159.158 18.285 158.89 17.5401C158.768 17.3469 158.695 17.1421 158.617 16.927C157.598 14.1081 156.841 10.2242 158.16 7.44377ZM79.2757 32.8106C80.6673 36.3544 81.6668 40.7525 82.3288 44.5109C80.3941 46.7373 77.2372 48.3303 74.8041 50.0014C71.1406 52.5176 66.9711 55.7777 64.0348 59.124C69.6056 56.9798 75.1562 54.3887 80.8467 52.6088C83.7517 51.3586 86.398 49.6486 89.2178 48.2328C91.6169 47.0283 94.192 46.1225 96.7001 45.1708L95.7279 44.6343L95.2731 44.2621C96.8574 41.5998 126.557 33.4203 131.063 32.2772Q140.291 29.9465 149.64 28.1662Q151.229 26.7273 152.791 25.2587C146.922 25.1567 141.146 24.8064 135.283 25.3945C129.889 25.9355 124.688 27.2989 119.234 27.2672C119.278 25.2966 119.74 21.5519 118.33 20.0593C117.871 19.5741 117.07 19.5311 116.436 19.5378C110.714 19.5978 96.2081 24.2348 91.0766 26.6466C87.0724 28.5286 83.3035 31.0502 79.2757 32.8106ZM49.5196 79.1361L48.897 80.5321C48.7644 80.1578 48.6257 79.7848 48.5101 79.4048C48.385 81.222 48.209 83.0899 48.2888 84.9103L48.2831 85.0671C48.2618 85.5681 48.1971 86.0189 48.081 86.506C48.3047 87.2114 48.6137 87.8198 48.9617 88.4693L49.078 88.4812C54.6102 89.0241 59.4955 88.2122 64.85 86.9774C66.0452 86.7018 67.7331 86.5229 68.6927 85.7408L68.2491 85.2882C67.3142 83.6879 64.9204 81.9578 63.5359 80.6337C61.1926 82.0033 58.6978 83.8245 56.0484 84.5038C55.196 84.7224 54.1448 84.8486 53.3737 84.3283C51.1144 82.8039 53.4774 80.7377 53.0852 78.9895C51.9312 78.8171 50.5208 79.6916 49.5196 79.1361ZM167.108 20.5582L168.874 20.3809C169.971 19.7518 171.263 19.0903 172.043 18.0705L172.087 17.4965C170.173 16.4885 165.576 18.0107 163.311 18.026C163.16 15.2729 163.445 9.43988 161.548 7.28742L160.695 7.08482C159.862 7.90848 159.685 9.03947 159.672 10.1718C159.64 12.7915 160.695 15.1699 161.161 17.6966C161.262 18.2449 161.18 19.2576 161.366 19.7176C161.418 19.8453 161.691 20.0796 161.794 20.1937C163.389 20.7004 165.43 20.5324 167.108 20.5582ZM168.874 20.3809L167.108 20.5582C166.469 21.2173 166.03 21.3885 165.095 21.3917C163.829 21.3961 162.581 21.1366 161.344 20.8925L161.276 21.2397C161.626 21.4588 162.097 21.6245 162.188 22.0347C162.243 22.2781 162.257 22.4615 162.226 22.712C162.24 22.7197 162.254 22.7278 162.268 22.7352C164.402 23.859 166.927 23.8029 169.192 23.0878C171.688 22.2997 172.788 21.3493 173.961 19.0652C172.029 18.678 171.346 20.5591 168.874 20.3809ZM158.461 66.1846C159.113 68.0644 160.145 70.262 160.334 72.2313C163.086 74.5223 164.119 80.6489 164.427 84.0929C164.565 85.6397 165.317 86.8976 165.271 88.4558L164.944 88.4154L165.691 88.1276C165.706 88.0447 165.72 87.9615 165.736 87.8788C165.797 87.5678 165.906 87.4274 166.109 87.1919C165.048 80.7346 162.867 74.5707 161.154 68.292C159.981 67.7679 159.473 66.8733 158.461 66.1846ZM158.89 17.5401C159.033 17.4741 158.961 17.4892 159.15 17.4993C159.347 17.5099 159.383 17.4693 159.558 17.3861C159.887 16.2347 158.65 8.92223 158.16 7.44377C156.841 10.2242 157.598 14.1081 158.617 16.927C158.695 17.1421 158.768 17.3469 158.89 17.5401Z"></path>
	<path fill="#CBC0B9" transform="scale(0.886719 0.78125)" d="M98.6858 43.1605C99.3638 43.2299 100.308 43.1463 100.817 43.653C100.905 43.7401 100.916 43.7725 100.969 43.8676C99.5594 44.2925 98.077 44.6568 96.7001 45.1708L95.7279 44.6343L98.6858 43.1605Z"></path>
	<path fill="#474646" transform="scale(0.886719 0.78125)" d="M141.724 40.61C142.219 40.5155 142.326 40.4459 142.798 40.661C142.847 40.9561 142.887 41.2646 142.825 41.5608C142.655 42.378 142.412 43.6815 141.736 44.1328C141.297 43.0694 140.082 42.1597 139.953 41.1063C140.491 40.6357 141.029 40.6958 141.724 40.61Z"></path>
	<path fill="#FCF8F5" transform="scale(0.886719 0.78125)" d="M92.244 106.382C92.85 107.675 93.3797 108.972 93.8742 110.311C92.2073 109.965 90.5492 109.663 88.8634 109.424C89.4401 108.136 91.1245 107.189 92.244 106.382Z"></path>
	<defs>
		<linearGradient id="SvgjsLinearGradient1072" gradientUnits="userSpaceOnUse" x1="142.23631" y1="30.307461" x2="146.82266" y2="31.457323">
			<stop offset="0" stop-color="#A7A5AB"></stop>
			<stop offset="1" stop-color="#B8BBB8"></stop>
		</linearGradient>
	</defs>
	<path fill="url(#gradient_5)" transform="scale(0.886719 0.78125)" d="M148.505 29.3014C148.349 30.2817 147.598 31.1538 147.04 31.9557C145.32 31.9434 143.701 32.0888 142.007 32.3927L141.236 31.0842C143.661 30.5286 146.127 30.0372 148.505 29.3014Z"></path>
	<path transform="scale(0.886719 0.78125)" d="M158.89 17.5401C158.768 17.3469 158.695 17.1421 158.617 16.927C157.598 14.1081 156.841 10.2242 158.16 7.44377C158.65 8.92223 159.887 16.2347 159.558 17.3861C159.383 17.4693 159.347 17.5099 159.15 17.4993C158.961 17.4892 159.033 17.4741 158.89 17.5401Z"></path>
	<path fill="#474646" transform="scale(0.886719 0.78125)" d="M78.2569 102.749C78.4188 102.817 78.4414 102.812 78.567 102.906C79.4109 103.532 80.3099 105.494 80.4629 106.523C80.2954 107.09 80.2521 107.099 79.7626 107.441C78.6577 107.659 77.4602 107.086 76.4228 106.729C75.0605 106.236 73.713 105.74 72.3897 105.148C74.3207 104.275 76.2768 103.502 78.2569 102.749Z"></path>
	<defs>
		<linearGradient id="SvgjsLinearGradient1071" gradientUnits="userSpaceOnUse" x1="161.06175" y1="69.719902" x2="160.17374" y2="70.035255">
			<stop offset="0" stop-color="#1C181E" stop-opacity="0.97254902"></stop>
			<stop offset="1" stop-color="#191D1D"></stop>
		</linearGradient>
	</defs>
	<path fill="url(#gradient_6)" transform="scale(0.886719 0.78125)" d="M158.461 66.1846C159.473 66.8733 159.981 67.7679 161.154 68.292C162.867 74.5707 165.048 80.7346 166.109 87.1919C165.906 87.4274 165.797 87.5678 165.736 87.8788C165.72 87.9615 165.706 88.0447 165.691 88.1276L164.944 88.4154L165.271 88.4558C165.317 86.8976 164.565 85.6397 164.427 84.0929C164.119 80.6489 163.086 74.5223 160.334 72.2313C160.145 70.262 159.113 68.0644 158.461 66.1846Z"></path>
	<path transform="scale(0.886719 0.78125)" d="M168.874 20.3809C171.346 20.5591 172.029 18.678 173.961 19.0652C172.788 21.3493 171.688 22.2997 169.192 23.0878C166.927 23.8029 164.402 23.859 162.268 22.7352C162.254 22.7278 162.24 22.7197 162.226 22.712C162.257 22.4615 162.243 22.2781 162.188 22.0347C162.097 21.6245 161.626 21.4588 161.276 21.2397L161.344 20.8925C162.581 21.1366 163.829 21.3961 165.095 21.3917C166.03 21.3885 166.469 21.2173 167.108 20.5582L168.874 20.3809Z"></path>
	<defs>
		<linearGradient id="SvgjsLinearGradient1070" gradientUnits="userSpaceOnUse" x1="114.86883" y1="36.731552" x2="101.58562" y2="44.43996">
			<stop offset="0" stop-color="#A1A1A5"></stop>
			<stop offset="1" stop-color="#D0CDD0"></stop>
		</linearGradient>
	</defs>
	<path fill="url(#gradient_7)" transform="scale(0.886719 0.78125)" d="M114.202 37.993C115.262 37.9465 115.953 37.8904 116.785 38.651C116.813 38.6765 116.84 38.703 116.867 38.729L106.231 42.2052C104.674 42.7157 102.812 43.1463 101.345 43.8575L100.969 43.8676C100.916 43.7725 100.905 43.7401 100.817 43.653C100.308 43.1463 99.3638 43.2299 98.6858 43.1605C103.633 40.9411 108.942 39.2913 114.202 37.993Z"></path>
	<path fill="#80807F" transform="scale(0.886719 0.78125)" d="M114.202 37.993C123.195 35.5713 132.199 33.3398 141.236 31.0842L142.007 32.3927C133.407 34.1138 125.197 35.949 116.867 38.729C116.84 38.703 116.813 38.6765 116.785 38.651C115.953 37.8904 115.262 37.9465 114.202 37.993Z"></path>
	<path fill="#474646" transform="scale(0.886719 0.78125)" d="M62.0028 74.4903L62.2019 74.6703Q62.0836 75.0324 61.9778 75.3983C61.4911 77.099 62.1756 78.2286 62.9744 79.6839C60.4451 81.1754 57.95 82.4886 55.1473 83.3897C54.8699 83.3831 54.5817 83.3879 54.3222 83.2785C54.0309 83.1558 53.9484 83.1015 53.8331 82.8157C53.3802 81.6939 54.54 79.7304 54.9989 78.6775C57.5441 77.5091 59.7782 76.196 62.0028 74.4903Z"></path>
	<defs>
		<linearGradient id="SvgjsLinearGradient1069" gradientUnits="userSpaceOnUse" x1="84.99395" y1="100.96605" x2="91.977875" y2="104.15686">
			<stop offset="0" stop-color="#908780"></stop>
			<stop offset="1" stop-color="#B1A8A2"></stop>
		</linearGradient>
	</defs>
	<path fill="url(#gradient_8)" transform="scale(0.886719 0.78125)" d="M88.8336 93.4058C90.0905 97.7728 90.6085 102.076 92.244 106.382C91.1245 107.189 89.4401 108.136 88.8634 109.424C88.5922 109.432 87.9957 109.358 87.7738 109.21C86.5854 108.414 84.6109 103.512 84.356 102.034C84.242 101.373 84.3408 101.226 84.7201 100.699C85.0539 100.515 85.3854 100.315 85.7766 100.309C87.3301 100.287 86.9527 101.817 87.8147 102.681L88.0445 102.491L87.7782 102.349L88.2756 102.129C88.0919 101.897 88.7803 94.3937 88.8336 93.4058Z"></path>
	<path fill="#46AC2E" fill-opacity="0.98823529" transform="scale(0.886719 0.78125)" d="M167.108 20.5582C165.43 20.5324 163.389 20.7004 161.794 20.1937C161.691 20.0796 161.418 19.8453 161.366 19.7176C161.18 19.2576 161.262 18.2449 161.161 17.6966C160.695 15.1699 159.64 12.7915 159.672 10.1718C159.685 9.03947 159.862 7.90848 160.695 7.08482L161.548 7.28742C163.445 9.43988 163.16 15.2729 163.311 18.026C165.576 18.0107 170.173 16.4885 172.087 17.4965L172.043 18.0705C171.263 19.0903 169.971 19.7518 168.874 20.3809L167.108 20.5582Z"></path>
	<path fill="#474646" transform="scale(0.886719 0.78125)" d="M77.8646 64.4871L78.1061 64.7176C77.7636 66.0974 77.0784 67.3624 76.7462 68.7543C76.4317 70.072 76.32 73.1944 75.8047 74.2C75.7331 74.3397 75.2711 74.6212 75.1155 74.7131C73.3596 75.7496 72.0846 75.8867 70.5585 77.4956C70.0037 76.8453 69.3644 76.2471 68.7639 75.6376L65.6778 72.4872C69.169 69.4801 73.7896 66.6249 77.8646 64.4871Z"></path>
	<path fill="#1B1A1B" transform="scale(0.886719 0.78125)" d="M164.754 93.4122C165.393 95.0239 165.293 99.984 165.473 101.936C165.659 103.958 165.967 105.977 166.25 107.988C163.435 108.447 160.577 108.64 157.737 108.888C157.985 106.275 157.799 103.562 157.757 100.938C157.747 98.9648 157.136 96.9917 157.086 94.9952C157.546 96.6906 157.876 101.837 158.225 102.576C158.242 102.614 158.263 102.65 158.282 102.687L158.146 102.751C159.07 101.85 160.038 101.577 160.973 100.823C161.615 100.306 160.918 98.917 161.036 98.1733C161.387 95.9615 163.211 96.8563 164.435 96.0239C164.936 95.2946 164.779 94.2613 164.754 93.4122Z"></path>
	<path fill="#FCF8F5" transform="scale(0.886719 0.78125)" d="M98.4009 48.4796C99.6554 49.1631 100.247 49.9144 100.996 51.0988C95.8376 53.2166 90.752 55.3765 85.7517 57.8526C82.7271 59.3504 79.1246 61.6949 75.9795 62.736C75.4519 62.5022 75.2394 62.4563 75.0393 61.8647C74.7734 61.0788 74.942 59.9135 75.3409 59.2C75.4154 59.0669 75.5013 58.9449 75.5925 58.8233C82.1043 54.1367 90.6774 50.5604 98.4009 48.4796Z"></path>
	<path fill="#474646" transform="scale(0.886719 0.78125)" d="M49.5196 79.1361C50.5208 79.6916 51.9312 78.8171 53.0852 78.9895C53.4774 80.7377 51.1144 82.8039 53.3737 84.3283C54.1448 84.8486 55.196 84.7224 56.0484 84.5038C58.6978 83.8245 61.1926 82.0033 63.5359 80.6337C64.9204 81.9578 67.3142 83.6879 68.2491 85.2882L68.6927 85.7408C67.7331 86.5229 66.0452 86.7018 64.85 86.9774C59.4955 88.2122 54.6102 89.0241 49.078 88.4812L48.9617 88.4693C48.6137 87.8198 48.3047 87.2114 48.081 86.506C48.1971 86.0189 48.2618 85.5681 48.2831 85.0671L48.2888 84.9103C48.209 83.0899 48.385 81.222 48.5101 79.4048C48.6257 79.7848 48.7644 80.1578 48.897 80.5321L49.5196 79.1361ZM48.2888 84.9103L48.2831 85.0671C48.2618 85.5681 48.1971 86.0189 48.081 86.506C48.3047 87.2114 48.6137 87.8198 48.9617 88.4693L49.078 88.4812C54.6102 89.0241 59.4955 88.2122 64.85 86.9774C66.0452 86.7018 67.7331 86.5229 68.6927 85.7408L68.2491 85.2882C64.1662 85.033 51.538 87.9117 48.8789 86.3552C48.4974 86.1319 48.4048 85.3231 48.2888 84.9103Z"></path>
	<defs>
		<linearGradient id="SvgjsLinearGradient1068" gradientUnits="userSpaceOnUse" x1="56.840645" y1="87.958443" x2="56.7225" y2="85.568771">
			<stop offset="0" stop-color="#0F0E0D" stop-opacity="0.96470588"></stop>
			<stop offset="1" stop-color="#060707"></stop>
		</linearGradient>
	</defs>
	<path fill="url(#gradient_9)" transform="scale(0.886719 0.78125)" d="M48.2888 84.9103C48.4048 85.3231 48.4974 86.1319 48.8789 86.3552C51.538 87.9117 64.1662 85.033 68.2491 85.2882L68.6927 85.7408C67.7331 86.5229 66.0452 86.7018 64.85 86.9774C59.4955 88.2122 54.6102 89.0241 49.078 88.4812L48.9617 88.4693C48.6137 87.8198 48.3047 87.2114 48.081 86.506C48.1971 86.0189 48.2618 85.5681 48.2831 85.0671L48.2888 84.9103Z"></path>
	<path fill="#474646" transform="scale(0.886719 0.78125)" d="M166.491 97.4157C173.038 97.7909 181.325 100.477 186.466 104.646L183.999 104.933C178.597 105.533 173.227 107.132 167.815 107.382C166.923 104.154 166.745 100.74 166.491 97.4157Z"></path>
	<defs>
		<linearGradient id="SvgjsLinearGradient1067" gradientUnits="userSpaceOnUse" x1="151.78807" y1="48.905743" x2="158.51192" y2="34.517143">
			<stop offset="0" stop-color="#3E3E3F"></stop>
			<stop offset="1" stop-color="#706F6F"></stop>
		</linearGradient>
	</defs>
	<path fill="url(#gradient_10)" transform="scale(0.886719 0.78125)" d="M145.421 40.0086C153.346 37.5164 161.768 37.707 169.977 38.0898C164.824 39.6439 160.51 42.3014 155.725 44.615C153.579 45.6525 151.286 46.4439 149.052 47.2754L148.89 47.6691L149.436 48.1753L148.784 48.4634C147.363 46.8877 145.03 46.3958 144.215 45.2762C144.005 43.7809 145.002 41.4958 145.421 40.0086Z"></path>
	<path fill="#80807F" transform="scale(0.886719 0.78125)" d="M146.61 52.158C146.175 52.9713 145.734 53.9711 145.127 54.6638C144.457 55.4288 143.331 55.9262 142.321 55.9727C140.6 56.052 138.96 54.8733 137.78 53.7432C136.132 52.1643 134.387 49.714 134.386 47.3541C134.385 46.6281 134.606 46.2931 135.092 45.7887C137.286 45.2478 138.01 47.5353 139.851 47.8548C141.33 48.1114 142.74 46.7209 144.457 47.0644C147.933 47.76 152.02 54.1489 153.878 56.9844C155.471 59.996 156.775 63.2477 158.461 66.1846C159.113 68.0644 160.145 70.262 160.334 72.2313C156.735 66.1771 151.494 56.9296 146.61 52.158Z"></path>
	<path fill="#474646" transform="scale(0.886719 0.78125)" d="M175.888 31.8799C177.466 32.1493 180.176 32.0453 181.164 33.4266C181.709 34.1894 181.805 35.2236 181.913 36.1269C180.27 36.2983 179.258 37.4843 178.156 38.6057C176.7 39.6085 170.128 43.8645 169.436 44.8223C163.009 48.925 159.545 50.3598 152.319 52.5212C151.246 51.0586 150.109 49.7073 148.784 48.4634L149.436 48.1753C151.607 47.1119 154.269 46.5889 156.55 45.7167C161.112 43.9726 165.767 41.2751 169.76 38.4503C170.965 38.6284 172.667 39.0411 173.767 38.3648L174.056 38.7638C174.604 38.9182 174.781 39.0274 175.325 38.7868C176.167 38.4143 176.645 37.5431 176.938 36.7141C177.234 35.8804 177.382 34.8495 176.931 34.0417C176.251 32.8228 174.371 33.1801 173.145 32.7764L172.903 32.695C173.947 32.5705 175.021 32.5348 175.888 31.8799Z"></path>
	<path fill="#80807F" transform="scale(0.886719 0.78125)" d="M98.0337 54.3289L98.4229 54.5015C98.336 54.8739 98.2496 55.0434 98.3723 55.4115C102.651 55.7302 106.474 54.721 110.752 55.8236C105.823 58.1495 100.1 57.4448 94.9102 59.2338L97.4356 60.8238C97.6884 65.6851 98.1077 71.9093 95.3604 76.1544C94.3258 76.5351 93.3218 76.993 92.3132 77.437C92.2551 75.9375 92.2858 74.4393 92.3069 72.9393C92.552 70.6693 92.6549 68.2686 92.1433 66.0326C91.8435 64.722 91.1094 63.7438 90.3532 62.6596C88.6234 65.3603 87.7799 68.473 86.4658 71.3738C85.9734 72.4608 85.3332 73.8528 84.1718 74.2903L83.9401 74.0488C84.5173 69.3423 85.0793 64.6766 85.5773 59.9598C89.573 57.7895 93.7957 55.9678 98.0337 54.3289Z"></path>
	<defs>
		<linearGradient id="SvgjsLinearGradient1066" gradientUnits="userSpaceOnUse" x1="162.82808" y1="40.477406" x2="160.94368" y2="27.471937">
			<stop offset="0" stop-color="#535253"></stop>
			<stop offset="1" stop-color="#878687"></stop>
		</linearGradient>
	</defs>
	<path fill="url(#gradient_11)" transform="scale(0.886719 0.78125)" d="M149.608 30.6584C151.522 28.1465 154.819 28.1005 157.762 27.7036C159.873 27.4188 169.813 26.9674 171.221 28.0763C172.11 28.7759 172.446 30.5667 172.758 31.6228L172.53 32.0198C171.027 32.279 168.171 32.2937 167.031 33.2798C167.102 33.4619 167.095 33.5955 167.28 33.6827C168.978 34.4802 171.195 32.6769 172.903 32.695L173.145 32.7764C174.371 33.1801 176.251 32.8228 176.931 34.0417C177.382 34.8495 177.234 35.8804 176.938 36.7141C176.645 37.5431 176.167 38.4143 175.325 38.7868C174.781 39.0274 174.604 38.9182 174.056 38.7638L173.767 38.3648C173.673 38.2943 173.54 38.19 173.433 38.1262C166.7 34.0937 153.683 35.2225 146.389 37.2584C147.281 34.9836 148.535 32.8512 149.608 30.6584Z"></path>
	<defs>
		<linearGradient id="SvgjsLinearGradient1065" gradientUnits="userSpaceOnUse" x1="129.04803" y1="25.823975" x2="115.54057" y2="55.749046">
			<stop offset="0" stop-color="#3C3B3A"></stop>
			<stop offset="1" stop-color="#555557"></stop>
		</linearGradient>
	</defs>
	<path fill="url(#gradient_12)" transform="scale(0.886719 0.78125)" d="M101 44.9096C109.562 42.3395 117.983 38.9612 126.641 36.7663Q131.115 35.6011 135.671 34.8138C139.349 34.1876 143.133 33.8585 146.635 32.5115C145.722 34.3158 144.774 36.1113 143.952 37.9592C136.144 40.3689 127.934 41.5187 120.067 43.8025C113.805 45.6206 107.93 48.5601 101.813 50.7803C101.648 49.4324 101.529 48.158 100.595 47.0892C100.218 46.5626 99.5336 46.4172 98.9606 46.1049C99.4345 45.4919 100.247 45.3899 100.905 44.9719C100.937 44.9516 100.968 44.9304 101 44.9096Z"></path>
	<defs>
		<linearGradient id="SvgjsLinearGradient1064" gradientUnits="userSpaceOnUse" x1="66.521179" y1="71.086929" x2="59.370544" y2="64.041656">
			<stop offset="0" stop-color="#403F40"></stop>
			<stop offset="1" stop-color="#626162"></stop>
		</linearGradient>
	</defs>
	<path fill="url(#gradient_13)" transform="scale(0.886719 0.78125)" d="M79.0012 54.6083C78.8129 55.5615 78.4528 55.7364 77.6539 56.2695C76.6275 56.9544 75.6141 57.5552 74.6982 58.3956C73.93 59.3497 73.5781 60.1286 73.7116 61.3744C73.8155 62.3445 74.2488 63.3682 74.623 64.2677C68.5942 67.6565 63.173 72.1019 57.1977 75.5772C55.5059 76.5612 50.5334 78.0997 49.5196 79.1361L48.897 80.5321C48.7644 80.1578 48.6257 79.7848 48.5101 79.4048L48.2546 79.1526Q48.1589 78.6531 48.1465 78.1448Q48.1341 77.6364 48.2052 77.1328Q48.2764 76.6293 48.4292 76.1442Q48.582 75.6592 48.8123 75.2058C50.507 71.9288 59.4437 63.0427 62.5966 61.2296C66.1629 59.1787 74.9235 55.8882 79.0012 54.6083Z"></path>
	<defs>
		<linearGradient id="SvgjsLinearGradient1063" gradientUnits="userSpaceOnUse" x1="107.57723" y1="60.120495" x2="110.15176" y2="19.518208">
			<stop offset="0" stop-color="#6D6D6D"></stop>
			<stop offset="1" stop-color="#868486"></stop>
		</linearGradient>
	</defs>
	<path fill="url(#gradient_14)" transform="scale(0.886719 0.78125)" d="M79.2757 32.8106C83.3035 31.0502 87.0724 28.5286 91.0766 26.6466C96.2081 24.2348 110.714 19.5978 116.436 19.5378C117.07 19.5311 117.871 19.5741 118.33 20.0593C119.74 21.5519 119.278 25.2966 119.234 27.2672C124.688 27.2989 129.889 25.9355 135.283 25.3945C141.146 24.8064 146.922 25.1567 152.791 25.2587Q151.229 26.7273 149.64 28.1662Q140.291 29.9465 131.063 32.2772C126.557 33.4203 96.8574 41.5998 95.2731 44.2621L95.7279 44.6343L96.7001 45.1708C94.192 46.1225 91.6169 47.0283 89.2178 48.2328C86.398 49.6486 83.7517 51.3586 80.8467 52.6088C75.1562 54.3887 69.6056 56.9798 64.0348 59.124C66.9711 55.7777 71.1406 52.5176 74.8041 50.0014C77.2372 48.3303 80.3941 46.7373 82.3288 44.5109C81.6668 40.7525 80.6673 36.3544 79.2757 32.8106ZM84.2509 34.5674L84.2695 39.6295C85.4997 39.281 86.7428 38.868 87.999 38.6298C91.7845 37.1229 95.4701 35.2302 99.1599 33.4978C103.867 31.3268 110.597 27.9295 115.73 27.5939C114.683 25.9769 114.081 24.5959 113.641 22.7038C107.62 24.6823 101.57 27.1216 95.7624 29.6599C91.8296 31.3787 88.5655 33.8469 84.2509 34.5674Z"></path>
	<path transform="scale(0.886719 0.78125)" d="M99.1599 33.4978C99.5531 34.1679 99.7686 34.3993 100.503 34.7002C101.201 34.5348 101.497 34.3512 102.166 34.644C102.111 35.1804 101.889 35.3476 101.48 35.6779C98.0216 38.4687 92.7856 39.6107 88.6714 41.2418C86.6964 42.0248 84.8233 42.9733 82.9541 43.9791C84.6569 42.0451 87.2317 41.2267 89.2068 39.6362L88.798 39.5253C89.1798 39.2806 89.3626 39.1504 89.5343 38.7243C88.8339 38.8683 88.6697 38.9512 87.999 38.6298C91.7845 37.1229 95.4701 35.2302 99.1599 33.4978Z"></path>
	<path fill="#80807F" transform="scale(0.886719 0.78125)" d="M99.1599 33.4978C99.5531 34.1679 99.7686 34.3993 100.503 34.7002C98.0559 35.5575 95.614 36.4108 93.2724 37.5334C91.9483 38.1682 90.5582 39.1385 89.2068 39.6362L88.798 39.5253C89.1798 39.2806 89.3626 39.1504 89.5343 38.7243C88.8339 38.8683 88.6697 38.9512 87.999 38.6298C91.7845 37.1229 95.4701 35.2302 99.1599 33.4978Z"></path>
	<path transform="scale(0.886719 0.78125)" d="M84.2509 34.5674C88.5655 33.8469 91.8296 31.3787 95.7624 29.6599C101.57 27.1216 107.62 24.6823 113.641 22.7038C114.081 24.5959 114.683 25.9769 115.73 27.5939C110.597 27.9295 103.867 31.3268 99.1599 33.4978C95.4701 35.2302 91.7845 37.1229 87.999 38.6298C86.7428 38.868 85.4997 39.281 84.2695 39.6295L84.2509 34.5674ZM112.462 25.2624C108.013 26.8312 86.7459 33.7691 85.4181 36.6164C85.3328 36.7993 85.2631 36.9864 85.1943 37.1759C85.3623 37.6058 85.4799 37.7989 85.9206 37.9932C85.9621 38.0115 86.0081 38.0165 86.0519 38.0282C89.1092 37.5298 92.5082 34.6765 95.323 33.2512C98.7231 31.5294 102.239 29.9433 105.73 28.4139C107.523 27.6287 112.105 26.7711 113.178 25.6223L112.963 25.3014L112.462 25.2624Z"></path>
	<path fill="#1B1A1B" transform="scale(0.886719 0.78125)" d="M120.687 45.8496L120.818 45.9199C120.948 46.4349 119.748 47.867 119.406 48.3968C114.177 56.487 110.063 65.613 107.165 74.7906C106.458 77.0321 106.295 79.4782 105.544 81.6565C105.34 82.2476 105.163 82.535 104.613 82.8132C103.584 81.0763 102.609 77.0581 100.784 76.1702C100.656 76.2773 100.623 76.2926 100.526 76.413C97.9624 79.602 100.078 105.864 100.386 111.244C98.6028 111.075 96.8053 110.692 95.0376 110.396C94.0646 107.639 92.2962 101.161 91.6957 98.3151C91.4671 97.2321 91.0751 93.8769 90.5797 93.1985C90.4907 93.0766 90.2048 92.9205 90.074 92.8235C89.3913 92.7718 88.6437 92.6684 88.0553 93.0985C86.7712 94.037 86.7878 96.6116 86.6123 98.0538C85.3807 98.0403 83.4556 97.8574 82.5169 98.8395C81.5594 99.8413 81.7566 101.743 81.7507 103.031C79.5233 99.551 75.1325 94.4438 72.0699 91.6885Q72.3335 91.5333 72.5946 91.3741C73.3353 90.9216 74.0746 90.5703 74.2391 89.632C74.8788 85.9849 66.9479 82.8414 65.2325 80.1881C65.2108 80.1545 65.1915 80.1196 65.171 80.0853C64.7678 79.6741 64.3421 79.2273 64.0253 78.7436C63.0101 77.1938 63.6575 75.2152 64.0229 73.5621C67.7928 78.0326 71.6704 82.2905 77.0156 84.8171C75.1914 82.7151 74.5988 80.8365 72.2263 79.0159C74.214 78.7574 75.9685 78.389 77.8777 77.785C78.0414 73.0707 79.1489 68.1618 79.9733 63.5298C80.6343 62.7786 81.6424 61.9393 82.6446 61.7497C85.1223 63.1627 80.1504 73.7029 81.6933 76.6839C82.0434 76.8916 82.1858 77.0507 82.607 76.9968C84.4195 76.7646 87.7214 73.7432 88.8994 72.3489C88.9996 74.5123 89.1233 76.7921 90.4727 78.5935C91.0049 79.304 91.824 79.9601 92.7405 80.0321C93.9159 80.1245 94.922 79.3934 95.7304 78.626C99.8214 74.7422 98.8374 68.957 98.9936 63.8282C99.0092 63.3171 99.0027 62.0932 99.2086 61.6675C99.5625 60.9364 109.522 59.806 111.862 57.5273C112.399 57.005 112.837 56.499 112.844 55.712C110.864 52.5805 105.278 54.7353 102.449 53.5353L102.374 53.174C103.85 51.4646 117.9 46.2191 120.687 45.8496Z"></path>
	<path fill="#FCF8F5" transform="scale(0.886719 0.78125)" d="M141.984 87.8027C141.992 86.6924 142.848 85.8768 143.563 85.108C144.463 84.1397 146.012 82.6939 147.413 82.6861C147.627 82.6849 147.686 82.823 147.834 82.9637C147.885 83.6436 147.026 84.6121 146.66 85.2542L146.917 85.2503L147.178 85.5179L146.878 87.3518C147.467 87.7704 150.762 87.7291 152.109 88.2807L152.34 88.3769L152.634 88.2476C152.555 88.0144 152.479 87.7794 152.422 87.5398C152.265 86.8847 152.277 86.0851 152.628 85.5218C154.033 89.0684 154.778 94.2846 155.036 98.0939C155.996 101.076 155.992 105.693 156.257 108.89C151.866 109.656 147.444 110.591 143.025 111.148C139.605 111.58 136.091 111.564 132.647 111.787C122.669 112.435 112.779 113.188 102.842 111.654C102.441 109.028 102.189 106.34 102.188 103.682C102.929 104.53 102.899 105.36 103.077 106.446L103.33 105.762L104.042 105.447C105.819 105.196 106.952 105.482 108.596 106.108C110.179 105.61 111.935 104.932 113.274 103.947C114.023 103.397 113.978 103.135 114.114 102.275C114.181 103.157 114.036 104.754 114.553 105.457C115.014 105.606 115.172 105.617 115.635 105.474C117.789 103.562 117.852 100.353 118.063 97.6821C117.977 96.8282 117.99 95.9395 117.958 95.0801C118.038 93.8025 118.039 92.5063 118.077 91.2259C119.435 90.6124 120.766 90.1598 122.228 89.8636C125.48 89.2045 139.602 86.2274 141.984 87.8027Z"></path>
	<path fill="#FE9E9B" transform="scale(0.886719 0.78125)" d="M145.667 103.975C146.515 103.721 148.633 103.478 149.042 102.725C149.134 102.558 149.215 102.384 149.297 102.211C150.281 102.838 152.25 104.77 152.493 105.916C152.52 106.044 152.51 106.113 152.509 106.251C151.722 106.905 150.531 106.699 149.556 106.61C148.079 106.475 146.448 106.444 145.028 106.034L145.667 103.975Z"></path>
	<path fill="#FE9E9B" transform="scale(0.886719 0.78125)" d="M114.114 102.275C114.181 103.157 114.036 104.754 114.553 105.457C115.014 105.606 115.172 105.617 115.635 105.474C115.837 106.235 115.926 106.472 115.689 107.251C114.793 108.278 113.22 108.392 111.935 108.486C110.239 108.609 105.627 109.052 104.303 108.017C103.948 107.739 103.795 107.313 103.764 106.868C103.733 106.415 103.898 105.875 104.042 105.447C105.819 105.196 106.952 105.482 108.596 106.108C110.179 105.61 111.935 104.932 113.274 103.947C114.023 103.397 113.978 103.135 114.114 102.275Z"></path>
	<defs>
		<linearGradient id="SvgjsLinearGradient1062" gradientUnits="userSpaceOnUse" x1="150.61853" y1="87.886208" x2="149.71364" y2="92.907799">
			<stop offset="0" stop-color="#9F9691"></stop>
			<stop offset="1" stop-color="#D1C7BE"></stop>
		</linearGradient>
	</defs>
	<path fill="url(#gradient_15)" transform="scale(0.886719 0.78125)" d="M152.628 85.5218C154.033 89.0684 154.778 94.2846 155.036 98.0939C153.838 96.9128 154.254 94.8395 153.114 93.8797C152.119 93.0424 148.499 92.1892 147.172 92.3539C146.649 92.4187 146.751 95.55 146.138 96.2785C146.106 96.316 146.071 96.3499 146.037 96.3856C145.946 92.7249 145.673 88.8084 146.66 85.2542L146.917 85.2503L147.178 85.5179L146.878 87.3518C147.467 87.7704 150.762 87.7291 152.109 88.2807L152.34 88.3769L152.634 88.2476C152.555 88.0144 152.479 87.7794 152.422 87.5398C152.265 86.8847 152.277 86.0851 152.628 85.5218Z"></path>
	<path fill="#CBC0B9" transform="scale(0.886719 0.78125)" d="M118.077 91.2259C119.435 90.6124 120.766 90.1598 122.228 89.8636C125.48 89.2045 139.602 86.2274 141.984 87.8027L141.667 94.6787C141.625 94.6131 141.581 94.549 141.542 94.4821C141.131 93.7796 141.213 92.0332 141.088 91.1752C135.038 91.0341 122.998 90.6999 118.487 94.9195C118.083 95.8416 118.278 96.7425 118.063 97.6821C117.977 96.8282 117.99 95.9395 117.958 95.0801C118.038 93.8025 118.039 92.5063 118.077 91.2259Z"></path>
	<path transform="scale(0.886719 0.78125)" d="M141.984 87.8027C141.992 86.6924 142.848 85.8768 143.563 85.108C144.463 84.1397 146.012 82.6939 147.413 82.6861C147.627 82.6849 147.686 82.823 147.834 82.9637C147.885 83.6436 147.026 84.6121 146.66 85.2542C145.673 88.8084 145.946 92.7249 146.037 96.3856C145.897 98.8804 145.995 101.509 145.667 103.975L145.028 106.034C144.496 106.148 144.218 106.256 143.739 105.9C141.832 104.483 141.851 96.9281 141.667 94.6787L141.984 87.8027Z"></path>
	<path fill="#80807F" transform="scale(0.886719 0.78125)" d="M122.389 47.883C129.141 53.3042 140.041 73.2614 143.18 81.7649C144.494 76.0513 144.752 70.4879 145.101 64.6529C148.967 70.9443 151.273 78.2708 152.628 85.5218C152.277 86.0851 152.265 86.8847 152.422 87.5398C152.479 87.7794 152.555 88.0144 152.634 88.2476L152.34 88.3769L152.109 88.2807C150.762 87.7291 147.467 87.7704 146.878 87.3518L147.178 85.5179L146.917 85.2503L146.66 85.2542C147.026 84.6121 147.885 83.6436 147.834 82.9637C147.686 82.823 147.627 82.6849 147.413 82.6861C146.012 82.6939 144.463 84.1397 143.563 85.108C142.848 85.8768 141.992 86.6924 141.984 87.8027C139.602 86.2274 125.48 89.2045 122.228 89.8636C120.766 90.1598 119.435 90.6124 118.077 91.2259C118.039 92.5063 118.038 93.8025 117.958 95.0801C117.99 95.9395 117.977 96.8282 118.063 97.6821C117.852 100.353 117.789 103.562 115.635 105.474C115.172 105.617 115.014 105.606 114.553 105.457C114.036 104.754 114.181 103.157 114.114 102.275C113.978 103.135 114.023 103.397 113.274 103.947C111.935 104.932 110.179 105.61 108.596 106.108C106.952 105.482 105.819 105.196 104.042 105.447L103.33 105.762L103.077 106.446C102.899 105.36 102.929 104.53 102.188 103.682C101.636 101.477 101.841 98.6418 101.744 96.3493C101.529 93.2572 100.672 84.6862 101.594 82.049C101.721 81.6867 101.736 81.6505 102.091 81.48C103.081 82.1265 103.622 83.99 104.377 84.9565C104.779 85.4721 105.018 85.7068 105.661 85.8016C106.811 84.9609 109.255 74.6853 110.028 72.4527Q112.348 65.952 115.45 59.7862Q118.552 53.6204 122.389 47.883Z"></path>
	<path transform="scale(0.886719 0.78125)" d="M112.798 86.266C114.806 84.4269 116.016 82.7463 117.2 80.2753C117.344 85.146 117.359 90.2495 117.958 95.0801C117.99 95.9395 117.977 96.8282 118.063 97.6821C117.852 100.353 117.789 103.562 115.635 105.474C115.172 105.617 115.014 105.606 114.553 105.457C114.036 104.754 114.181 103.157 114.114 102.275C113.628 98.9699 113.334 95.6142 112.973 92.2924C112.948 90.283 112.812 88.2733 112.798 86.266Z"></path>
	<defs>
		<linearGradient id="SvgjsLinearGradient1061" gradientUnits="userSpaceOnUse" x1="105.96712" y1="96.349426" x2="109.00726" y2="105.33585">
			<stop offset="0" stop-color="#D4C7BF"></stop>
			<stop offset="1" stop-color="#FFFEEE"></stop>
		</linearGradient>
	</defs>
	<path fill="url(#gradient_16)" transform="scale(0.886719 0.78125)" d="M101.744 96.3493C101.894 95.6609 102 95.004 102.383 94.4004C102.421 94.8063 102.36 95.2237 102.679 95.4929C104.181 95.1023 105.539 93.5351 107.08 92.98C108.362 92.5177 111.749 91.708 112.973 92.2924C113.334 95.6142 113.628 98.9699 114.114 102.275C113.978 103.135 114.023 103.397 113.274 103.947C111.935 104.932 110.179 105.61 108.596 106.108C106.952 105.482 105.819 105.196 104.042 105.447L103.33 105.762L103.077 106.446C102.899 105.36 102.929 104.53 102.188 103.682C101.636 101.477 101.841 98.6418 101.744 96.3493Z"></path>
	<path transform="scale(0.886719 0.78125)" d="M66.6593 102.516C68.6972 102.176 75.4698 99.8909 76.6549 100.411C75.6 102.134 69.6527 102.334 70.3852 105.503C70.6011 106.437 71.7627 107.146 72.5372 107.579C77.291 110.239 83.0993 110.871 88.3859 111.812C96.5134 113.26 104.767 114.891 113.029 115.261C118.341 115.499 123.743 114.892 129.053 114.611C134.023 114.348 139.012 114.195 143.97 113.753C146.985 113.484 149.97 112.972 152.981 112.684C156.236 112.373 159.508 112.288 162.757 111.899C168.956 111.158 178.327 109.256 184.312 107.492C185.459 107.154 187.465 106.663 188.03 105.543C188.202 105.203 188.105 104.924 188.063 104.556C186.255 101.378 178.365 98.0108 174.791 97.0252C172.282 96.3334 169.482 95.5871 166.882 95.4415C166.513 94.9913 166.509 94.9587 166.494 94.3752L166.886 94.1111C172.951 95.7178 188.501 98.8139 192.672 102.823C192.464 104.034 192.371 105.179 192.337 106.405C192.836 107.88 192.381 109.283 192.5 110.779C192.533 112.348 192.602 113.923 192.511 115.491C192.714 118.518 192.448 121.471 192.826 124.502C192.277 125.545 191.863 126.822 191.191 127.767C190.332 128.968 190.561 132.562 190.48 134.087C190.492 141.385 189.126 148.904 188.089 156.121C187.739 158.553 187.257 161.032 187.097 163.483C186.714 165.059 186.605 166.71 186.202 168.266C185.809 168.34 185.835 168.312 185.499 168.086Q185.274 166.285 185.079 164.481L184.398 164.629L184.115 166.752C183.896 167.966 183.551 169.269 183.531 170.5L183.487 170.916C183.724 174.504 182.918 177.382 182.384 180.852C182.287 181.48 182.457 182.093 182.333 182.719L182.168 183.502C182.433 185.333 181.913 188.559 183.131 189.826C183.107 190.461 182.978 190.886 182.707 191.459L182.052 191.649C181.929 192.199 181.837 192.747 181.756 193.304C181.43 192.978 181.228 192.669 181.004 192.267L180.616 193.467C180.385 193.514 180.227 193.557 179.992 193.523C179.893 194.306 179.756 195.104 179.712 195.891C180.337 197.349 179.901 198.377 180.102 199.83C179.844 200.514 179.665 201.247 178.972 201.607C178.841 202.54 178.65 203.501 178.596 204.44C177.659 211.612 176.165 218.87 175.55 226.054C176.62 227.232 176.153 229.743 176.527 231.299L176.887 232.175C176.203 235.48 175.474 238.752 174.982 242.094C172.696 244.335 169.978 245.773 167.091 247.114C155.406 252.543 143.153 252.724 130.56 252.592C121.533 252.497 112.401 250.367 103.737 247.966C100.105 247.17 96.4892 245.748 92.9718 244.534C91.0849 243.726 89.3163 242.65 87.3045 242.172C85.3657 240.158 83.86 235.535 82.1233 234.269C82.0755 234.236 82.0239 234.209 81.9797 234.171C81.277 233.575 81.4021 230.684 81.3565 229.684C80.2103 223.566 79.932 217.114 79.3496 210.908C78.5716 202.619 77.4893 194.352 76.6993 186.066C76.098 179.759 75.9017 173.32 74.9844 167.051C74.3587 164.835 74.4077 162.357 74.2883 160.066L73.9809 158.059C73.328 155.89 73.4098 153.31 73.2962 151.05L72.9888 149.043C72.3967 147.1 72.3958 144.904 72.2509 142.882C71.6297 138.617 71.3361 134.339 70.2468 130.157L70.2508 130.125C69.7073 129.541 69.1323 128.983 68.5693 128.417C68.4952 126.041 67.9894 123.74 67.7145 121.386C67.4808 119.385 67.5097 117.358 67.3537 115.35C67.0596 111.566 65.9452 106.936 66.7409 103.243L66.6593 102.516ZM163.221 123.989C163.398 127.117 163.451 130.309 163.951 133.404C163.396 133.903 162.811 134.446 162.113 134.733C157.814 136.501 144.999 137.614 140.274 137.365C138.164 137.253 136.059 137.04 133.95 136.933C133.714 140.51 133.975 144.443 134.976 147.894C145.096 148.768 154.224 151.282 163.964 154.046C164.253 150.456 165.463 132.43 166.576 130.484L167.082 130.339C167.291 130.463 167.739 130.805 167.957 130.856C168.609 131.009 176.077 128.985 177.39 128.715C177.15 131.533 177.881 134.694 177.98 137.564C178.142 142.226 177.842 146.934 177.674 151.596C176.948 171.691 175.347 191.744 174.618 211.83C174.494 215.248 173.126 236.051 173.809 237.49L174.123 237.5C174.744 234.011 174.624 230.108 175.494 226.718L175.55 226.054C176.165 218.87 177.659 211.612 178.596 204.44C178.65 203.501 178.841 202.54 178.972 201.607C179.665 201.247 179.844 200.514 180.102 199.83C179.901 198.377 180.337 197.349 179.712 195.891C179.756 195.104 179.893 194.306 179.992 193.523C180.227 193.557 180.385 193.514 180.616 193.467L181.004 192.267C181.228 192.669 181.43 192.978 181.756 193.304C181.837 192.747 181.929 192.199 182.052 191.649L182.707 191.459C182.978 190.886 183.107 190.461 183.131 189.826C181.913 188.559 182.433 185.333 182.168 183.502L182.333 182.719C182.457 182.093 182.287 181.48 182.384 180.852C182.918 177.382 183.724 174.504 183.487 170.916L183.531 170.5C183.551 169.269 183.896 167.966 184.115 166.752L184.398 164.629Q186.158 153.849 187.641 143.028C188.26 138.46 188.597 133.677 189.703 129.205C188.275 129.52 185.617 130.421 184.339 129.558C183.938 129.288 183.775 128.874 183.704 128.404C183.403 126.393 183.989 123.7 184.029 121.606C177.52 124.025 170.079 124.329 163.221 123.989ZM186.39 159.365C186.477 160.836 186.832 162.058 187.097 163.483C187.257 161.032 187.739 158.553 188.089 156.121C189.126 148.904 190.492 141.385 190.48 134.087C190.242 134.863 190.013 135.637 189.816 136.424C189.752 135.551 189.729 134.677 189.703 133.803L189.605 133.723C189.473 137.874 186.171 158.343 186.39 159.365ZM92.9718 244.534C96.4892 245.748 100.105 247.17 103.737 247.966C104.272 247.585 104.769 247.256 105.144 246.702L104.989 246.279C103.618 245.542 101.739 245.653 100.239 245.18C98.5018 244.631 99.1895 244.976 98.5224 243.71L97.8361 243.49C96.335 243.729 94.69 243.728 93.3617 242.89C93.2136 243.422 93.3112 243.725 93.474 244.244L92.9718 244.534ZM186.39 159.365C185.985 160.898 185.957 163.201 185.079 164.481Q185.274 166.285 185.499 168.086C185.835 168.312 185.809 168.34 186.202 168.266C186.605 166.71 186.714 165.059 187.097 163.483C186.832 162.058 186.477 160.836 186.39 159.365ZM74.2883 160.066C74.4077 162.357 74.3587 164.835 74.9844 167.051C75.2462 166.797 75.427 166.565 75.5277 166.207C76.0305 164.425 75.7724 159.578 74.8848 157.927L74.5579 157.953C74.73 158.666 74.4699 159.377 74.2883 160.066ZM73.2962 151.05C73.4098 153.31 73.328 155.89 73.9809 158.059L74.4646 157.443C74.901 155.057 74.8418 151.662 74.0969 149.358L73.7466 149.281C73.5013 149.863 73.4017 150.433 73.2962 151.05ZM72.6904 141.482L72.2509 142.882C72.3958 144.904 72.3967 147.1 72.9888 149.043L73.5154 148.456C74.0213 146.637 73.8361 142.859 72.9782 141.198L72.6904 141.482ZM81.3565 229.684C81.4021 230.684 81.277 233.575 81.9797 234.171C82.0239 234.209 82.0755 234.236 82.1233 234.269C82.349 233.983 82.473 233.727 82.5721 233.375C82.9593 231.998 82.6566 228.271 81.9529 227.011L81.675 226.935C81.6678 227.784 81.7448 228.774 81.4112 229.567C81.3944 229.606 81.3747 229.645 81.3565 229.684ZM192.511 115.491C192.368 117.015 192.369 118.562 192.18 120.077C191.878 122.498 190.944 125.384 191.191 127.767C191.863 126.822 192.277 125.545 192.826 124.502C192.448 121.471 192.714 118.518 192.511 115.491ZM175.55 226.054L175.494 226.718L175.519 226.963C175.761 229.511 175.282 232.102 175.645 234.635C176.242 233.853 176.332 232.284 176.527 231.299C176.153 229.743 176.62 227.232 175.55 226.054Z"></path>
	<path transform="scale(0.886719 0.78125)" d="M175.55 226.054C176.62 227.232 176.153 229.743 176.527 231.299C176.332 232.284 176.242 233.853 175.645 234.635C175.282 232.102 175.761 229.511 175.519 226.963L175.494 226.718L175.55 226.054Z"></path>
	<path transform="scale(0.886719 0.78125)" d="M192.511 115.491C192.714 118.518 192.448 121.471 192.826 124.502C192.277 125.545 191.863 126.822 191.191 127.767C190.944 125.384 191.878 122.498 192.18 120.077C192.369 118.562 192.368 117.015 192.511 115.491Z"></path>
	<path transform="scale(0.886719 0.78125)" d="M81.3565 229.684C81.3747 229.645 81.3944 229.606 81.4112 229.567C81.7448 228.774 81.6678 227.784 81.675 226.935L81.9529 227.011C82.6566 228.271 82.9593 231.998 82.5721 233.375C82.473 233.727 82.349 233.983 82.1233 234.269C82.0755 234.236 82.0239 234.209 81.9797 234.171C81.277 233.575 81.4021 230.684 81.3565 229.684Z"></path>
	<path transform="scale(0.886719 0.78125)" d="M72.6904 141.482L72.9782 141.198C73.8361 142.859 74.0213 146.637 73.5154 148.456L72.9888 149.043C72.3967 147.1 72.3958 144.904 72.2509 142.882L72.6904 141.482ZM72.6904 141.482C72.683 142.517 72.6957 143.508 72.8478 144.533C73.0531 143.426 73.0006 142.318 72.9782 141.198L72.6904 141.482Z"></path>
	<path transform="scale(0.886719 0.78125)" d="M72.6904 141.482L72.9782 141.198C73.0006 142.318 73.0531 143.426 72.8478 144.533C72.6957 143.508 72.683 142.517 72.6904 141.482Z"></path>
	<path transform="scale(0.886719 0.78125)" d="M73.2962 151.05C73.4017 150.433 73.5013 149.863 73.7466 149.281L74.0969 149.358C74.8418 151.662 74.901 155.057 74.4646 157.443L73.9809 158.059C73.328 155.89 73.4098 153.31 73.2962 151.05Z"></path>
	<path transform="scale(0.886719 0.78125)" d="M74.2883 160.066C74.4699 159.377 74.73 158.666 74.5579 157.953L74.8848 157.927C75.7724 159.578 76.0305 164.425 75.5277 166.207C75.427 166.565 75.2462 166.797 74.9844 167.051C74.3587 164.835 74.4077 162.357 74.2883 160.066Z"></path>
	<path transform="scale(0.886719 0.78125)" d="M186.39 159.365C186.477 160.836 186.832 162.058 187.097 163.483C186.714 165.059 186.605 166.71 186.202 168.266C185.809 168.34 185.835 168.312 185.499 168.086Q185.274 166.285 185.079 164.481C185.957 163.201 185.985 160.898 186.39 159.365Z"></path>
	<path transform="scale(0.886719 0.78125)" d="M92.9718 244.534L93.474 244.244C93.3112 243.725 93.2136 243.422 93.3617 242.89C94.69 243.728 96.335 243.729 97.8361 243.49L98.5224 243.71C99.1895 244.976 98.5018 244.631 100.239 245.18C101.739 245.653 103.618 245.542 104.989 246.279L105.144 246.702C104.769 247.256 104.272 247.585 103.737 247.966C100.105 247.17 96.4892 245.748 92.9718 244.534Z"></path>
	<path transform="scale(0.886719 0.78125)" d="M186.39 159.365C186.171 158.343 189.473 137.874 189.605 133.723L189.703 133.803C189.729 134.677 189.752 135.551 189.816 136.424C190.013 135.637 190.242 134.863 190.48 134.087C190.492 141.385 189.126 148.904 188.089 156.121C187.739 158.553 187.257 161.032 187.097 163.483C186.832 162.058 186.477 160.836 186.39 159.365Z"></path>
	<path fill="#80807F" transform="scale(0.886719 0.78125)" d="M97.8361 243.49C95.1832 242.715 88.3344 240.664 86.9615 238.371L87.0171 238.052C88.2008 238.165 89.2881 238.912 90.4085 239.293C93.1415 240.222 95.9389 241.172 98.6996 242.013C111.198 245.821 123.558 248.304 136.686 247.957C145.715 247.718 154.42 246.41 162.959 243.398C165.745 242.415 168.57 241.246 171.232 239.963C171.904 239.639 173.504 238.431 174.103 238.482C174.14 239.098 174.032 239.383 173.619 239.86C172.223 241.471 169.728 242.629 167.83 243.526C158.605 247.885 149.065 249.108 138.972 249.476C127.784 249.885 108.912 247.508 98.5224 243.71L97.8361 243.49Z"></path>
	<path fill="#80807F" transform="scale(0.886719 0.78125)" d="M160.311 193.922C160.891 196.091 158.767 225.949 158.514 230.529C158.301 234.392 158.355 238.274 158.024 242.127C155.516 242.774 145.942 245.446 144.078 244.464L143.963 243.735C143.319 237.542 143.22 231.184 142.751 224.957C146.777 225.237 150.815 225.548 154.851 225.388C154.937 218.94 157.251 210.763 158.48 204.295C159.126 200.893 159.427 197.249 160.311 193.922Z"></path>
	<path fill="#80807F" transform="scale(0.886719 0.78125)" d="M83.8378 133.689C85.706 134.442 87.4284 134.688 89.4153 134.788Q93.3509 173.248 98.1341 211.612C99.298 221.399 100.123 231.221 101.317 241.004C97.005 239.688 92.4252 238.96 88.3517 236.959C87.8601 233.22 87.8643 229.394 87.6348 225.629C87.1591 217.827 86.6912 210.063 86.3918 202.25Q85.2379 176.069 84.7214 149.868C84.6417 145.049 83.3697 138.014 83.8378 133.689Z"></path>
	<path fill="#80807F" transform="scale(0.886719 0.78125)" d="M175.402 132.098C176.057 132.037 176.368 131.901 176.926 132.288C177.107 135.363 176.727 138.612 176.558 141.69L175.406 160.864C173.926 186.295 171.559 212.061 171.733 237.531C168.023 238.735 164.36 240.092 160.658 241.323C160.825 230.645 161.807 219.882 162.345 209.21C162.944 197.34 163.139 185.244 164.509 173.438C164.8 170.925 167.035 158.643 168.071 156.725C168.092 156.687 168.113 156.649 168.134 156.611L167.99 156.201C167.422 156.036 167.07 155.86 166.624 155.468C165.819 153.907 167.807 135.783 168.051 132.736C170.532 132.811 172.953 132.437 175.402 132.098Z"></path>
	<path fill="#80807F" transform="scale(0.886719 0.78125)" d="M120.749 136.334C123 136.715 130.566 136.351 131.944 137.345C132.596 139.799 132.836 145.818 132.432 148.278C132.24 149.452 131.414 149.034 130.705 149.648C128.317 151.715 122.351 194.836 121.665 201.748C121.428 204.134 120.47 218.252 121.526 219.317C122.546 220.345 134.38 223.807 136.253 224.249C137.699 224.589 139.152 224.765 140.628 224.904C141.483 229.352 141.779 234.052 142.308 238.559L143.058 244.994C134.454 245.633 124.886 245.492 116.4 243.994C116.246 237.539 116.518 231.068 116.626 224.613C116.833 212.358 117.15 200.248 117.988 188.011C118.871 175.133 120.177 162.188 120.691 149.295C120.863 144.98 120.669 140.653 120.749 136.334Z"></path>
	<path fill="#80807F" transform="scale(0.886719 0.78125)" d="M163.221 123.989C170.079 124.329 177.52 124.025 184.029 121.606C183.989 123.7 183.403 126.393 183.704 128.404C183.775 128.874 183.938 129.288 184.339 129.558C185.617 130.421 188.275 129.52 189.703 129.205C188.597 133.677 188.26 138.46 187.641 143.028Q186.158 153.849 184.398 164.629L184.115 166.752C183.896 167.966 183.551 169.269 183.531 170.5L183.487 170.916C183.724 174.504 182.918 177.382 182.384 180.852C182.287 181.48 182.457 182.093 182.333 182.719L182.168 183.502C182.433 185.333 181.913 188.559 183.131 189.826C183.107 190.461 182.978 190.886 182.707 191.459L182.052 191.649C181.929 192.199 181.837 192.747 181.756 193.304C181.43 192.978 181.228 192.669 181.004 192.267L180.616 193.467C180.385 193.514 180.227 193.557 179.992 193.523C179.893 194.306 179.756 195.104 179.712 195.891C180.337 197.349 179.901 198.377 180.102 199.83C179.844 200.514 179.665 201.247 178.972 201.607C178.841 202.54 178.65 203.501 178.596 204.44C177.659 211.612 176.165 218.87 175.55 226.054L175.494 226.718C174.624 230.108 174.744 234.011 174.123 237.5L173.809 237.49C173.126 236.051 174.494 215.248 174.618 211.83C175.347 191.744 176.948 171.691 177.674 151.596C177.842 146.934 178.142 142.226 177.98 137.564C177.881 134.694 177.15 131.533 177.39 128.715C176.077 128.985 168.609 131.009 167.957 130.856C167.739 130.805 167.291 130.463 167.082 130.339L166.576 130.484C165.463 132.43 164.253 150.456 163.964 154.046C154.224 151.282 145.096 148.768 134.976 147.894C133.975 144.443 133.714 140.51 133.95 136.933C136.059 137.04 138.164 137.253 140.274 137.365C144.999 137.614 157.814 136.501 162.113 134.733C162.811 134.446 163.396 133.903 163.951 133.404C163.451 130.309 163.398 127.117 163.221 123.989ZM179.992 193.523C180.227 193.557 180.385 193.514 180.616 193.467L181.004 192.267C181.228 192.669 181.43 192.978 181.756 193.304C181.837 192.747 181.929 192.199 182.052 191.649L182.707 191.459C182.978 190.886 183.107 190.461 183.131 189.826C181.913 188.559 182.433 185.333 182.168 183.502L182.333 182.719C182.457 182.093 182.287 181.48 182.384 180.852C182.918 177.382 183.724 174.504 183.487 170.916C181.882 178.328 180.996 186.01 179.992 193.523Z"></path>
	<path transform="scale(0.886719 0.78125)" d="M178.972 201.607Q179.284 198.741 179.712 195.891C180.337 197.349 179.901 198.377 180.102 199.83C179.844 200.514 179.665 201.247 178.972 201.607Z"></path>
	<path transform="scale(0.886719 0.78125)" d="M179.992 193.523C180.996 186.01 181.882 178.328 183.487 170.916C183.724 174.504 182.918 177.382 182.384 180.852C182.287 181.48 182.457 182.093 182.333 182.719L182.168 183.502C182.433 185.333 181.913 188.559 183.131 189.826C183.107 190.461 182.978 190.886 182.707 191.459L182.052 191.649C181.929 192.199 181.837 192.747 181.756 193.304C181.43 192.978 181.228 192.669 181.004 192.267L180.616 193.467C180.385 193.514 180.227 193.557 179.992 193.523ZM181.004 192.267C181.228 192.669 181.43 192.978 181.756 193.304C181.837 192.747 181.929 192.199 182.052 191.649L182.707 191.459C182.978 190.886 183.107 190.461 183.131 189.826C181.913 188.559 182.433 185.333 182.168 183.502C181.761 186.221 180.897 189.543 181.004 192.267Z"></path>
	<path transform="scale(0.886719 0.78125)" d="M181.004 192.267C180.897 189.543 181.761 186.221 182.168 183.502C182.433 185.333 181.913 188.559 183.131 189.826C183.107 190.461 182.978 190.886 182.707 191.459L182.052 191.649C181.929 192.199 181.837 192.747 181.756 193.304C181.43 192.978 181.228 192.669 181.004 192.267Z"></path>
	<path fill="#80807F" transform="scale(0.886719 0.78125)" d="M66.6593 102.516C68.6972 102.176 75.4698 99.8909 76.6549 100.411C75.6 102.134 69.6527 102.334 70.3852 105.503C70.6011 106.437 71.7627 107.146 72.5372 107.579C77.291 110.239 83.0993 110.871 88.3859 111.812C96.5134 113.26 104.767 114.891 113.029 115.261C118.341 115.499 123.743 114.892 129.053 114.611C134.023 114.348 139.012 114.195 143.97 113.753C146.985 113.484 149.97 112.972 152.981 112.684C156.236 112.373 159.508 112.288 162.757 111.899C168.956 111.158 178.327 109.256 184.312 107.492C185.459 107.154 187.465 106.663 188.03 105.543C188.202 105.203 188.105 104.924 188.063 104.556C186.255 101.378 178.365 98.0108 174.791 97.0252C172.282 96.3334 169.482 95.5871 166.882 95.4415C166.513 94.9913 166.509 94.9587 166.494 94.3752L166.886 94.1111C172.951 95.7178 188.501 98.8139 192.672 102.823C192.464 104.034 192.371 105.179 192.337 106.405C191.92 110.571 191.905 123.446 189.753 126.337C189.173 127.117 187.773 127.408 186.856 127.52C186.62 127.439 186.227 127.37 186.068 127.183C184.669 125.535 185.936 121.482 186.122 119.48C184.729 118.967 181.265 120.209 179.823 120.593C176.953 121.358 173.787 121.768 170.829 121.996C168.448 122.179 164.922 121.76 162.746 122.606C161.212 123.202 162.514 130.873 161.672 132.764C161.539 132.868 161.351 133.063 161.204 133.13C161.036 133.206 143.774 134.997 141.977 135.104C139.262 135.266 136.54 135.254 133.821 135.251L132.867 127.299C124.634 127.049 116.425 126.112 108.248 125.184C96.9077 123.897 86.2062 122.535 75.0751 119.827C74.4043 122.582 74.6026 125.451 73.864 128.195L70.7071 128.238C69.6676 123.984 68.3893 105.022 66.7409 103.243L66.6593 102.516Z"></path>
	<path fill="#FCF8F5" transform="scale(0.886719 0.78125)" d="M132.535 149.794C143.715 148.904 155.736 156.596 166.845 156.844C165.372 160.226 164.695 164.168 163.761 167.728C163.145 170.075 162.304 172.375 161.758 174.738C160.85 178.659 160.366 182.753 159.618 186.716Q156.311 203.638 153.572 220.662L153.111 223.572C143.337 223.008 130.755 221.58 121.946 217.04C121.865 213.952 122.317 210.808 122.642 207.74Q123.674 198.393 125.066 189.093C126.355 180.356 127.939 171.691 129.419 162.988C130.068 159.172 130.264 154.841 131.458 151.19C131.668 150.547 132 150.192 132.535 149.794Z"></path>
	<path transform="scale(0.886719 0.78125)" d="M131.507 201.673C132.146 201.662 132.695 201.608 133.261 201.961C134.013 202.983 133.773 204.679 133.774 205.918C139.51 207.588 145.346 208.249 150.67 211.11C148.189 210.766 145.677 210.958 143.19 210.648C139.897 210.287 136.841 209.254 133.739 208.153C133.761 210.546 133.767 212.928 133.666 215.32L133.352 215.607L132.95 215.477C131.511 213.568 131.361 204.287 131.507 201.673Z"></path>
	<path transform="scale(0.886719 0.78125)" d="M139.693 159.928C142.215 160.002 155.196 162.712 156.964 163.877C157.402 164.166 157.488 164.229 157.586 164.751C157.49 164.864 157.393 164.968 157.271 165.055C155.763 166.137 149.988 164.417 148.073 164.06C148.179 165.164 148.128 166.222 148.058 167.325C150.355 167.655 152.919 168.068 154.847 169.433L155.172 170.206L154.864 170.639C152.784 171.38 140.953 169.141 138.661 168.094C138.532 167.789 138.454 167.547 138.49 167.21C138.524 166.888 138.509 166.589 138.782 166.393C140.049 165.481 144.851 166.684 146.289 166.971L146.211 163.53C144.598 163.11 141 162.575 139.879 161.263C139.527 160.851 139.661 160.428 139.693 159.928Z"></path>
	<path transform="scale(0.886719 0.78125)" d="M137.781 172.629C138.125 172.652 138.507 172.654 138.819 172.813C139.925 173.374 139.464 175.547 139.801 176.668C140.003 177.339 140.226 177.679 140.836 178.006C142.467 177.822 143.44 175.275 144.671 174.324C145.238 173.886 146.047 173.62 146.711 173.357C149.174 174.024 151.5 174.825 153.364 176.658C154.579 177.853 155.567 179.587 155.543 181.336C155.533 182.127 155.264 182.896 154.677 183.446C153.504 184.546 151.902 184.783 150.376 184.725C149.62 184.322 149.093 184.019 148.607 183.297C148.693 181.667 151.95 181.877 152.841 180.296C152.702 179.592 152.365 179.301 151.826 178.86C150.428 177.716 148.533 176.402 146.654 176.598C145.679 177.182 145.584 178.113 145.06 179.085C144.498 180.127 143.541 181.007 142.387 181.324C141.272 181.63 140.093 181.397 139.112 180.807Q138.887 180.672 138.676 180.515Q138.466 180.359 138.271 180.182Q138.077 180.006 137.901 179.811Q137.725 179.616 137.569 179.405Q137.413 179.194 137.279 178.968Q137.144 178.743 137.033 178.505Q136.921 178.268 136.834 178.02Q136.746 177.773 136.683 177.518C136.213 175.589 136.77 174.24 137.781 172.629Z"></path>
	<path transform="scale(0.886719 0.78125)" d="M138.081 184.812C140.479 184.303 149.917 185.378 152.125 186.394C152.725 186.671 153.354 187.067 153.587 187.71C153.516 187.917 153.489 188.188 153.293 188.296C151.673 189.189 148.517 188.261 146.815 187.789C146.786 189.05 145.907 191.944 146.531 192.955C146.726 193.269 147.346 193.354 147.706 193.461C148.648 193.917 149.613 194.282 150.297 195.106L150.116 195.492C147.276 196.131 143.486 194.146 141.048 192.855C139.259 191.908 134.716 189.481 134.276 187.353C134.168 186.833 134.263 186.438 134.569 186.018C135.234 185.107 137.031 184.999 138.081 184.812Z"></path>
	<path fill="#FCF8F5" transform="scale(0.886719 0.78125)" d="M136.552 187.257C139.436 187.063 142.272 187.309 145.145 187.559C144.724 188.739 144.402 189.97 144.041 191.17L143.809 191.598C141.945 191.708 138.047 188.394 136.552 187.257Z"></path>
	<path transform="scale(0.886719 0.78125)" d="M137.196 192.731C140.651 192.729 142.897 195.3 144.042 198.362C144.292 199.03 144.508 200.356 144.998 200.821C146.039 200.474 146.957 199.313 147.865 198.678C148.443 198.274 148.77 198.133 149.457 198.245L149.756 198.854C149.557 200.353 147.151 202.124 146.047 203.146L148.865 204.335C149.379 204.566 149.659 204.927 150.02 205.342L149.989 205.707C149.825 205.848 149.704 205.944 149.5 206.021C146.374 207.213 138.016 202.513 135.045 201.031C134.416 199.318 133.815 196.856 134.487 195.101C135.003 193.753 135.939 193.302 137.196 192.731Z"></path>
	<path fill="#FCF8F5" transform="scale(0.886719 0.78125)" d="M136.889 195.337C138.274 195.381 139.042 195.697 139.98 196.72C141.02 197.854 142.287 200.158 142.234 201.746C140.642 201.15 137.823 200.507 136.877 198.964C136.198 197.858 136.637 196.512 136.889 195.337Z"></path>
	<path fill="#80807F" transform="scale(0.886719 0.78125)" d="M77.4376 122.825C81.3295 123.099 85.9724 124.844 89.9496 125.535C95.483 126.497 101.097 127.019 106.678 127.631C114.993 128.543 122.901 129.552 131.283 128.92L131.591 135.098C130.78 134.893 129.944 134.716 129.113 134.616C127.428 134.415 120.655 133.647 119.552 134.686C119.121 135.091 119.347 145.856 119.24 147.652C118.263 163.925 116.23 180.149 115.251 196.432C114.309 212.098 114.441 227.762 114.477 243.448C110.797 242.954 107.108 242.347 103.509 241.428C102.814 238.599 102.782 235.524 102.53 232.625Q101.911 225.378 101.176 218.141L95.3999 165.949C95.0811 162.517 91.3013 133.527 90.6277 132.571C88.8803 132.966 86.7704 132.02 85.0744 131.616C83.985 131.357 82.8631 131.053 81.8669 131.662C81.5016 133.668 82.351 136.903 82.522 139.034Q82.7751 142.454 82.8459 145.883C83.0161 151.9 82.9204 157.918 83.0064 163.936Q83.3045 177.35 83.816 190.758C84.1829 201.323 84.528 211.813 85.6185 222.338C86.1035 227.019 86.1907 232.162 87.2007 236.735L84.4993 234.436C82.9691 230.516 83.097 224.751 82.712 220.52Q81.766 209.902 80.7139 199.293Q77.3822 164.531 72.6237 129.936C73.7091 129.862 75.544 129.854 76.3351 128.94C77.1446 128.006 76.6908 126.375 76.6616 125.219C76.6372 124.254 76.7629 123.538 77.4376 122.825Z"></path>
</svg><style>@media (prefers-color-scheme: light) { :root { filter: none; } }
@media (prefers-color-scheme: dark) { :root { filter: none; } }
</style></svg>