<svg xmlns="http://www.w3.org/2000/svg" version="1.1" xmlns:xlink="http://www.w3.org/1999/xlink" xmlns:svgjs="http://svgjs.dev/svgjs" width="512" height="512"><svg xmlns="http://www.w3.org/2000/svg" xmlns:xlink="http://www.w3.org/1999/xlink" width="512" height="512">
	<path d="M317.143 45.1775C315.461 34.2409 317.17 23.8 323.74 14.7583C326.34 11.1802 332.256 4.69524 336.81 3.85737C337.601 3.71193 338.316 4.02689 338.928 4.51322C340.942 6.11417 341.34 9.86156 341.5 12.2753C341.773 16.3761 341.507 20.9399 340.661 24.9666C351.341 22.8248 363.838 21.7096 373.418 28.0943C374.753 28.9834 376.675 30.3142 376.974 31.9992C377.159 33.0363 376.476 33.8154 375.85 34.5433C372.577 38.3498 368.048 41.5312 364.217 44.7946C361.556 47.0608 358.932 49.6856 356.079 51.6843C363.518 54.2721 377.139 59.8627 380.573 67.3706C381.586 69.5861 381.332 71.8659 380.441 74.0775C374.464 88.9139 341.771 103.522 327.373 109.511C326.013 110.077 324.649 110.657 323.256 111.136C327.414 113.152 330.969 116.007 334.571 118.861C350.56 131.532 364.076 147.497 375.038 164.656C377.095 167.875 379.117 171.161 380.905 174.538C382.28 177.134 383.487 179.856 384.995 182.375C383.898 184.957 382.582 187.259 380.973 189.556C388.216 192.102 411.193 200.964 414.051 207.959C414.5 209.055 414.385 210.736 414.304 211.918C413.918 217.534 409.906 246.621 408.191 250.391C407.576 251.741 406.043 252.916 404.659 253.378C403.062 253.913 401.526 253.708 399.896 253.475C397.575 268.601 396.175 283.849 394.077 299.013L378.87 406.847Q375.382 432.266 371.225 457.584C370.211 463.878 369.913 470.739 368.125 476.846C367.103 480.339 365.121 482.68 362.237 484.794C351.061 492.983 328.693 498.691 315.106 501.43C312.2 502.016 309.059 502.821 306.099 503.006L305.92 503.079Q299.815 504.07 293.671 504.791Q287.528 505.511 281.359 505.96Q275.19 506.41 269.007 506.586Q262.824 506.763 256.64 506.667Q250.455 506.571 244.281 506.202Q238.107 505.833 231.955 505.193Q225.802 504.552 219.685 503.641Q213.567 502.73 207.495 501.55C190.707 498.322 174.089 493.896 159.929 483.912C152.724 478.831 150.981 474.763 149.364 466.29Q148.399 461.243 147.526 456.179C145.396 443.479 144.037 430.688 142.256 417.94L137.339 383.85Q133.816 356.683 130.61 329.477C127.726 305.539 126.105 281.243 120.3 257.793C117.426 255.34 114.079 253.331 110.94 251.229C109.338 246.029 100.85 214.3 102.754 210.94C104.067 208.623 110.338 205.023 112.831 203.587C111.596 202.718 110.569 201.797 109.508 200.725C110.191 192.016 113.792 183.992 117.513 176.204C114.002 177.684 110.227 178.646 106.568 179.693C95.1651 182.954 81.6668 186.445 70.1596 181.864C67.2231 180.695 64.6201 178.728 63.3965 175.723C61.1099 170.109 64.5267 161.591 66.8378 156.446C77.6333 132.412 109.074 106.092 130.639 91.9488C136.46 88.131 142.55 84.7901 148.694 81.526C152.01 79.7646 155.39 77.69 158.842 76.2346C157.531 70.7395 155.984 61.6606 159.264 56.5713C165.83 46.3848 204.489 35.161 216.009 33.0237C221.226 32.0559 225.577 31.8459 230.122 34.9707C235.521 38.6824 240.315 44.2976 244.146 49.6001C251.379 48.4696 258.752 47.8726 266.027 47.0147C281.15 45.2312 302.242 42.099 317.143 45.1775ZM305.92 503.079L306.099 503.006L306.43 502.457L307.705 502.156L307.369 501.912C306.047 501.756 304.753 501.853 303.542 502.44L303.579 502.696C304.36 502.932 305.108 503.005 305.92 503.079Z"></path>
	<defs>
		<linearGradient id="SvgjsLinearGradient1020" gradientUnits="userSpaceOnUse" x1="305.09009" y1="501.93689" x2="305.21307" y2="502.59964">
			<stop offset="0" stop-color="black" stop-opacity="0.96078432"></stop>
			<stop offset="1" stop-color="black"></stop>
		</linearGradient>
	</defs>
	<path fill="url(#gradient_0)" d="M305.92 503.079C305.108 503.005 304.36 502.932 303.579 502.696L303.542 502.44C304.753 501.853 306.047 501.756 307.369 501.912L307.705 502.156L306.43 502.457L306.099 503.006L305.92 503.079Z"></path>
	<path fill="#580604" d="M129.638 193.222C130.184 191.923 130.454 190.349 130.807 188.975C131.454 189.557 131.679 189.717 131.734 190.598C131.901 193.258 131.332 195.932 131.483 198.611C131.295 197.922 131.311 197.183 131.025 196.516C130.385 195.025 129.74 195.023 129.638 193.222Z"></path>
	<path fill="#1E1E20" d="M324.34 406.679C325.152 402.496 326.19 398.015 327.751 394.046C327.759 399.68 327.146 405.914 325.493 411.321C325.41 409.902 325.319 407.788 324.34 406.679Z"></path>
	<path fill="#7C7C7C" d="M220.85 153.517C222.429 156.277 221.08 165.034 220.905 168.428C220.09 168.131 219.418 167.874 218.727 167.342C217.77 165.826 220.337 155.954 220.85 153.517Z"></path>
	<path fill="#B6B1B2" d="M119.661 208.321C121.013 209.45 122.398 210.497 123.831 211.52Q119.696 212.619 115.72 214.201C114.668 213.535 113.994 213.031 112.77 212.638C114.736 210.642 117.179 209.539 119.661 208.321Z"></path>
	<path fill="#FAC0B3" d="M217.738 216.817C218.434 216.142 219.14 215.48 219.769 214.74C221.308 219.925 223.239 225.439 226.859 229.568C225.185 229.437 223.495 229.343 221.834 229.087C221.493 226.003 220.425 222.464 219.408 219.522C219.056 218.504 218.775 217.325 217.738 216.817Z"></path>
	<path fill="#FAC0B3" d="M252.855 226.34C254.468 226.221 256.193 225.993 257.771 226.417C258.921 226.726 260.64 227.426 261.204 228.562C261.373 228.902 261.201 229.068 261.078 229.394C259.509 230.476 257.525 230.11 255.71 230.052L246.481 229.951L246.732 229.615C248.567 227.21 249.961 226.704 252.855 226.34Z"></path>
	<path fill="#1E1E20" d="M277.61 87.3125C277.788 87.3196 277.935 87.4573 278.093 87.5383C278.726 89.7469 278.775 92.1199 279.267 94.3708L279.326 94.6291C276.793 93.3703 273.881 92.6839 271.169 91.9002C269.338 91.3701 267.572 90.9257 265.683 90.6593C269.646 89.3202 273.521 88.1904 277.61 87.3125Z"></path>
	<path fill="#95130F" d="M127.866 207.238C128.462 202.537 128.832 197.908 129.638 193.222C129.74 195.023 130.385 195.025 131.025 196.516C131.311 197.183 131.295 197.922 131.483 198.611C131.962 202.335 132.341 206.119 133.064 209.803C131.307 209.014 129.491 208.277 127.866 207.238Z"></path>
	<path fill="#FAC0B3" d="M218.569 147.885C218.772 148.355 218.797 148.724 218.744 149.236C218.448 152.092 217.563 154.954 216.978 157.766C216.381 160.64 215.982 163.567 215.573 166.472C214.544 166.07 213.468 165.764 212.415 165.428C211.902 165.187 211.803 165.132 211.476 164.675C211.47 160.819 216.71 151.523 218.569 147.885Z"></path>
	<path fill="#FAC0B3" d="M267.258 177.234C268.869 177.965 276.622 175.091 278.583 174.455Q277.611 178.354 277.352 182.364C277.271 181.699 277.351 181.365 276.878 180.856C273.867 180.093 270.979 182.15 268.015 181.948C267.315 181.9 267.085 181.722 266.617 181.228C266.388 180.113 267.063 178.396 267.258 177.234Z"></path>
	<path fill="#72FB5B" d="M322.041 40.7495C321.616 33.2676 322.461 27.4112 326.455 20.9784C327.793 18.8229 332.21 12.0839 334.808 11.6766C335.215 11.6127 335.465 12.0182 335.751 12.2688C335.745 12.3442 335.741 12.4198 335.733 12.4951C335.686 12.9337 335.625 13.3779 335.362 13.7446C333.232 16.7073 330.928 19.0656 329.166 22.3448C327.084 26.2211 325.81 29.9329 324.598 34.1426C324.005 36.2016 323.55 38.4145 322.645 40.3603C322.434 40.5381 322.311 40.6766 322.041 40.7495Z"></path>
	<path fill="#7C7C7C" d="M217.778 171.327C218.735 171.212 219.686 171.05 220.637 170.903C220.429 173.654 220.477 176.413 220.352 179.168C220.122 184.25 219.781 189.334 219.983 194.424C220.123 197.943 220.411 201.49 220.751 204.996C220.876 206.279 221.259 207.575 221.297 208.853C221.317 209.529 221.264 210.139 221.022 210.775C217.371 198.711 216.324 183.799 217.778 171.327Z"></path>
	<path fill="#95130F" d="M352.922 181.677C354.45 181.572 355.054 181.941 356.224 182.987C360.465 186.776 361.788 192.9 364.456 197.694C362.449 199.33 360.314 200.743 358.356 202.46C356.756 195.455 354.688 188.629 352.922 181.677Z"></path>
	<path fill="#1E1E20" d="M363.515 202.456C364.977 204.19 382.574 207.73 386.273 209.321C389.278 210.613 390.497 211.702 392.916 213.76C393.003 213.835 393.111 213.881 393.209 213.941C392.852 214.07 392.502 214.192 392.134 214.29C390.908 214.617 389.646 214.907 388.384 214.608C385.307 213.878 382.12 212.118 379.12 211.004C373.213 208.811 366.757 207.451 361.322 204.218C362.028 203.603 362.78 203.037 363.515 202.456Z"></path>
	<path fill="#444445" d="M216.327 54.2407C217.761 54.4193 218.443 55.7074 219.287 56.7723C215.862 58.0463 212.204 58.9009 208.707 59.9863C199.954 62.7031 190.467 65.8083 182.346 70.0774C181.81 70.3715 181.887 70.4419 181.241 70.3271C180.484 69.515 180.254 68.1938 179.94 67.1455C192.266 63.3184 204.243 58.7537 216.327 54.2407Z"></path>
	<path fill="#2F3036" d="M314.182 227.801C316.887 216.339 317.779 204.307 319.469 192.649C319.474 192.744 319.477 192.84 319.482 192.936C319.574 194.469 320.048 195.818 320.376 197.304Q321.161 200.801 321.563 204.363C322.102 209.17 322.339 214.178 321.429 218.955C320.91 221.68 320.06 224.424 319.719 227.17C317.891 227.492 316.021 227.467 314.182 227.801Z"></path>
	<path fill="#2F3036" d="M356.848 71.0792C357.108 71.0413 356.927 71.052 357.384 71.1734C356.747 72.3896 354.551 73.5929 353.379 74.4114C347.228 78.7062 341.144 82.5715 334.346 85.7638L333.769 85.6878C332.844 83.9478 333.628 77.5824 333.79 75.2734C337.967 74.8772 342.081 74.3879 346.19 73.5164C349.756 72.7601 353.258 71.7171 356.848 71.0792Z"></path>
	<path fill="#25911B" d="M208.472 172.5C210.652 172.479 212.811 172.364 214.986 172.209C214.996 178.118 214.669 184.034 214.976 189.934C212.755 190.076 210.217 189.499 207.958 189.395C207.109 189.356 205.657 189.656 204.906 189.429C204.725 189.375 204.246 188.85 204.076 188.7C205.393 183.259 207.161 177.924 208.472 172.5Z"></path>
	<path fill="#FAC0B3" d="M164.309 194.44C165.19 195.185 166.882 201.79 167.392 203.323C168.313 206.095 169.441 208.825 170.639 211.488C172.923 216.565 175.617 221.898 179.611 225.841C175.502 225.63 171.377 224.851 167.31 224.23C166.231 214.401 163.837 204.373 164.309 194.44Z"></path>
	<path fill="#72FB5B" d="M328.316 42.9531C331.756 38.5768 333.895 34.0595 339.275 31.7056C348.367 27.7285 358.435 28.0595 367.526 31.652C366.266 32.8358 357.719 33.047 355.683 33.2528C349.004 33.9283 342.453 34.9515 336.62 38.4647C334.088 39.9896 331.173 42.2034 328.316 42.9531Z"></path>
	<path fill="#25911B" d="M335.751 12.2688C335.831 16.4558 336.624 20.5642 335.951 24.7555C335.736 26.0964 335.109 27.439 334.429 28.6079C332.824 31.3666 330.694 33.9227 328.832 36.5173C326.561 39.6835 324.421 42.9532 322.253 46.1909L322.041 40.7495C322.311 40.6766 322.434 40.5381 322.645 40.3603C323.55 38.4145 324.005 36.2016 324.598 34.1426C325.81 29.9329 327.084 26.2211 329.166 22.3448C330.928 19.0656 333.232 16.7073 335.362 13.7446C335.625 13.3779 335.686 12.9337 335.733 12.4951C335.741 12.4198 335.745 12.3442 335.751 12.2688Z"></path>
	<path fill="#2F3036" d="M344.943 85.926C349.751 82.8221 354.786 79.8816 359.407 76.5103C361.745 74.8046 363.531 72.3655 366.023 70.8687C367.186 70.1703 370.874 68.6119 372.188 69.1352C372.739 69.3546 372.673 69.5344 372.862 70.0233C372.283 74.9724 365.72 80.5975 362.103 83.4544C360.705 84.5586 359.234 85.5999 357.623 86.369C357.587 86.3587 357.552 86.3489 357.516 86.3383C353.591 85.1665 348.559 87.8409 344.943 85.926Z"></path>
	<path fill="#FAC0B3" d="M270.58 117.618C271.037 122.732 272.589 127.928 273.645 132.957C275.994 144.133 278.379 155.325 279.429 166.714L277.256 168.061C275.803 165.776 275.116 159.17 274.576 156.292C273.46 150.348 270.025 132.543 267.71 127.701C267.434 127.126 267.044 126.789 266.558 126.392Q268.628 122.032 270.58 117.618Z"></path>
	<path fill="#FEFEFE" d="M200.474 213.089C202.327 216.007 204.694 218.206 208.156 219.01C211.718 219.838 214.777 218.725 217.738 216.817C218.775 217.325 219.056 218.504 219.408 219.522C220.425 222.464 221.493 226.003 221.834 229.087C214.55 228.685 207.515 228.593 200.293 227.384C199.97 222.574 200.29 217.892 200.474 213.089Z"></path>
	<defs>
		<linearGradient id="SvgjsLinearGradient1019" gradientUnits="userSpaceOnUse" x1="106.95646" y1="175.13313" x2="95.14064" y2="156.55403">
			<stop offset="0" stop-color="#29292A"></stop>
			<stop offset="1" stop-color="#3E3F47"></stop>
		</linearGradient>
	</defs>
	<path fill="url(#gradient_1)" d="M83.2627 163.842C81.4048 165.067 78.6663 166.528 77.5352 168.518C77.1596 169.179 77.0492 169.946 77.3271 170.671C77.6226 171.442 78.2573 171.926 78.9936 172.235C81.6915 173.367 85.8229 172.703 88.6143 172.186C94.7803 171.044 100.8 168.885 106.757 166.965Q121.04 162.446 135.104 157.285C125.556 165.511 108.573 172.483 96.0433 174.527C92.0377 175.181 73.7746 177.082 71.1782 174.859C70.9833 174.692 70.9841 174.668 71.0213 174.413C71.4359 171.572 80.1938 164.975 82.7093 162.988L83.2627 163.842Z"></path>
	<path fill="#FAC0B3" d="M288.805 131.409C290.596 132.625 293.423 139.034 294.878 141.237C298.662 146.967 303.099 152.814 307.741 157.859C306.833 158.07 305.914 158.239 304.999 158.421C299.729 159.231 294.563 159.924 289.512 161.711C289.402 151.545 289.645 141.574 288.805 131.409Z"></path>
	<path fill="#ACE898" d="M281.594 202.041C281.73 201.59 281.719 201.445 281.59 200.978C281.402 200.296 281.303 199.633 281.209 198.931C282.059 198.277 282.924 197.965 283.969 197.724C286.606 197.116 289.46 197.055 292.15 196.763C295.923 196.353 299.842 195.602 303.634 195.668C303.988 197.261 302.298 199.25 303.009 200.721C302.196 204.395 300.267 208.594 297.055 210.737C295.08 212.054 292.717 212.574 290.394 212.003C287.424 211.272 284.812 208.937 283.346 206.3C282.729 205.191 281.678 203.288 281.594 202.041Z"></path>
	<path fill="#FAC0B3" d="M328.127 121.556C344.398 137.608 360.206 153.713 372.155 173.353C373.754 175.982 376.648 180.004 376.577 183.158C376.567 183.612 376.472 183.996 376.287 184.407C373.454 182.21 371.548 177.95 369.306 175.106Q360.131 163.584 350.66 152.304C346.048 146.804 341.119 140.033 335.268 135.831C332.791 131.397 329.956 126.266 328.127 121.556Z"></path>
	<defs>
		<linearGradient id="SvgjsLinearGradient1018" gradientUnits="userSpaceOnUse" x1="133.31715" y1="184.002" x2="122.39068" y2="181.04541">
			<stop offset="0" stop-color="#E02D2A"></stop>
			<stop offset="1" stop-color="#F2474E"></stop>
		</linearGradient>
	</defs>
	<path fill="url(#gradient_2)" d="M135.947 158.559C135.501 162.599 134.573 166.559 133.939 170.571C132.963 176.745 132.218 182.872 130.807 188.975C130.454 190.349 130.184 191.923 129.638 193.222C128.832 197.908 128.462 202.537 127.866 207.238Q127.424 206.881 127.004 206.5C123.114 202.928 122.408 197.605 122.111 192.631C121.494 194.455 120.891 196.385 120.053 198.119C119.719 198.812 119.31 199.647 118.544 199.913C118.058 199.521 117.994 199.139 117.911 198.539C117.572 196.114 118.837 192.852 119.58 190.577C123.316 179.13 128.667 168.171 135.947 158.559Z"></path>
	<path fill="#1E1E20" d="M313.256 107.721C312.093 107.254 305.623 104.75 305.047 104.334C305.516 103.526 315.226 100.027 316.808 99.3406C323.356 96.498 329.92 93.5681 336.329 90.4175C339.236 88.9885 342.025 87.3275 344.943 85.926C348.559 87.8409 353.591 85.1665 357.516 86.3383C357.552 86.3489 357.587 86.3587 357.623 86.369L357.474 86.512C357.391 86.5908 357.306 86.6677 357.224 86.7473C349.833 93.8852 323.938 103.805 313.256 107.721Z"></path>
	<path fill="#444445" d="M374.516 193.134C380.199 195.683 386.152 197.516 391.754 200.277C396.473 202.603 400.56 205.588 404.868 208.544C401.13 210.69 397.286 212.522 393.209 213.941C393.111 213.881 393.003 213.835 392.916 213.76C390.497 211.702 389.278 210.613 386.273 209.321C382.574 207.73 364.977 204.19 363.515 202.456C367.477 199.726 371.083 196.499 374.516 193.134Z"></path>
	<path fill="#72FB5B" d="M204.076 188.7C204.246 188.85 204.725 189.375 204.906 189.429C205.657 189.656 207.109 189.356 207.958 189.395C210.217 189.499 212.755 190.076 214.976 189.934L215.179 193.016Q215.562 198.371 216.585 203.641C217.067 206.175 218.006 208.954 218.003 211.53C218.001 212.52 217.764 213.236 217.12 213.994C215.682 215.689 212.93 217.078 210.702 217.17C208.029 217.282 205.549 215.885 203.71 214.044C202.702 213.034 201.839 211.902 200.975 210.771C201.399 204.993 202.504 199.322 203.181 193.575C203.415 191.928 203.71 190.323 204.076 188.7Z"></path>
	<path fill="#ACE898" d="M204.076 188.7C204.246 188.85 204.725 189.375 204.906 189.429C205.657 189.656 207.109 189.356 207.958 189.395C210.217 189.499 212.755 190.076 214.976 189.934L215.179 193.016Q211.469 192.825 207.765 193.112C206.353 193.229 204.553 193.738 203.181 193.575C203.415 191.928 203.71 190.323 204.076 188.7Z"></path>
	<path fill="#7C7C7C" d="M149.795 130.36C151.696 129.217 153.674 128.399 155.725 127.575C155.455 130.655 151.701 136.744 150.261 139.77Q148.693 143.14 147.398 146.623C143.426 157.423 141.42 169.685 140.614 181.125C139.774 193.054 140.232 205.144 140.938 217.068C140.984 217.855 141.217 218.635 140.55 219.2C140.276 219.092 140.002 218.985 139.737 218.857C138.371 218.196 137.726 216.788 137.241 215.424C135.245 209.8 135.267 202.578 135.212 196.621C134.992 172.409 139.05 152.144 149.795 130.36Z"></path>
	<path fill="#25911B" d="M367.526 31.652C368.128 31.9335 368.366 31.9612 368.706 32.5214C367.243 34.9081 359.952 40.2629 357.369 42.5732Q351.803 47.492 346.65 52.8428C338.653 50.4104 331.853 48.6799 323.446 47.8814C325.079 46.3418 326.951 44.733 328.316 42.9531C331.173 42.2034 334.088 39.9896 336.62 38.4647C342.453 34.9515 349.004 33.9283 355.683 33.2528C357.719 33.047 366.266 32.8358 367.526 31.652Z"></path>
	<path fill="#444445" d="M341.954 165.928C342.09 166.039 342.206 166.128 342.326 166.265C343.935 168.111 345.019 171.887 345.96 174.191C350.966 186.442 354.647 198.11 354.785 211.502C354.808 213.773 354.978 216.188 354.656 218.431C354.456 219.829 354.194 221.897 353.031 222.8L352.369 222.619C351.791 221.988 351.552 221.349 351.318 220.53C350.505 217.686 350.104 214.712 349.414 211.834C348.395 207.581 346.978 203.493 345.419 199.412C345.06 201.185 344.765 202.973 344.447 204.754C343.105 211.729 338.517 219.085 334.469 224.859Q332.499 225.274 330.523 225.663C333.41 219.756 336.575 214.058 338.728 207.819C342.614 196.557 344.059 177.666 341.954 165.928Z"></path>
	<path fill="#2F3036" d="M145.466 131.77L145.673 132.122C144.97 135.183 142.531 138.21 141.224 141.112C139.389 145.185 137.974 149.491 136.455 153.692C130.754 156.257 124.791 158.266 118.794 160.012C113.677 161.501 108.267 162.599 103.514 165.062C106.105 162.321 108.158 159.289 110.005 156.009Q107.966 156.431 105.941 156.915C101.793 158.301 97.7487 159.642 93.3471 159.917C101.269 156.571 109.868 150.831 117.477 146.549C126.703 141.358 136.135 136.737 145.466 131.77Z"></path>
	<defs>
		<linearGradient id="SvgjsLinearGradient1017" gradientUnits="userSpaceOnUse" x1="290.26291" y1="172.65227" x2="293.26978" y2="197.08212">
			<stop offset="0" stop-color="#41A436"></stop>
			<stop offset="1" stop-color="#A1DF8E"></stop>
		</linearGradient>
	</defs>
	<path fill="url(#gradient_3)" d="M280.862 174.03C288.223 172.267 295.907 171.776 303.411 170.898C304.876 180.037 306.405 191.926 303.009 200.721C302.298 199.25 303.988 197.261 303.634 195.668C299.842 195.602 295.923 196.353 292.15 196.763C289.46 197.055 286.606 197.116 283.969 197.724C282.924 197.965 282.059 198.277 281.209 198.931C281.303 199.633 281.402 200.296 281.59 200.978C281.719 201.445 281.73 201.59 281.594 202.041C278.346 195.338 278.736 181.165 280.862 174.03Z"></path>
	<path fill="#444445" d="M332.656 163.575C333.33 166.309 333.391 169.467 333.544 172.271C334.232 184.95 332.936 197.392 329.29 209.592C328.681 211.63 327.93 213.665 327.11 215.629C326.269 217.64 322.226 224.943 322.725 226.636L319.719 227.17C320.06 224.424 320.91 221.68 321.429 218.955C322.339 214.178 322.102 209.17 321.563 204.363Q321.161 200.801 320.376 197.304C320.048 195.818 319.574 194.469 319.482 192.936C319.477 192.84 319.474 192.744 319.469 192.649C319.5 184.786 318.98 177.069 318.182 169.252C322.077 169.269 326.136 169.063 329.907 168.057C329.328 167.127 328.685 166.244 328.049 165.353C329.508 165.039 331.094 164.823 332.462 164.223L332.656 163.575Z"></path>
	<path fill="#2F3036" d="M328.611 76.3705L328.872 76.3637C330.008 77.6283 329.278 86.1549 329.25 88.2686C322.46 91.9649 315.068 94.8291 307.919 97.7581C304.872 99.0062 301.64 100.117 298.728 101.65C295.291 100.168 291.777 98.843 288.287 97.4914C286.64 96.8854 285.021 96.2828 283.308 95.8855C283.205 92.6607 282.797 89.3494 282.368 86.152C286.301 85.4898 290.3 84.3094 294.185 83.3796C305.447 80.6838 317.085 77.5852 328.611 76.3705Z"></path>
	<path fill="#7C7C7C" d="M274.258 95.597C283.733 99.0259 293.009 102.708 302.313 106.573C308.267 109.047 316.621 111.884 321.548 116.001C323.521 117.649 324.668 119.793 325.743 122.078C337.316 146.689 344.515 181.922 334.899 208.159C333.545 211.854 328.219 224.52 324.783 226.157C324.18 226.444 323.381 226.525 322.725 226.636C322.226 224.943 326.269 217.64 327.11 215.629C327.93 213.665 328.681 211.63 329.29 209.592C332.936 197.392 334.232 184.95 333.544 172.271C333.391 169.467 333.33 166.309 332.656 163.575L332.046 162.138Q332.09 161.168 331.98 160.203Q331.452 155.842 330.577 151.538Q329.702 147.233 328.486 143.012Q327.269 138.791 325.718 134.681Q324.168 130.572 322.293 126.599C321.214 124.288 319.93 121.146 317.936 119.496C314.754 116.861 309.961 115.066 306.257 113.176L288.503 103.957C285.051 102.16 276.96 98.3154 274.199 96.1302L274.258 95.597Z"></path>
	<path fill="#C62E2B" d="M335.268 135.831C341.119 140.033 346.048 146.804 350.66 152.304Q360.131 163.584 369.306 175.106C371.548 177.95 373.454 182.21 376.287 184.407C372.879 189.293 369.07 193.891 364.456 197.694C361.788 192.9 360.465 186.776 356.224 182.987C355.054 181.941 354.45 181.572 352.922 181.677C350.91 176.537 348.696 171.423 346.035 166.58C344.57 163.915 342.53 161.421 341.41 158.592C339.656 154.161 339.232 149.207 337.794 144.646C336.983 142.071 335.247 138.524 335.268 135.831Z"></path>
	<path fill="#444445" d="M382.876 254.459C385.83 253.189 388.861 251.988 391.735 250.547C390.22 259.373 389.311 268.343 388.099 277.218Q385.256 297.927 382.089 318.59Q381.298 323.83 380.749 329.1C380.451 331.794 380.371 334.856 379.561 337.437C375.623 340.684 373.129 354.373 368.292 358.916C367.829 357.213 368.382 354.632 368.588 352.853C370.46 336.742 373.199 320.662 375.543 304.609C377.98 287.917 380.066 271.087 382.876 254.459Z"></path>
	<path fill="#2F3036" d="M82.7093 162.988C88.69 156.311 98.6698 150.693 106.344 146.063C116.856 139.72 127.452 133.699 138.513 128.337C157.924 118.928 178.055 111.562 198.423 104.56Q219.643 97.0611 241.194 90.5768C261.355 84.4914 281.652 78.4734 302.245 74.0053C315.11 71.2138 328.29 68.845 341.37 67.4125C346.662 66.8329 351.951 66.6575 357.249 66.2159C360.146 65.9743 363.037 65.4653 365.931 65.2581C366.177 65.2405 366.425 65.2374 366.672 65.2379L366.279 65.3695C362.228 66.6986 357.79 67.2939 353.615 68.175C340.468 70.9495 327.213 72.9312 314.044 75.5338C306.177 77.0885 298.368 79.2688 290.578 81.1924Q269.499 86.2217 248.6 91.9539C232.669 96.3133 217.055 101.692 201.467 107.13C176.309 115.906 151.311 125.289 127.612 137.574C117.876 142.621 108.394 148.335 99.0988 154.143C93.807 157.45 88.9092 161.116 83.2627 163.842L82.7093 162.988Z"></path>
	<path fill="#FEFEFE" d="M221.928 39.3149C222.599 39.1892 223.02 39.102 223.673 39.3968C225.652 40.2893 227.377 41.907 228.977 43.3438C235.571 49.2636 240.662 55.9995 243.878 64.2933C240.09 66.6586 236.459 68.7185 232.215 70.1584C230.199 64.2385 223.696 54.318 219.905 49.1182C211.574 49.4723 186.403 58.6184 177.897 62.5288L175.436 63.8447C174.275 70.7981 177.408 77.9735 180.042 84.2746C176.654 85.6358 173.441 87.2008 170.255 88.9834C167.281 79.4918 165.28 70.6356 165.276 60.5938C167.816 58.2857 170.633 56.5009 173.683 54.9371C184.222 49.5344 196.108 46.1113 207.489 42.9586C212.26 41.6367 217.058 40.2243 221.928 39.3149Z"></path>
	<defs>
		<linearGradient id="SvgjsLinearGradient1016" gradientUnits="userSpaceOnUse" x1="302.01135" y1="416.09482" x2="347.84167" y2="449.80838">
			<stop offset="0" stop-color="#575657"></stop>
			<stop offset="1" stop-color="#707070"></stop>
		</linearGradient>
	</defs>
	<path fill="url(#gradient_4)" d="M320.298 477.555C321.411 474.896 322.087 462.769 322.558 458.958L328.741 410.669C330.546 396.148 330.789 380.401 336.185 366.654C335.536 371.971 335.494 377.379 335.05 382.724L331.647 424.33C330.177 442.971 327.897 461.55 326.494 480.184C323.755 481.089 321.177 482.362 318.392 483.2C313.115 484.788 307.606 485.507 302.195 486.48C302.183 481.759 302.79 477.023 303.28 472.332C303.874 466.644 304.423 460.986 304.787 455.277C307.098 456.52 311.477 458.856 314.162 458.396C315.264 457.649 315.888 454.478 316.185 453.173C316.966 449.737 317.348 446.169 317.886 442.685C318.711 437.339 319.719 432.02 320.555 426.673C321.596 420.016 322.426 413.151 324.34 406.679C325.319 407.788 325.41 409.902 325.493 411.321C324.893 416.612 324.421 421.934 323.745 427.213C324.102 436.89 322.903 445.297 321.525 454.788C321.437 462.4 320.074 469.886 320.298 477.555Z"></path>
	<path fill="#2F3036" d="M323.745 427.213C324.102 436.89 322.903 445.297 321.525 454.788C321.205 445.611 321.506 436.173 323.745 427.213Z"></path>
	<path fill="#7C7C7C" d="M181.68 352.975C182.735 360.036 183.045 367.251 183.603 374.369Q184.985 392.763 186.663 411.132L190.753 454.828C191.528 463.084 192.767 471.6 192.798 479.881C188.413 478.612 183.575 477.514 179.529 475.346C179.829 472.583 178.855 469.079 178.553 466.261C177.815 459.358 177.095 452.374 176.645 445.45Q174.96 418.39 176.7 391.333C177.268 383.229 178.236 375.101 179.145 367.03C179.53 363.618 179.808 355.653 181.68 352.975Z"></path>
	<path fill="#444445" d="M344.999 265.866C345.356 265.787 345.148 265.798 345.623 265.916C346.015 267.676 338.815 318.789 337.585 324.844C332.725 320.206 327.083 316.748 321.273 313.453C318.373 312.02 315.382 310.872 312.407 309.614C311.722 310.167 311.081 310.788 310.429 311.379C310.637 307.048 311.083 302.719 311.342 298.389Q312.147 284.346 312.251 270.281C323.248 270.041 334.117 267.216 344.999 265.866Z"></path>
	<path fill="#7C7C7C" d="M242.021 485.635C242.15 480.675 241.506 475.661 241.501 470.68C241.493 462.755 241.326 454.782 241.557 446.863C241.735 440.788 242.257 434.691 242.552 428.617C242.88 421.843 243.855 414.908 244.832 408.201Q247.709 387.663 253.051 367.624C255.189 359.679 257.796 351.861 259.975 343.929C260.752 341.102 262.878 330.612 264.487 329.157L262.283 415.5C261.828 439.309 261.864 463.205 260.966 486.997C254.846 486.946 247.965 487.226 242.021 485.635Z"></path>
	<path fill="#444445" d="M146.455 260.327C155.545 262.982 164.89 264.698 174.196 266.386C175.033 272.972 175.388 279.69 175.97 286.308L179.384 325.328Q180.048 332.998 180.847 340.656C181.267 344.647 181.988 348.961 181.68 352.975C179.808 355.653 179.53 363.618 179.145 367.03C178.236 375.101 177.268 383.229 176.7 391.333Q174.96 418.39 176.645 445.45C177.095 452.374 177.815 459.358 178.553 466.261C178.855 469.079 179.829 472.583 179.529 475.346C177.517 474.572 175.591 473.776 173.643 472.842C172.018 465.202 171.023 457.375 169.893 449.646Q167.648 434.706 165.597 419.738Q158.95 371.062 153.915 322.193Q151.702 302.364 149.214 282.568C148.258 275.145 146.907 267.809 146.455 260.327Z"></path>
	<path fill="#FEFEFE" d="M266.558 126.392C267.044 126.789 267.434 127.126 267.71 127.701C270.025 132.543 273.46 150.348 274.576 156.292C275.116 159.17 275.803 165.776 277.256 168.061C273.872 170.483 269.045 173.319 267.258 177.234C267.063 178.396 266.388 180.113 266.617 181.228C267.085 181.722 267.315 181.9 268.015 181.948C270.979 182.15 273.867 180.093 276.878 180.856C277.351 181.365 277.271 181.699 277.352 182.364C276.792 191.184 277.618 203.046 283.708 210.049C285.732 212.376 288.512 214.142 291.639 214.395C294.368 214.615 296.867 213.607 298.917 211.836C304.366 207.129 306.124 198.983 306.517 192.129C306.937 184.81 306.193 177.776 305.2 170.539L313.419 169.969C314.644 171.916 315.728 173.74 316.168 176.039C317.817 184.656 315.023 210.645 313.013 219.58C312.333 222.602 311.286 225.517 309.7 228.184Q294.921 228.99 280.127 229.451C274.735 229.611 268.521 229.35 263.245 230.173C263.038 228.64 263.006 226.374 261.693 225.325C259.508 223.579 253.092 224.357 250.485 224.775C249.038 225.007 247.778 225.402 246.444 226.022C245.552 227.286 244.89 228.524 244.377 229.994L233.758 229.704C233.822 222.814 234.138 215.956 234.499 209.076C233.96 192.677 247.4 162.551 255.178 148.479C256.578 145.554 258.212 142.725 259.686 139.834C261.972 135.35 264.142 130.808 266.558 126.392Z"></path>
	<path fill="#FAC0B3" d="M255.178 148.479C255.799 149.531 255.769 149.943 255.459 151.116C254.172 155.978 251.669 160.777 249.836 165.487C246.508 174.034 243.389 182.753 240.411 191.43C239.18 195.015 236.693 205.987 235.118 208.172C234.905 208.468 234.706 208.777 234.499 209.076C233.96 192.677 247.4 162.551 255.178 148.479Z"></path>
	<path fill="#444445" d="M226.093 272.712C231.751 272.737 237.422 273.271 243.08 273.45C250.705 273.69 258.307 273.564 265.933 273.496C265.974 283.899 265.566 294.349 265.323 304.752C265.134 312.864 265.221 321.075 264.487 329.157C262.878 330.612 260.752 341.102 259.975 343.929C257.796 351.861 255.189 359.679 253.051 367.624Q247.709 387.663 244.832 408.201C243.855 414.908 242.88 421.843 242.552 428.617C242.257 434.691 241.735 440.788 241.557 446.863C241.326 454.782 241.493 462.755 241.501 470.68C241.506 475.661 242.15 480.675 242.021 485.635C239.278 485.29 236.486 484.563 233.764 484.045L228.669 362.868L226.783 299.064C226.533 290.289 226.512 281.477 226.093 272.712Z"></path>
	<path fill="#FEFEFE" d="M312.937 312.947C315.382 313.575 317.813 315.35 319.94 316.675C326.062 320.49 331.934 324.548 337.513 329.127C340.309 331.422 342.878 333.978 345.702 336.235C342.391 341.888 339.219 350.117 336.624 356.347Q331.223 369.125 327.082 382.365Q322.941 395.605 320.099 409.183C317.048 424.478 315.339 440.002 312.322 455.32C311.006 454.639 309.609 454.093 308.248 453.508C300.171 449.892 292.016 446.527 283.841 443.142C280.425 441.728 277.072 440.034 273.589 438.808L273.573 438.123C273.363 426.837 274.481 414.999 276.389 403.877C280.835 377.955 294.349 332.326 312.937 312.947Z"></path>
	<path d="M312.98 320.496C315.174 320.416 316.993 320.85 318.91 321.96C319.822 322.487 320.83 323.305 320.988 324.418C321.124 325.385 320.614 325.937 320.017 326.589C317.643 326.481 314.532 325.584 312.726 323.963C312.079 323.383 311.841 322.882 311.797 322.001C312 321.243 312.401 320.967 312.98 320.496Z"></path>
	<path d="M307.41 328.305C307.621 328.281 307.832 328.255 308.044 328.24C311.047 328.028 314.354 328.719 316.631 330.834C317.258 331.416 317.394 331.831 317.449 332.667C317.115 333.501 316.785 333.777 316.049 334.276C315.737 334.36 315.435 334.443 315.113 334.481C312.708 334.764 309.322 333.27 307.494 331.734C306.772 331.128 306.295 330.58 306.22 329.601C306.555 328.825 306.733 328.764 307.41 328.305Z"></path>
	<path d="M298.857 372.852C301.236 372.554 303.834 372.659 306.196 373.071C312.296 374.137 317.108 377.441 320.622 382.491C320.283 382.277 319.962 382.041 319.635 381.809C310.359 375.217 302.998 376.059 292.252 377.865C294.952 390.493 301.981 399.906 312.209 407.563C310.837 407.509 309.465 407.412 308.098 407.576C300.449 408.496 293.381 412.913 288.667 418.891C287.356 420.77 286.459 422.753 285.569 424.856C290.481 428.364 295.69 427.521 301.365 427.136C300.01 428.407 298.756 429.426 296.99 430.112C293.587 431.434 289.527 431.415 286.177 429.898C284.566 429.169 283.074 427.982 282.464 426.269C281.634 423.937 282.616 421.222 283.685 419.122C287.357 411.913 294.754 407.085 302.281 404.69C295.669 398.043 290.629 389.084 288.964 379.814C288.705 378.374 288.528 376.561 289.492 375.321C291.184 373.144 296.263 373.098 298.857 372.852Z"></path>
	<path fill="#7C7C7C" d="M307.215 50.6056C311.236 50.2282 315.329 50.5354 319.356 50.7201C323.892 50.928 328.484 51.1138 332.959 51.923C336.15 52.4998 339.334 53.4492 342.471 54.2704C345.292 55.0087 348.131 55.7057 350.868 56.7229C355.235 58.3458 359.406 60.4319 363.67 62.2955C362.175 62.2354 360.689 62.3073 359.198 62.4191C353.862 62.8193 348.517 63.5956 343.203 64.2252C329.131 65.8924 315.334 67.8917 301.5 71.0587C289.5 73.8059 277.642 77.3206 265.75 80.4927C256.939 82.8427 248.085 85.0675 239.342 87.6572Q211.633 95.9292 184.573 106.125C163.341 113.949 142.183 122.582 122.169 133.187C112.41 138.358 103.243 144.501 94.1445 150.734C86.3671 156.062 77.8863 161.21 71.6825 168.4C76.7258 152.134 87.068 139.827 98.7291 127.849C106.77 119.854 115.179 112.724 124.145 105.798C118.859 114.31 113.175 121.48 108.951 130.747C108.086 132.645 105.453 137.862 106.411 139.938C106.577 140.298 106.586 140.199 107.009 140.387C110.332 139.368 118.976 121.378 121.185 117.614C123.455 113.745 129.794 103.806 132.67 100.935C138.404 95.2098 154.747 86.9683 162.337 83.7402L166.117 89.4583Q162.827 94.3148 160.564 99.7268C159.33 102.741 157.579 107.937 158.921 111.131C159.348 111.342 159.259 111.42 159.645 111.256C162.493 110.041 167.178 96.1681 168.524 92.6472C169.272 92.5748 170.026 92.4905 170.756 92.3102C173.618 91.6046 182.028 88.6217 183.354 85.9068C184.637 83.2804 182.762 77.8205 182.048 75.1043C195.219 69.45 208.346 64.6938 222.424 61.8833C224.587 65.1361 227.609 71.1477 231.368 72.4976C235.689 74.0488 241.807 70.7534 245.716 69.0207C248.284 71.2984 256.474 79.1608 259.499 79.2842C259.873 79.2995 259.952 79.0595 260.188 78.8104C260.448 77.9422 260.403 77.3218 260.08 76.4834C258.345 71.9789 252.612 68.0704 248.356 66.2691C247.86 63.54 247.353 60.9578 246.237 58.4074C253.255 56.4538 260.908 56.1337 268.118 55.2002C276.231 54.1498 284.31 52.8126 292.437 51.8717C297.341 51.3041 302.293 50.9979 307.215 50.6056Z"></path>
	<path d="M274.991 54.8482C283.569 53.2182 299.805 57.5173 308.472 59.8263C311.178 60.5472 315.249 61.2155 317.479 62.9027C318.061 63.3426 318.097 63.5841 318.176 64.287C317.414 64.6049 316.804 64.7495 315.973 64.7482C312.461 64.7424 308.606 63.7565 305.162 63.0776C297.182 61.5043 289.15 59.7768 281.307 57.6215C279.487 57.1213 275.933 56.5065 274.991 54.8482Z"></path>
	<path fill="#7C7C7C" d="M112.77 212.638C113.994 213.031 114.668 213.535 115.72 214.201C115.728 214.262 115.72 214.327 115.744 214.384C116.088 215.22 124.824 218.334 126.231 218.788C136.945 222.246 148.347 224.205 159.435 226.059Q179.203 229.295 199.159 231.027Q219.114 232.759 239.144 232.977C249.306 233.086 259.412 232.702 269.566 232.473C281.495 232.204 293.508 232.049 305.412 231.265Q330.915 229.482 356.153 225.4C372.982 222.704 389.433 220.4 404.779 212.568C404.185 217.724 403.131 222.925 402.109 228.013C375.247 238.578 347.22 243.677 318.682 247.058Q303.742 248.886 288.726 249.921Q273.71 250.956 258.661 251.196Q243.611 251.435 228.57 250.879Q213.529 250.322 198.538 248.971Q171.283 246.463 144.165 242.75C138.731 241.987 133.343 240.45 127.962 239.813L127.577 239.769C128.857 240.369 130.183 240.874 131.506 241.366C152.88 249.315 177.718 251.312 200.365 252.89C216.088 253.986 232.071 254.971 247.837 255.004C255.444 255.02 263.076 254.635 270.677 254.344C305.27 253.019 340.157 249.605 373.594 240.286C383.209 237.606 392.363 234.716 401.447 230.569C400.234 234.886 399.798 239.614 399.137 244.047C395.383 246.096 391.35 247.739 387.411 249.394C378.344 253.202 369.025 256.714 359.487 259.159C348.083 262.081 336.038 263.233 324.369 264.801C315.429 266.003 306.521 267.303 297.532 268.107Q289.329 268.832 281.105 269.267Q272.881 269.702 264.647 269.848Q256.413 269.993 248.179 269.848Q239.945 269.703 231.721 269.268Q223.497 268.833 215.293 268.108Q207.09 267.384 198.917 266.371Q190.744 265.358 182.612 264.057Q174.48 262.757 166.399 261.171C150.016 257.995 132.954 254.521 118.471 245.912C116.379 238.866 114.951 231.531 113.316 224.363C112.725 221.769 111.386 217.803 111.395 215.211C111.399 214.195 112.121 213.336 112.77 212.638Z"></path>
	<path fill="#444445" d="M155.725 127.575C157.777 125.903 166.58 123.098 169.581 121.945C200.166 110.192 230.995 99.1291 262.826 91.2117C266.571 92.7837 270.682 93.6159 274.258 95.597L274.199 96.1302C276.96 98.3154 285.051 102.16 288.503 103.957L306.257 113.176C309.961 115.066 314.754 116.861 317.936 119.496C319.93 121.146 321.214 124.288 322.293 126.599Q324.168 130.572 325.718 134.681Q327.269 138.791 328.486 143.012Q329.702 147.233 330.577 151.538Q331.452 155.842 331.98 160.203Q332.09 161.168 332.046 162.138C324.439 158.903 320.15 157.693 311.917 156.78C304.877 149.906 298.998 141.799 293.561 133.633C291.877 131.104 289.994 128.504 288.795 125.704C287.51 122.707 286.958 119.258 286.04 116.12C285.548 114.435 283.52 107.644 281.699 107.345C281.2 108.858 282.436 111.659 282.839 113.248C284.02 117.9 284.664 123.041 285.256 127.813C286.714 139.564 286.53 151.03 285.95 162.825C284.599 163.585 283.228 164.456 281.812 165.076Q279.849 147.187 276.015 129.603C274.726 123.831 273.12 118.132 271.783 112.371C270.494 106.814 269.916 100.932 267.404 95.7534C268.567 102.141 269.576 108.804 267.88 115.193C265.609 123.746 260.601 131.251 256.538 139.012Q251.031 149.61 246.34 160.595Q241.103 172.915 236.822 185.599C235.773 188.702 234.564 195.087 233.115 197.582C230.617 208.148 230.579 219.74 231.715 230.506C230.669 229.191 229.658 227.78 228.517 226.548C228.163 226.359 227.806 226.173 227.47 225.951C224.474 223.968 221.679 214.347 221.022 210.775C221.264 210.139 221.317 209.529 221.297 208.853C221.259 207.575 220.876 206.279 220.751 204.996C220.411 201.49 220.123 197.943 219.983 194.424C219.781 189.334 220.122 184.25 220.352 179.168C220.477 176.413 220.429 173.654 220.637 170.903C221.049 170.584 221.287 170.283 221.606 169.878C221.572 169.064 221.422 169.022 220.905 168.428C221.08 165.034 222.429 156.277 220.85 153.517C222.483 144.524 223.617 137.43 228.255 129.295C230.621 125.144 233.625 120.978 235.464 116.569C222.988 129.346 214.662 148.655 207.736 164.879C199.328 162.984 179.836 161.514 172.388 166C171.67 166.432 170.879 167.23 170.821 168.119C170.784 168.703 170.989 169.181 171.452 169.543C173.415 171.078 200.382 172.857 204.928 172.746C198.545 191.205 197.302 208.482 196.243 227.878L185.069 226.14C182.614 224.286 180.579 221.576 178.812 219.085C171.57 208.876 167.451 196.837 165.748 184.496C163.497 168.192 166.126 154.759 167.598 138.698C166.064 142.001 165.191 145.598 164.366 149.134C160.624 165.177 160.453 181.601 161.249 197.976C161.672 206.679 162.339 215.319 163.893 223.907C156.246 222.006 148.316 220.508 140.55 219.2C141.217 218.635 140.984 217.855 140.938 217.068C140.232 205.144 139.774 193.054 140.614 181.125C141.42 169.685 143.426 157.423 147.398 146.623Q148.693 143.14 150.261 139.77C151.701 136.744 155.455 130.655 155.725 127.575Z"></path>
	<defs>
		<linearGradient id="SvgjsLinearGradient1015" gradientUnits="userSpaceOnUse" x1="219.48322" y1="186.10579" x2="246.92081" y2="207.76579">
			<stop offset="0" stop-color="#7B7C85"></stop>
			<stop offset="1" stop-color="#8D9092"></stop>
		</linearGradient>
	</defs>
	<path fill="url(#gradient_5)" d="M228.517 226.548C227.711 223.194 226.676 220.156 226.312 216.677C224.704 201.306 228.433 183.363 233.995 169.043C234.852 166.837 235.709 163.7 237.192 161.866C235.771 168.722 234.779 175.778 233.806 182.713C233.226 186.851 232.317 191.445 232.534 195.625C232.572 196.357 232.786 196.936 233.115 197.582C230.617 208.148 230.579 219.74 231.715 230.506C230.669 229.191 229.658 227.78 228.517 226.548Z"></path>
	<path fill="#7C7C7C" d="M128.335 255.3L143.702 259.64C145.357 278.241 147.774 296.732 149.906 315.28L159.15 394.996Q162.15 419.78 165.829 444.472C167.262 454.247 167.978 465.243 171.577 474.502C178.039 479.421 186.745 482.863 194.851 483.556C195.482 481.957 196.041 480.531 196.063 478.781C196.156 471.396 194.987 463.701 194.284 456.343L190.856 419.173L183.689 336.21L179.433 292.501C178.598 283.913 177.627 275.315 177.087 266.703C186.265 268.807 195.99 269.631 205.352 270.557C211.121 271.127 216.921 271.857 222.693 272.313C223.604 282.822 223.582 293.301 223.807 303.836L224.756 339.539Q226.146 386.908 228.303 434.248L229.47 463.105C229.734 470.847 229.679 478.79 230.902 486.451C233.496 487.396 236.069 488.286 238.767 488.903C245.189 490.373 257.416 491.843 263.687 490.264C265.465 481.395 264.676 471.772 264.818 462.754Q265.361 438.931 265.661 415.103L267.631 335.535C268.278 314.773 269.218 294.043 269.361 273.265C277.503 272.977 285.651 272.326 293.779 271.765C298.916 271.411 304.331 271.315 309.399 270.464Q308.714 292.22 307.615 313.959C304.822 318.172 301.778 322.171 299.293 326.588C293.034 337.717 288.424 349.468 284.34 361.54C277.72 381.111 272.808 400.927 271.277 421.568C270.819 427.752 269.811 434.459 270.951 440.588C275.145 444.64 282.371 446.225 287.749 448.232C292.528 450.015 297.341 451.801 302.029 453.814C301.135 459.41 297.545 485.646 299.867 489.584C303.667 491.269 321.126 486.294 325.463 484.608C326.86 484.065 328.693 483.212 329.306 481.739C331.31 476.928 331.761 461.833 332.284 455.816Q335.4 420.427 338.032 384.998C338.482 379.584 338.991 374.168 339.374 368.749C339.694 364.228 339.727 359.692 340.723 355.249C342.269 348.357 345.79 341.91 348.535 335.427C346.101 332.678 343.676 329.855 340.98 327.356C341.95 316.228 343.695 305.174 345.208 294.11C346.532 284.42 347.609 274.592 349.206 264.95C359.44 262.418 369.396 259.72 379.421 256.443C378.039 262.894 377.354 269.6 376.448 276.134L372.364 304.158Q363.928 359.847 356.647 415.698Q354.783 429.142 353.179 442.619C352.312 449.924 351.68 457.508 349.953 464.665C349.254 467.565 348.072 469.845 345.533 471.546C342.422 473.629 335.594 474.66 333.729 476.739C333.581 477.439 333.643 477.477 333.953 478.133C334.852 478.841 335.775 478.821 336.862 478.685C341.471 478.105 348.196 475.195 351.03 471.408C352.461 469.496 352.925 466.311 353.378 464.006C355.37 453.865 356.379 443.434 357.702 433.186L363.591 388.162L365.082 376.602C365.797 370.619 366.29 364.649 368.292 358.916C373.129 354.373 375.623 340.684 379.561 337.437C378.753 347.434 377.143 357.482 375.746 367.416Q370.79 401.368 365.256 435.231L361.286 461.506C360.566 466.403 360.257 471.769 358.744 476.478C354.701 480.734 347.602 483.29 342.154 485.252C318.921 493.616 294.488 497.264 269.87 497.883C240.099 498.633 204.852 496.099 177.369 483.956C171.357 481.299 165.852 477.943 160.297 474.454C158.898 469.016 158.151 463.263 157.181 457.721C154.045 439.806 151.924 421.714 149.636 403.675C146.472 378.723 142.561 353.84 139.821 328.841Q137.603 307.424 134.383 286.135C132.844 275.787 131.367 265.339 128.335 255.3Z"></path>
</svg><style>@media (prefers-color-scheme: light) { :root { filter: none; } }
@media (prefers-color-scheme: dark) { :root { filter: none; } }
</style></svg>