<svg xmlns="http://www.w3.org/2000/svg" xmlns:xlink="http://www.w3.org/1999/xlink" viewBox="41.38 4.38 722.05 193.04">
	<path d="M94.4326 192.858C96.2955 193.299 98.3566 193.524 100.257 193.235L100.562 193.282C101.209 194 101.999 194.731 102.375 195.633C98.6056 195.505 94.1325 194.19 90.4664 193.251L94.4326 192.858Z"/>
	<path d="M170.449 79.3426C171.26 79.9205 171.599 80.0963 171.785 81.136C172.385 84.4878 171.851 95.4181 170.338 98.2833C169.843 96.9754 170.044 95.2826 169.691 93.8536C169.439 89.624 171.522 83.8145 170.186 79.8706L170.449 79.3426Z"/>
	<path d="M154.621 186.682C155.197 186.492 155.509 185.818 155.821 185.333C155.785 186.967 155.54 188.288 154.323 189.47C147.851 195.756 127.759 197.627 118.715 197.401C114.908 197.306 105.561 196.946 102.375 195.633C101.999 194.731 101.209 194 100.562 193.282C106.555 194.34 112.834 194.956 118.925 195.03C129.179 195.154 146.997 194.122 154.621 186.682Z"/>
	<path d="M165.856 115.488C165.943 115.392 166.02 115.297 166.093 115.19C166.131 115.135 166.166 115.079 166.203 115.024C167.639 112.876 166.701 109.72 168.064 107.487L168.702 107.753C168.199 113.166 157.035 183.851 155.868 185.14C155.071 183.711 155.557 180.927 155.403 179.221C155.088 175.371 156.978 168.67 157.634 164.5C160.2 148.196 162.116 131.568 165.856 115.488Z"/>
	<path fill="gray" d="M320.023 49.625C323.883 49.1773 327.324 49.1447 330.74 51.3142C333.429 53.022 335.485 55.7475 336.144 58.8875C336.743 61.7408 336.202 64.8482 334.598 67.2916C332.692 70.1939 329.612 71.9112 326.271 72.5852C323.908 73.2894 321.152 72.86 318.875 72.0136Q318.337 71.81 317.822 71.5547Q317.306 71.2994 316.818 70.9948Q316.331 70.6902 315.875 70.3393Q315.419 69.9883 315 69.5945Q314.581 69.2006 314.202 68.7675Q313.824 68.3344 313.489 67.8664Q313.155 67.3983 312.868 66.8997Q312.582 66.4012 312.345 65.8769C311.101 63.1365 310.92 60.0058 312 57.1852C313.449 53.3985 316.472 51.236 320.023 49.625Z"/>
	<path fill="gray" d="M422.663 99.4378C427.285 98.7516 432.527 99.2257 437.232 99.2318Q452.007 99.3122 466.782 99.1763C466.81 99.2334 466.837 99.2908 466.865 99.3475C467.058 99.7343 467.25 100.135 467.286 100.573C467.501 103.161 467.802 117.614 466.684 119.005C462.873 119.711 457.83 119.095 453.869 119.087Q438.035 118.974 422.201 119.146C423.339 117.24 423.207 102.162 422.663 99.4378Z"/>
	<path fill="gray" d="M312.509 76.9663Q324.134 76.8332 335.759 76.9556C335.817 77.0771 335.822 77.0802 335.865 77.1917C335.883 77.2382 335.899 77.2854 335.916 77.332C336.835 79.7766 336.221 138.004 336.253 145.714C335.534 146.283 334.862 146.112 333.971 146.113C326.412 145.579 318.365 146.056 310.788 146.161C311.11 145.645 311.385 144.984 311.431 144.375C311.883 138.489 311.496 132.28 311.493 126.37L311.463 89.8206C311.459 86.9145 310.817 79.5986 311.671 77.2425L312.509 76.9663Z"/>
	<path fill="gray" d="M504.383 76.5916C512.529 76.0275 520.348 76.2926 527.825 79.9075C533.93 82.8594 538.85 88.031 541.086 94.4879C542.094 97.3964 543.928 103.483 542.546 106.345C534.971 105.981 527.305 106.238 519.725 106.402C519.935 105.281 519.628 103.989 519.331 102.907C518.64 100.386 517.63 98.2485 515.267 96.9243C513.215 95.7739 510.696 95.619 508.459 96.2778C505.965 97.0124 504.06 98.7951 502.848 101.06C500.135 106.131 500.289 114.208 501.939 119.636C502.726 122.226 504.407 124.652 506.849 125.913C508.982 127.015 511.5 127.139 513.77 126.396C515.794 125.732 517.72 124.3 518.684 122.368C519.329 121.076 520.127 117.912 519.61 116.557C519.586 116.496 519.559 116.436 519.534 116.375C525.82 116.662 532.162 116.5 538.454 116.498L542.817 116.494C543.528 122.302 541.549 129.06 538.28 133.86C533.774 140.476 526.592 144.56 518.809 146.033C509.2 147.852 498.425 146.84 490.188 141.205C482.702 136.085 478.044 128.41 476.392 119.548C474.527 109.545 476.121 98.179 481.95 89.6886C487.355 81.8148 495.239 78.2948 504.383 76.5916Z"/>
	<path fill="gray" d="M734.214 76.5916C739.808 75.9449 745.618 76.4769 750.679 79.0841C756.24 81.9487 759.945 87.0484 761.787 92.9254Q762.958 96.7878 763.172 100.818C763.446 105.259 763.731 144.19 762.709 146.154C754.535 145.685 746.112 146.062 737.913 146.154C739.012 144.494 738.609 114.466 738.575 110.156C738.543 106.183 738.297 101.58 735.263 98.6338C733.95 97.3594 732.314 96.6848 730.48 96.7184C726.818 96.7855 724.099 98.823 721.69 101.311C721.675 103.981 721.019 106.752 720.959 109.499C720.745 119.459 720.923 129.467 720.944 139.431C720.949 141.361 721.346 144.424 720.403 146.078Q708.022 145.985 695.642 146.154C695.846 145.826 696.026 145.477 696.113 145.098C696.782 142.184 696.229 129.73 696.23 125.846L696.229 95.2818C696.226 89.9885 696.415 84.615 696.173 79.3328C696.133 78.4488 695.978 77.7592 695.506 77.0038L719.413 76.9414C719.476 77.0818 719.535 77.2228 719.584 77.3687C720.272 79.3999 720.152 82.4781 719.17 84.3804C720.488 83.738 721.56 82.5122 722.711 81.6068C726.275 78.8018 729.84 77.5922 734.214 76.5916Z"/>
	<path fill="gray" d="M383.408 76.5914C389.202 75.8911 395.317 76.5199 400.489 79.3691C405.912 82.3573 409.546 87.6546 411.22 93.5304C411.865 95.7925 412.196 98.1209 412.333 100.466C412.615 105.303 412.923 144.065 411.759 146.155C403.663 145.609 395.238 146.059 387.106 146.143C388.344 144.198 387.862 109.332 387.422 104.8C387.176 102.272 386.507 100.104 384.446 98.4402C382.813 97.1216 380.71 96.7957 378.671 97.0267C374.878 97.4565 372.824 99.2098 370.548 102.06C370.921 103.159 370.22 108.281 370.201 109.878C370.147 114.466 370.84 143.982 369.767 146.188C362.486 145.333 352.503 146.072 344.931 146.148C345.125 145.827 345.316 145.445 345.38 145.073C345.727 143.062 345.449 140.501 345.446 138.434L345.448 124.31L345.444 94.2745C345.441 89.1033 345.65 83.8359 345.393 78.6733C345.36 78.0271 345.18 77.5496 344.811 77.0132C352.745 76.8688 360.778 76.7188 368.708 76.9789C368.848 77.2201 368.964 77.4645 369.043 77.7331C369.519 79.3399 369.52 82.6762 368.725 84.134C369.998 83.3064 371.131 82.1389 372.347 81.2127C375.728 78.6383 379.326 77.5451 383.408 76.5914Z"/>
	<path fill="gray" d="M650.706 76.5916C658.891 75.8091 667.793 76.6915 675.185 80.4938C680.257 83.1031 684.44 87.1161 686.197 92.667C686.906 94.9034 687.175 97.3227 687.298 99.6583C687.538 104.239 687.828 144.081 686.889 145.893C680.601 144.996 669.92 145.725 663.213 145.768C663.467 145.31 663.619 144.79 663.717 144.278C663.929 143.16 664.12 141.273 663.464 140.305C663.445 140.331 663.427 140.357 663.408 140.382C660.8 143.902 655.117 145.996 650.918 146.618C645.304 147.451 637.988 146.834 633.031 143.909C630.943 142.677 629.214 140.955 627.276 139.513C627.059 138.251 625.424 136.331 624.789 135.017C622.427 130.125 622.355 123.129 624.167 118.005C628.713 105.154 643.31 104.534 654.617 102.91C656.538 102.634 659.411 102.578 661.11 101.694C662.145 101.156 662.39 100.563 662.754 99.5148C662.654 98.2576 662.172 97.3287 661.271 96.4703C659.735 95.008 657.558 94.3095 655.459 94.3905C649.352 94.6261 650.241 98.0261 647.318 101.134C647.299 101.154 647.28 101.174 647.261 101.194Q635.756 101.008 624.25 101.112C625.938 99.2837 626.222 95.1199 627.092 92.7243C627.769 90.8599 628.799 88.9579 629.93 87.3239C634.887 80.1606 642.626 78.0593 650.706 76.5916ZM661.221 117.79C657.385 118.575 649.401 118.803 647.019 122.326C646.39 123.255 646.324 124.396 646.553 125.464C646.83 126.76 647.476 127.49 648.218 128.532L648.305 128.652C651.698 129.603 654.997 129.911 658.178 128.092C660.324 126.865 662.065 124.676 662.695 122.275C663.079 120.81 663.15 119.414 662.655 117.973C662.083 117.71 661.832 117.748 661.221 117.79Z"/>
	<path fill="gray" d="M549.63 55.2433C557.46 54.9888 565.406 55.7837 573.22 55.1165C573.312 55.2838 573.396 55.4483 573.463 55.6277C574.223 57.6614 574.109 82.5582 573.212 84.4936C575.707 82.0801 578.222 79.9097 581.399 78.4366C587.436 75.6377 595.592 75.6234 601.791 77.9178C607.454 80.0144 611.785 84.3547 614.252 89.8061C615.585 92.7541 616.311 95.9327 616.624 99.1449C617 103.003 617.297 144.39 616.655 146.097C608.355 145.746 599.873 146.041 591.565 146.142C591.783 145.815 591.971 145.446 592.058 145.061C592.568 142.798 592.593 132.175 591.516 130.524C591.617 130.368 591.706 130.21 591.787 130.042C592.87 127.808 592.234 104.74 591.167 101.723C590.536 99.9401 589.315 98.6011 587.596 97.8115C585.227 96.7233 582.308 96.7675 579.895 97.6876C577.817 98.48 576.072 100.065 575.243 102.145C572.419 109.226 576.337 140.808 573.886 146.098C573.873 146.127 573.859 146.154 573.846 146.182C565.807 145.384 557.07 146.064 548.954 146.148C549.002 146.065 549.05 145.982 549.091 145.897C549.115 145.848 549.136 145.799 549.16 145.751C550.299 143.458 549.78 64.9922 549.63 55.2433Z"/>
	<path fill="gray" d="M231.622 55.2421L258.935 55.2524C265.379 55.2537 271.948 55.0142 278.342 55.9158C282.388 56.4864 286.355 57.4844 289.973 59.4322C295.165 62.2282 299.036 66.7635 300.717 72.459C302.296 77.8061 301.863 84.2613 299.166 89.1899C296.653 93.7803 292.18 97.2383 287.18 98.706Q288.267 98.7475 289.35 98.8541C293.693 99.3028 297.638 102.262 300.305 105.578C304.307 110.553 305.657 117.039 304.945 123.294C304.674 125.669 303.783 129.734 301.84 131.275C301.842 131.324 301.846 131.373 301.848 131.422C301.897 133.08 299.476 135.526 298.333 136.71C294.757 140.411 290.074 142.871 285.133 144.211C272.927 147.52 245.193 145.908 231.13 146.148L231.2 146.003C232.321 143.738 231.674 65.1426 231.622 55.2421ZM256.8 108.427C255.912 112.627 257.858 122.165 256.1 125.292C260.103 125.291 273.106 126.067 276.068 123.214C276.237 123.051 276.409 122.861 276.531 122.659C277.822 121.892 278.467 120.93 278.832 119.474C279.354 117.388 279.267 114.69 278.124 112.812C276.813 110.657 274.445 109.567 272.075 109.005C267.009 107.802 261.874 108.89 256.8 108.427ZM256.444 75.4678C256.686 78.6006 257.407 88.7363 256.043 91.1244C256.01 91.1821 255.979 91.241 255.947 91.2993C260.135 91.3035 270.13 92.1694 273.193 89.0486C273.324 88.9148 273.434 88.7706 273.541 88.6174C274.839 87.9388 275.615 86.9385 276.04 85.5383C276.607 83.6763 276.251 81.4014 275.329 79.7092C274.285 77.7956 272.448 76.6588 270.392 76.0735C266.08 74.8458 260.889 75.3727 256.444 75.4678Z"/>
	<path d="M142.059 15.9761C141.528 14.8443 141.045 13.665 140.661 12.4754C140.017 10.485 139.67 7.88739 140.707 5.96023C141.255 4.94284 141.921 4.69884 142.964 4.37993C143.814 4.53388 144.355 4.79187 144.943 5.44044C146.7 7.3808 146.458 9.96305 146.344 12.3818C148.45 12.1415 151.647 11.4424 153.585 12.4905C154.41 12.9367 154.457 13.165 154.721 14.0059C154.604 14.4291 154.457 14.8435 154.179 15.1906C152.043 17.8568 147.701 18.6796 144.535 17.8632C143.321 17.55 142.327 16.8368 140.994 17.0211C140.038 17.1532 139.836 17.2879 139.276 18.0202L139.479 18.5275C143.051 19.5858 147.023 19.1708 150.552 20.4635C152.191 21.0639 152.795 22.064 153.506 23.5682C154.226 24.4556 154.575 24.9217 155.769 25.0497C157.63 25.2491 159.717 24.9278 161.026 26.5324C161.287 26.8523 161.329 27.4316 161.423 27.8366C160.605 31.2766 153.985 34.633 151.01 36.4614C146.468 39.2525 141.985 40.8723 136.872 42.2423C137.641 45.0986 140.538 48.421 142.052 51.0556C145.086 56.3332 146.898 66.2331 147.391 72.1914C153.01 72.338 165.849 75.6109 170.449 79.3426L170.186 79.8706C171.522 83.8145 169.439 89.624 169.691 93.8536C169.439 95.5672 169.334 97.7473 167.897 98.9213C167.298 99.4105 166.414 99.6616 165.648 99.5595C165.437 99.5315 165.127 99.5146 165.001 99.3376C164.102 98.0775 164.666 95.0091 164.97 93.5676L165 93.4294C163.918 93.2444 162.795 93.5821 161.731 93.7839C155.618 94.9434 149.756 95.3717 143.549 95.5645C143.746 98.4407 143.724 101.252 143.61 104.132C135.257 104.223 127.069 105.682 118.648 105.602L117.806 99.391Q104.887 98.9353 92.0379 97.5218Q79.1886 96.1082 66.4797 93.7445C66.3566 95.2504 66.4274 97.7831 65.711 99.0963C65.231 99.9761 64.8912 100.056 63.9938 100.32C60.2422 98.1347 61.6787 85.0839 59.2514 80.8779L59.019 79.8509C59.0774 79.7436 59.0793 79.7329 59.1611 79.6222C60.1309 78.3105 64.7419 77.6512 66.3398 77.3628L66.2357 76.5602L66.0193 76.8028L66.2271 76.5753C64.9562 74.3991 61.319 72.2589 59.2637 70.7167L59.37 69.9898C60.4353 69.1476 62.0956 69.599 63.3719 69.1324C62.9102 68.181 61.7591 67.5092 60.9313 66.8807C56.561 68.082 49.4205 69.9767 44.91 69.101C43.7968 68.8849 42.5227 68.3441 41.8956 67.3576C40.9119 65.8102 41.5754 63.5206 41.923 61.863L41.8465 61.3881C41.6013 60.2048 41.1734 58.6899 41.6263 57.5205C42.952 54.097 59.1047 41.4262 63.0692 38.9478C65.9882 37.123 69.2426 35.7437 72.3644 34.3001L72.461 34.1225C70.7709 31.2746 69.9181 28.0377 68.9289 24.8987C72.5325 23.7027 75.9938 21.6313 79.4945 20.1189C84.3974 18.0005 98.7167 12.556 103.804 13.7398C108.614 14.8589 105.576 18.0971 106.941 20.2616C108.476 20.5453 115.204 18.9881 117.412 18.7338C124.224 17.9493 131.016 18.0505 137.856 18.2563C139.2 16.9235 140.247 16.4243 142.059 15.9761ZM70.4317 25.609C71.0977 27.5739 73.2516 32.2738 72.461 34.1225L72.3644 34.3001L73.5637 34.292C73.0746 35.2543 71.923 35.8949 71.0655 36.5155C75.4284 38.2752 92.6948 29.7115 95.8663 30.3774C107.524 27.8572 120.42 22.6879 132.355 22.3308L135.274 19.7576C130.046 19.4333 124.824 19.3735 119.609 19.9441C115.038 20.4441 110.323 21.4708 105.722 21.3497C105.697 19.6994 105.846 17.8098 105.096 16.3037C103.946 15.3271 102.854 15.2731 101.369 15.3992C91.6832 16.2212 79.1341 21.3324 70.4317 25.609ZM153.506 23.5682C153.1 24.4011 153.021 24.8138 152.098 25.1455C150.875 25.5852 149.233 25.0265 148.4 26.3007L149.31 27.446C148.8 27.7813 148.373 27.8244 147.781 27.8875C150.385 28.6393 152.91 29.4823 155.439 30.4567C153.548 30.3449 151.248 29.9552 149.389 30.182C145.091 34.3031 137.532 36.3662 131.958 37.878C133.007 38.9164 134.245 40.4718 135.731 40.7763Q136.83 40.5545 137.923 40.3027L136.872 42.2423C141.985 40.8723 146.468 39.2525 151.01 36.4614C153.985 34.633 160.605 31.2766 161.423 27.8366C161.329 27.4316 161.287 26.8523 161.026 26.5324C159.717 24.9278 157.63 25.2491 155.769 25.0497C154.575 24.9217 154.226 24.4556 153.506 23.5682Z"/>
	<path fill="#474647" d="M68.0583 80.4768L69.4432 80.4954C70.3902 81.1471 70.7593 81.5928 71.2444 82.635C71.1456 83.4354 71.1242 83.5228 70.4968 84.03L68.7848 83.7985L64.0759 82.2906L68.0583 80.4768Z"/>
	<path fill="#474647" d="M50.3209 66.1608L56.3491 62.9775C57.8755 64.2751 59.3862 65.5374 61.0434 66.6693C57.7576 66.2711 54.5992 66.8197 51.3255 67.0606L50.3209 66.1608Z"/>
	<path fill="#474647" d="M41.8465 61.3881L42.4049 61.5193L43.7993 61.9552C44.8808 61.9448 45.6823 61.7081 46.5143 62.4467C46.6732 63.7656 46.4349 65.0453 47.3176 66.0481C48.385 66.3828 49.2363 66.2931 50.3209 66.1608L51.3255 67.0606C48.6377 67.57 45.7967 67.5279 43.0753 67.4233C43.0993 66.0725 43.2337 64.5494 42.9766 63.2242C42.8036 62.3325 42.6517 62.3479 41.923 61.863L41.8465 61.3881Z"/>
	<path fill="#474647" d="M54.6365 58.4935L54.7549 58.632C54.9429 59.8201 55.3986 60.6632 55.1439 61.9008C53.6696 63.8322 50.9976 64.4965 48.8016 65.2871C48.0076 64.8775 47.9017 64.8433 47.5445 64.0206C48.7126 61.1676 52.0421 59.8602 54.6365 58.4935Z"/>
	<path fill="#44AE2D" d="M143.128 14.637C142.75 13.2882 142.355 11.9326 142.052 10.565C141.726 9.09661 141.722 7.41112 142.557 6.10509L143.183 6.23123C144.807 8.89403 144.591 11.2485 144.571 14.2675C147.013 13.8696 150.359 12.9101 152.703 14.0109C152.625 14.2507 152.621 14.4894 152.389 14.6067C150.016 15.8097 146.402 16.7557 143.785 15.7678C143.52 15.6676 143.327 15.5066 143.136 15.3001L143.128 14.637Z"/>
	<path fill="gray" d="M78.0959 80.2103C78.4136 77.8827 78.7363 75.5728 78.847 73.2238C79.7774 76.8992 80.539 81.0432 82.5329 84.3027L83.1386 86.2194C81.7086 85.9908 80.1626 85.9259 78.7682 85.5822C77.6526 85.3071 77.3322 84.9222 76.7512 83.9782C75.9668 82.4865 74.6939 80.4719 74.8754 78.7241L75.4013 78.3886L76.8162 78.8026C77.1795 79.3268 77.6463 79.7613 78.0959 80.2103Z"/>
	<path fill="#474647" d="M68.7546 50.5907C69.0786 51.3564 67.3884 57.113 67.1448 58.3116C66.3299 59.2127 63.4354 59.7023 62.2193 60.054L61.1468 59.2566L58.1132 56.5248C61.6167 54.4632 65.097 52.3719 68.7546 50.5907Z"/>
	<path fill="#FDFAF5" d="M77.8447 40.7886C80.7757 39.7355 85.2126 37.447 88.2761 38.3517L88.9819 38.9441C88.7406 39.863 88.3672 40.1343 87.5473 40.6031C84.1204 42.5623 79.726 43.5398 76.0529 45.0619C73.1953 46.246 70.5205 48.1112 67.5385 48.9222L66.9026 48.6847C66.5289 47.7875 66.4286 47.5639 66.5479 46.6117C67.0272 46.0791 67.4953 45.5232 68.0047 45.0199C68.6013 45.1013 69.1659 44.6716 69.6653 44.3872Q73.7337 42.5395 77.8447 40.7886Z"/>
	<path fill="#474647" d="M147.674 76.2913C152.647 76.6036 158.207 77.7822 162.688 80.0147C163.545 80.4417 164.006 80.6915 164.312 81.6104L163.232 81.8789C158.377 82.5145 153.6 83.5186 148.713 83.966C148.088 81.4313 147.894 78.8851 147.674 76.2913Z"/>
	<defs>
		<linearGradient id="gradient_0" gradientUnits="userSpaceOnUse" x1="134.79564" y1="37.785591" x2="138.94345" y2="27.593262">
			<stop offset="0" stop-color="#404040"/>
			<stop offset="1" stop-color="#6C6A6B"/>
		</linearGradient>
	</defs>
	<path fill="url(#gradient_0)" d="M128.832 31.292C132.349 30.2146 146.102 28.4498 148.992 29.9226C149.137 29.9961 149.263 30.0815 149.389 30.182C144.083 31.5438 136.363 36.974 131.645 36.9731C130.366 36.9728 128.911 36.2137 127.589 36.0631C128.082 34.482 128.565 32.9314 128.832 31.292Z"/>
	<path fill="gray" d="M119.186 35.7591C121.274 35.8239 122.588 37.3163 124.357 37.3592C125.364 37.3836 126.329 36.7798 127.336 36.7398C129.187 36.6663 131.283 38.5144 132.511 39.7139C135.107 42.248 141.672 51.9781 141.724 55.5445L141.25 55.1299C137.789 50.1652 134.495 45.0149 130.138 40.7761C129.66 41.4619 129.15 42.2704 128.51 42.8134C127.764 43.447 126.774 43.6282 125.822 43.5595C123.994 43.4277 122.36 42.5605 121.171 41.1765C119.739 39.5083 119.032 37.9568 119.186 35.7591Z"/>
	<path fill="gray" d="M133.886 22.5062C136.842 22.0695 139.839 21.5452 142.827 21.4005C146.434 21.2257 150.722 21.0411 153.506 23.5682C153.1 24.4011 153.021 24.8138 152.098 25.1455C150.875 25.5852 149.233 25.0265 148.4 26.3007L149.31 27.446C148.8 27.7813 148.373 27.8244 147.781 27.8875C142.015 27.1113 135.315 27.766 129.663 29.0295C130.971 26.7619 132.256 24.5618 133.886 22.5062Z"/>
	<path fill="gray" d="M75.7203 46.8794C78.4578 45.4867 83.432 42.8311 86.537 42.8639C88.8506 42.8883 90.5124 43.4507 92.9504 43.1241C93.5156 43.0993 94.2021 43.1353 94.7441 42.9952C95.5628 43.1326 96.3577 43.3961 97.1521 43.6331C97.1145 45.2262 86.7257 44.4661 84.8447 46.4439C85.4179 46.9595 86.2964 47.6631 86.4907 48.4284C87.1176 50.8983 86.4408 56.3064 85.095 58.3907C84.412 59.4486 83.7724 60.0139 82.5496 60.277L81.8686 59.7244C81.8957 57.9384 81.9408 56.1404 81.8647 54.3556C81.7923 52.6604 81.8095 50.5668 80.5031 49.3704C77.7816 50.5476 77.4715 55.8694 75.0511 57.8226L74.6318 57.6517C74.4488 54.2285 75.5109 50.3794 75.7203 46.8794Z"/>
	<path fill="#6C6B6C" d="M95.8663 30.3774C95.9134 30.3837 95.9605 30.3907 96.0077 30.3962C99.3034 30.7782 106.172 28.3329 109.576 27.4907C112.347 26.8053 130.315 22.6904 131.464 23.4042C131.392 23.8072 131.43 24.1024 131.07 24.3521C129.66 25.3318 116.179 27.1371 113.445 27.6957C108.291 28.749 103.151 30.4525 98.0986 31.9211C91.097 33.9563 84.0777 35.7406 77.367 38.6405C72.5443 41.249 66.8356 42.5953 61.6976 44.5413C59.8911 44.8755 58.0217 45.6881 56.2739 46.2754C60.5169 43.0553 65.9926 38.0335 71.0655 36.5155C75.4284 38.2752 92.6948 29.7115 95.8663 30.3774Z"/>
	<defs>
		<linearGradient id="gradient_1" gradientUnits="userSpaceOnUse" x1="108.93903" y1="26.064747" x2="108.59132" y2="38.696651">
			<stop offset="0" stop-color="#3B3A3A"/>
			<stop offset="1" stop-color="#575658"/>
		</linearGradient>
	</defs>
	<path fill="url(#gradient_1)" d="M128.635 25.9411C128.921 25.7821 129.296 25.8586 129.614 25.8829C129.604 26.9806 128.237 28.7398 127.656 29.739C120.134 31.2259 112.444 32.5488 105.042 34.5508C101.235 35.5803 94.0812 39.0154 90.8417 39.2517L90.4547 38.7481C89.3529 37.1847 89.15 36.8841 87.3733 36.2094C87.4041 36.159 87.4324 36.107 87.4656 36.0581C88.3281 34.7865 93.2773 34.017 94.7391 33.6104C106.684 30.2881 116.352 27.9124 128.635 25.9411Z"/>
	<defs>
		<linearGradient id="gradient_2" gradientUnits="userSpaceOnUse" x1="57.370293" y1="56.310658" x2="52.376839" y2="50.607822">
			<stop offset="0" stop-color="#404041"/>
			<stop offset="1" stop-color="#626161"/>
		</linearGradient>
	</defs>
	<path fill="url(#gradient_2)" d="M62.149 45.3633C64.2181 44.6402 67.1604 43.1895 69.3288 43.3996L69.6653 44.3872C69.1659 44.6716 68.6013 45.1013 68.0047 45.0199C67.0622 45.0308 66.5463 45.0896 65.7996 45.687C64.9806 47.0906 66.378 49.2235 65.464 50.2945C62.915 53.2815 47.7577 60.3323 43.7993 61.9552L42.4049 61.5193C42.6347 60.6223 42.9001 59.6742 43.2877 58.8329C44.9487 55.2275 52.4973 49.6674 56.068 47.7813C57.9762 46.7733 60.1203 46.092 62.149 45.3633Z"/>
	<defs>
		<linearGradient id="gradient_3" gradientUnits="userSpaceOnUse" x1="147.23721" y1="37.485714" x2="145.20132" y2="27.795044">
			<stop offset="0" stop-color="#3F3D3F"/>
			<stop offset="1" stop-color="#616161"/>
		</linearGradient>
	</defs>
	<path fill="url(#gradient_3)" d="M153.506 23.5682C154.226 24.4556 154.575 24.9217 155.769 25.0497C157.63 25.2491 159.717 24.9278 161.026 26.5324C161.287 26.8523 161.329 27.4316 161.423 27.8366C160.605 31.2766 153.985 34.633 151.01 36.4614C146.468 39.2525 141.985 40.8723 136.872 42.2423L137.923 40.3027Q136.83 40.5545 135.731 40.7763C134.245 40.4718 133.007 38.9164 131.958 37.878C137.532 36.3662 145.091 34.3031 149.389 30.182C151.248 29.9552 153.548 30.3449 155.439 30.4567C152.91 29.4823 150.385 28.6393 147.781 27.8875C148.373 27.8244 148.8 27.7813 149.31 27.446L148.4 26.3007C149.233 25.0265 150.875 25.5852 152.098 25.1455C153.021 24.8138 153.1 24.4011 153.506 23.5682ZM153.506 23.5682C153.1 24.4011 153.021 24.8138 152.098 25.1455C150.875 25.5852 149.233 25.0265 148.4 26.3007C149.887 26.4805 151.061 26.0957 152.517 25.9436C155.395 25.6431 158.231 26.1538 160.99 26.9457C156.427 32.1474 144.781 39.0725 137.923 40.3027L136.872 42.2423C141.985 40.8723 146.468 39.2525 151.01 36.4614C153.985 34.633 160.605 31.2766 161.423 27.8366C161.329 27.4316 161.287 26.8523 161.026 26.5324C159.717 24.9278 157.63 25.2491 155.769 25.0497C154.575 24.9217 154.226 24.4556 153.506 23.5682Z"/>
	<path d="M153.506 23.5682C154.226 24.4556 154.575 24.9217 155.769 25.0497C157.63 25.2491 159.717 24.9278 161.026 26.5324C161.287 26.8523 161.329 27.4316 161.423 27.8366C160.605 31.2766 153.985 34.633 151.01 36.4614C146.468 39.2525 141.985 40.8723 136.872 42.2423L137.923 40.3027C144.781 39.0725 156.427 32.1474 160.99 26.9457C158.231 26.1538 155.395 25.6431 152.517 25.9436C151.061 26.0957 149.887 26.4805 148.4 26.3007C149.233 25.0265 150.875 25.5852 152.098 25.1455C153.021 24.8138 153.1 24.4011 153.506 23.5682Z"/>
	<defs>
		<linearGradient id="gradient_4" gradientUnits="userSpaceOnUse" x1="137.13817" y1="47.204594" x2="120.65737" y2="68.782372">
			<stop offset="0" stop-color="#101010"/>
			<stop offset="1" stop-color="#2F2C2E"/>
		</linearGradient>
	</defs>
	<path fill="url(#gradient_4)" d="M120.812 32.6079C121.449 32.6064 121.441 32.6411 121.917 33.0739C121.143 34.5775 117.877 35.0003 117.477 36.3928C117.175 37.4468 117.59 38.5129 118.093 39.4375C119.45 41.9285 121.833 43.9811 124.579 44.7586C127.06 45.4613 128.685 44.7072 130.845 43.4938C135.086 48.4706 137.464 56.841 143.806 59.1354C145.533 67.5244 145.98 76.0734 147.445 84.4945C144.838 84.6072 142.261 84.8609 139.668 85.141L139.963 79.8242C140.19 74.7598 136.954 64.4041 135.041 59.5723C133.984 56.9021 131.699 51.6701 128.989 50.5017C128.661 50.5425 128.207 50.5226 127.962 50.7424C126.122 52.3896 126.355 55.976 126.2 58.2519C122.203 50.5751 115.236 40.3314 108.037 35.5895C112.147 34.2971 116.599 33.5681 120.812 32.6079Z"/>
	<path fill="gray" d="M70.4317 25.609C79.1341 21.3324 91.6832 16.2212 101.369 15.3992C102.854 15.2731 103.946 15.3271 105.096 16.3037C105.846 17.8098 105.697 19.6994 105.722 21.3497C110.323 21.4708 115.038 20.4441 119.609 19.9441C124.824 19.3735 130.046 19.4333 135.274 19.7576L132.355 22.3308C120.42 22.6879 107.524 27.8572 95.8663 30.3774C92.6948 29.7115 75.4284 38.2752 71.0655 36.5155C71.923 35.8949 73.0746 35.2543 73.5637 34.292L72.3644 34.3001L72.461 34.1225C73.2516 32.2738 71.0977 27.5739 70.4317 25.609ZM99.922 18.0249C91.3753 20.793 83.1977 23.9381 74.879 27.3074C74.5762 28.4105 74.4989 29.1991 74.6454 30.3383C75.3929 30.8236 75.643 30.7105 76.5326 30.629C85.2625 27.6399 93.4261 23.7898 102.386 21.3207Q101.544 19.7771 100.732 18.2179L99.922 18.0249Z"/>
	<path d="M99.922 18.0249L100.732 18.2179Q101.544 19.7771 102.386 21.3207C93.4261 23.7898 85.2625 27.6399 76.5326 30.629C75.643 30.7105 75.3929 30.8236 74.6454 30.3383C74.4989 29.1991 74.5762 28.4105 74.879 27.3074C83.1977 23.9381 91.3753 20.793 99.922 18.0249ZM94.8916 21.3425C90.6286 22.7981 78.4102 25.6229 75.772 28.3949L75.6837 29.1916C75.9364 29.4291 76.2061 29.7442 76.5272 29.8817C77.7812 29.4055 95.279 21.4053 95.2826 21.4015L94.8916 21.3425Z"/>
	<path fill="#1A191A" d="M92.9504 43.1241C92.174 42.6396 91.2614 42.3205 90.9842 41.4332C96.2485 38.7351 102.454 37.0732 108.067 35.2155C102.85 40.8452 99.141 48.0515 96.3931 55.1696C95.0626 58.616 94.4065 62.9614 91.9631 65.7615L90.9894 64.0272C91.4428 62.7858 91.177 62.1717 90.6251 60.9866Q90.0285 59.7224 89.4045 58.4714C87.1169 67.776 88.4081 77.6812 89.068 87.1365Q86.0996 86.7018 83.1386 86.2194L82.5329 84.3027C82.7089 83.9481 83.0161 83.4996 83.049 83.1094C83.1367 82.0711 80.5729 73.4499 79.8723 72.6626C77.478 72.1784 77.1918 76.0684 73.4102 77.2564C72.6697 78.1167 72.7778 78.6188 72.7079 79.712L72.366 79.9715Q68.4274 76.008 64.5893 71.9472C64.4953 70.754 65.6653 71.0134 66.2318 70.0046C65.7132 66.3166 58.0541 64.3761 56.5308 60.5832C56.1572 59.6528 56.2886 59.3633 56.648 58.5002C60.2721 58.6864 62.9994 65.2442 67.0141 65.597L67.3369 65.2037C66.7124 64.1332 66.0741 63.1013 65.3489 62.0956C66.2268 61.3342 67.4886 61.3386 68.6262 61.1404C69.3458 58.1158 69.7316 55.0192 70.464 51.9863C70.8186 50.5178 71.0799 49.3288 72.4871 48.4994C72.8752 48.2707 73.0767 48.4049 73.4908 48.5054C75.0683 50.8156 71.7472 56.4426 72.1551 59.3423C72.1997 59.6596 72.5458 59.8247 72.7937 60.0171C74.8963 60.1061 77.2339 57.8209 78.7954 56.5599C79.0249 58.2469 79.1252 60.1777 80.1825 61.5688C80.7543 61.9936 81.2499 62.2627 81.9766 62.2939C83.277 62.3498 84.5103 61.9425 85.4516 61.04C88.4721 58.144 87.9282 51.6328 88.0098 47.707C91.12 47.4788 95.5262 47.295 98.1029 45.4052C98.9169 44.8082 99.1348 44.3918 99.2734 43.4234C98.7401 42.712 98.4915 42.3441 97.5448 42.1816C96.4439 41.9926 95.6083 42.3972 94.7441 42.9952C94.2021 43.1353 93.5156 43.0993 92.9504 43.1241Z"/>
	<path fill="gray" d="M59.019 79.8509C62.0041 80.3682 65.3642 77.6928 68.0547 78.4854C67.1344 79.7735 64.4246 79.5126 63.1803 80.9004C62.6168 81.5288 62.7067 81.7797 62.7337 82.5764C63.0075 82.9956 63.3346 83.4023 63.742 83.6996C67.3115 86.3037 74.6544 86.8339 78.962 87.4596C85.9951 88.481 93.0981 89.7503 100.205 90.0918C109.993 90.5621 123.056 89.1838 132.987 88.2979C137.961 87.8543 143.039 87.7101 147.976 86.9976C153.203 86.2432 158.355 84.854 163.587 84.0301C164.932 83.8184 165.815 83.6162 166.633 82.4901L166.437 81.6158C162.055 75.8819 153.654 76.9255 147.857 74.1823L147.811 73.6726L148.171 73.2958L148.172 74.1042C151.443 72.9312 166.673 78.3374 170.186 79.8706C171.522 83.8145 169.439 89.624 169.691 93.8536C169.439 95.5672 169.334 97.7473 167.897 98.9213C167.298 99.4105 166.414 99.6616 165.648 99.5595C165.437 99.5315 165.127 99.5146 165.001 99.3376C164.102 98.0775 164.666 95.0091 164.97 93.5676L165 93.4294C163.918 93.2444 162.795 93.5821 161.731 93.7839C155.618 94.9434 149.756 95.3717 143.549 95.5645C143.746 98.4407 143.724 101.252 143.61 104.132C135.257 104.223 127.069 105.682 118.648 105.602L117.806 99.391Q104.887 98.9353 92.0379 97.5218Q79.1886 96.1082 66.4797 93.7445C66.3566 95.2504 66.4274 97.7831 65.711 99.0963C65.231 99.9761 64.8912 100.056 63.9938 100.32C60.2422 98.1347 61.6787 85.0839 59.2514 80.8779L59.019 79.8509Z"/>
	<path fill="gray" d="M108.496 37.286C116.476 43.3903 121.927 55.1006 127.052 63.5761C128.223 59.2679 128.454 54.9571 128.7 50.5183C132.49 56.3353 136.151 65.639 136.872 72.5315Q137.366 75.6309 137.746 78.7464C138.013 80.8249 138.304 82.9036 138.464 84.9937C126.344 87.0697 102.856 89.4954 91.1105 87.1672C90.9132 85.4906 90.6386 83.7813 90.6235 82.093C89.9796 79.1897 89.0753 66.4046 90.1445 63.9008L90.9894 64.0272L91.9631 65.7615C92.6814 66.429 92.8873 66.8483 93.9089 66.8453C96.0025 64.0602 96.4675 59.1562 97.8371 55.8657C100.569 49.3012 104.296 43.0154 108.496 37.286Z"/>
	<path d="M104.013 63.2123Q104.498 70.8231 104.51 78.4493C104.237 80.1849 103.612 81.414 102.495 82.7707C101.717 82.3998 101.468 82.0271 101.096 81.2607C101.242 79.0665 100.692 76.5307 100.418 74.3333C100.265 72.0388 100.038 69.7183 100.001 67.4203C101.492 66.0915 102.77 64.7846 104.013 63.2123Z"/>
	<path fill="#FDFAF5" d="M126.02 67.7405L126.163 67.6035C127.157 66.6536 128.823 64.843 130.309 64.8773C130.664 65.9268 129.412 68.8968 129.496 70.6168C131.415 70.2315 134.151 70.1964 135.866 71.2818C136.117 71.4405 136.291 71.6426 136.46 71.8813C136.611 72.0943 136.747 72.3013 136.872 72.5315Q137.366 75.6309 137.746 78.7464C138.013 80.8249 138.304 82.9036 138.464 84.9937C126.344 87.0697 102.856 89.4954 91.1105 87.1672C90.9132 85.4906 90.6386 83.7813 90.6235 82.093C90.7578 80.0771 90.7128 78.046 90.7111 76.0263C92.9079 74.9188 96.3344 73.7268 98.7902 73.6309C99.7091 73.595 99.769 73.7346 100.418 74.3333C100.692 76.5307 101.242 79.0665 101.096 81.2607C101.468 82.0271 101.717 82.3998 102.495 82.7707C103.612 81.414 104.237 80.1849 104.51 78.4493L104.855 76.7428C104.815 75.0723 104.918 73.3839 104.969 71.7132C111.514 69.873 118.648 69.2445 125.428 69.2747C125.401 71.4716 125.339 73.6054 125.791 75.7697L126.02 67.7405Z"/>
	<path fill="#FF9A96" d="M128.316 83.1239C129.592 80.7547 129.317 77.769 129.447 75.127L129.591 76.8851C129.578 78.2157 129.304 79.1486 130.124 80.2248C131.745 81.16 133.866 80.6027 135.198 81.6142L135.282 82.787C133.41 84.1033 130.48 82.6771 128.316 83.1239Z"/>
	<path fill="#FF9A96" d="M101.096 81.2607C101.468 82.0271 101.717 82.3998 102.495 82.7707C102.653 83.2681 102.554 83.5546 102.381 84.0241C102.059 84.2501 101.697 84.4438 101.316 84.5473C98.5235 85.3049 94.3357 84.8338 91.8158 83.4261L92.3452 82.6681C93.9129 82.292 95.6623 82.6625 97.2438 82.8601C98.4417 82.2104 99.7145 81.3629 101.096 81.2607Z"/>
	<path d="M126.02 67.7405L126.163 67.6035C127.157 66.6536 128.823 64.843 130.309 64.8773C130.664 65.9268 129.412 68.8968 129.496 70.6168C129.481 72.1113 129.534 73.6371 129.447 75.127C129.317 77.769 129.592 80.7547 128.316 83.1239C128.051 83.0157 127.853 82.9001 127.629 82.7215C125.954 81.3841 126.063 78.4714 125.847 76.4668L125.791 75.7697L126.02 67.7405Z"/>
	<path d="M59.2514 80.8779C61.6787 85.0839 60.2422 98.1347 63.9938 100.32C64.8912 100.056 65.231 99.9761 65.711 99.0963C66.4274 97.7831 66.3566 95.2504 66.4797 93.7445Q79.1886 96.1082 92.0379 97.5218Q104.887 98.9354 117.806 99.391L118.648 105.602C127.069 105.682 135.257 104.223 143.61 104.132C143.724 101.252 143.746 98.4407 143.549 95.5645C149.756 95.3717 155.618 94.9434 161.731 93.7839C162.795 93.5821 163.918 93.2444 165 93.4294L164.97 93.5676C164.666 95.0091 164.102 98.0775 165.001 99.3376C165.127 99.5146 165.437 99.5315 165.648 99.5595C166.414 99.6616 167.298 99.4105 167.897 98.9213C169.334 97.7473 169.439 95.5672 169.691 93.8536C170.044 95.2826 169.843 96.9754 170.338 98.2833C168.849 101.373 169.767 104.713 168.702 107.753L168.064 107.487C166.701 109.72 167.639 112.876 166.203 115.024C166.166 115.079 166.131 115.135 166.093 115.19C166.02 115.297 165.943 115.392 165.856 115.488C162.116 131.568 160.2 148.196 157.634 164.5C156.978 168.67 155.088 175.371 155.403 179.221C155.557 180.927 155.071 183.711 155.868 185.14L155.821 185.333C155.509 185.818 155.197 186.492 154.621 186.682C146.997 194.122 129.179 195.154 118.925 195.03C112.834 194.956 106.555 194.34 100.562 193.282L100.257 193.235C98.3566 193.524 96.2955 193.299 94.4326 192.858L90.4664 193.251C89.2417 193.061 87.9221 192.473 86.7411 192.073C83.4682 191.255 80.3846 190.181 77.2404 188.963C75.7063 187.049 74.5083 184.928 72.8662 183.078C68.5756 156.29 67.5807 128.924 62.7328 102.212L60.7573 100.076C60.0948 93.7212 59.2401 87.2744 59.2514 80.8779ZM86.7411 192.073C87.9221 192.473 89.2417 193.061 90.4664 193.251L94.4326 192.858C91.9243 191.95 89.3648 191.889 86.7411 192.073Z"/>
	<path d="M86.7411 192.073C89.3648 191.889 91.9243 191.95 94.4326 192.858L90.4664 193.251C89.2417 193.061 87.9221 192.473 86.7411 192.073Z"/>
	<path fill="gray" d="M100.257 193.235C95.5119 192.101 79.4898 189.637 77.1513 186.351L77.4623 186.023C97.5277 193.506 119.663 195.772 140.606 191.275C144.664 190.404 151.241 186.636 154.621 186.682C146.997 194.122 129.179 195.154 118.925 195.03C112.834 194.956 106.555 194.34 100.562 193.282L100.257 193.235Z"/>
	<path fill="gray" d="M142.138 152.431C142.609 155.933 141.883 160.115 141.657 163.689C141.119 172.188 140.462 180.656 140.13 189.17C137.734 189.764 129.754 192.093 127.776 190.908C127.567 185.823 127.064 180.752 126.618 175.684C130.024 176.233 133.728 176.258 137.173 176.081C137.866 168.252 140.38 160.096 142.138 152.431Z"/>
	<path fill="gray" d="M74.2066 104.606C75.8916 104.986 77.5403 105.182 79.2583 105.339C81.2263 118.734 82.5236 132.189 84.2083 145.615C85.9869 159.789 88.1422 173.888 89.8215 188.084C86.1847 187.977 81.7328 186.428 78.3454 185.134C77.6259 179.796 77.4691 174.294 77.1275 168.914C75.7692 147.522 76.2307 125.927 74.2066 104.606Z"/>
	<path fill="gray" d="M155.899 103.132L156.434 103.131C157.038 103.992 156.934 104.724 156.903 105.762C156.652 114.302 155.718 122.995 155.127 131.529C153.879 149.578 152.669 167.548 152.09 185.637Q147.36 187.195 142.539 188.444C142.628 179.297 143.554 169.998 144.096 160.859C144.612 152.173 144.723 143.192 145.916 134.578C146.482 130.489 148.17 126.579 148.788 122.468C148.315 121.995 147.882 121.503 147.454 120.987C147.349 115.407 148.461 109.394 149.068 103.833C151.342 103.721 153.635 103.384 155.899 103.132Z"/>
	<path fill="gray" d="M106.997 106.556L117.162 107.033C118.104 117.327 115.624 114.643 114.009 122.739C110.803 138.808 107.138 154.828 107.218 171.298C113.121 172.737 118.694 175.231 124.807 175.815Q125.42 180.756 126.158 185.679L126.939 191.427C119.023 191.546 111.114 191.627 103.232 190.799C103.397 178.609 103.323 166.371 104.142 154.204C105.209 138.355 107.271 122.447 106.997 106.556Z"/>
	<path fill="gray" d="M144.772 96.9867C151.191 97.1229 156.835 96.453 163.104 95.0349C162.987 97.2395 163 99.4696 162.951 101.678C164.654 101.564 166.354 101.319 168.047 101.112Q166.854 108.285 165.856 115.488C162.116 131.568 160.2 148.196 157.634 164.5C156.978 168.67 155.088 175.371 155.403 179.221C155.128 181.015 155.04 183.359 154.139 184.942L153.741 184.92C153.112 181.976 154.263 175.886 154.411 172.581C155.074 157.793 156.294 143.035 157.107 128.253C157.597 119.33 158.692 109.441 157.165 100.593C154.098 101.324 151.023 101.705 147.897 102.085C146.502 103.427 145.607 117.56 145.375 120.343C136.864 118.022 128.352 116.243 119.553 115.51C118.923 112.71 118.777 109.837 118.702 106.978C123.606 107.347 141.311 107.437 145.118 104.528C145.829 103.049 144.945 98.7502 144.772 96.9867Z"/>
	<path fill="#FDFAF5" d="M117.187 116.89C127.499 116.523 137.825 122.362 147.702 122.628C142.415 139.015 139.186 155.98 136.096 172.898C136.036 173.338 135.814 173.777 135.648 174.188C131.122 175.988 112.723 171.222 108.018 169.627C108.249 163.295 114.838 120.389 117.187 116.89Z"/>
	<path d="M116.583 157.402C117.438 157.486 117.891 157.579 118.513 158.189C118.605 158.906 118.615 159.593 118.599 160.314C119.862 161.707 130.578 163.529 133.679 164.786C131.656 164.828 129.628 164.736 127.606 164.677C124.551 164.391 121.627 163.482 118.704 162.599C118.681 165.311 118.671 167.948 118.166 170.622C116.97 166.622 116.291 161.557 116.583 157.402Z"/>
	<path d="M123.63 125.179C125.768 124.904 137.639 126.99 139.605 128.244L139.704 128.778C137.256 130.333 133.615 127.467 131.324 128.435C131.211 129.139 131.292 129.532 131.561 130.19C133.048 131.401 135.556 131.538 137.375 132.26L137.554 133.091C137.387 133.219 137.222 133.324 137.024 133.402C135.389 134.043 125.673 132.21 123.741 131.392C123.208 131.167 123.105 131.177 122.883 130.636C124.91 129.117 127.466 130.908 129.385 130.058C129.719 129.183 129.687 129.006 129.509 128.077C128.721 127.121 126.799 127.062 125.629 126.718C124.545 126.398 124.151 126.167 123.63 125.179Z"/>
	<path d="M122.484 134.587C123.727 135.526 123.767 136.918 124.192 138.389C126.1 139.992 128.079 135.706 131.216 135.668C133.231 135.644 134.929 136.894 136.297 138.253C137.268 139.217 137.949 140.123 137.954 141.552C137.78 142.151 137.55 142.62 137.085 143.05C135.612 144.411 134.356 144.376 132.457 144.288L131.864 143.043C132.758 141.828 134.69 141.664 136.123 141.304C134.394 139.634 133.016 138.123 130.511 137.942C129.39 138.414 129.177 138.901 128.48 139.842C127.758 140.814 127.165 141.664 125.856 141.813C124.799 141.934 123.437 141.502 122.615 140.839C121.707 140.106 121.228 139.006 121.141 137.862C121.031 136.416 121.588 135.614 122.484 134.587Z"/>
	<path d="M123.69 144.359C126.85 144.507 133.547 144.426 136.044 146.626L135.579 147.055C133.769 147.594 132.013 147.145 130.208 146.809C130.029 148.241 129.572 149.592 130.145 150.934L131.209 151.241C132.018 151.601 132.656 151.734 133.148 152.498C131.724 153.097 129.906 152.439 128.484 151.98C126.022 151.187 120.473 149.139 119.329 146.76C119.041 146.162 119.218 145.933 119.435 145.36C120.553 144.414 122.288 144.468 123.69 144.359Z"/>
	<path fill="#FDFAF5" d="M121.068 146.192C122.683 146.14 125.169 145.766 126.682 146.195C127.587 146.451 127.897 146.724 128.354 147.509L127.772 149.525L127.176 149.681C124.996 148.962 122.81 147.679 121.068 146.192Z"/>
	<path d="M121.36 150.525C122.323 150.608 123.188 150.785 124.081 151.166C126.675 152.27 127.624 154.653 128.621 157.087C129.682 156.237 130.835 155.194 132.201 154.938L132.684 155.393C132.258 156.619 130.841 157.508 129.928 158.468C130.327 159.281 131.557 159.526 132.391 159.874C132.671 160.139 132.63 160.34 132.683 160.713C131.958 161.117 131.272 161.046 130.489 160.908C127.407 160.366 120.848 158.539 119.053 155.806C118.71 155.284 118.461 154.526 118.619 153.899C118.993 152.422 120.075 151.255 121.36 150.525Z"/>
	<path fill="#FDFAF5" d="M121.616 152.247C122.958 152.62 124.003 153.4 124.85 154.488C125.507 155.333 126.116 156.523 125.969 157.613C124.445 157.065 122.251 156.648 121.307 155.263C120.898 154.166 121.271 153.299 121.616 152.247Z"/>
	<path fill="gray" d="M68.16 95.7064C79.5643 98.5399 105.123 101.968 116.423 100.665L116.692 105.506C113.132 104.822 109.266 104.909 105.654 104.972C106.139 120.73 103.564 136.561 102.321 152.255C101.315 164.965 101.461 177.67 101.5 190.408C98.193 189.786 94.875 189.322 91.593 188.556C90.5446 181.242 90.1091 173.751 89.2652 166.402C88.0293 155.64 86.4352 144.912 85.1143 134.157C83.9614 124.206 82.3748 114.235 80.8324 104.34C78.5782 103.599 75.8649 102.308 73.4909 103.01C72.8758 103.65 72.6734 103.975 72.6611 104.909C72.6147 108.453 73.4801 112.225 73.5387 115.866C73.8026 132.277 73.9247 148.786 74.9022 165.174C75.1217 168.855 77.4644 181.38 76.426 183.87L75.8168 183.899C75.057 183.177 74.6222 182.507 74.4303 181.462C73.8043 178.054 73.7279 174.325 73.3906 170.855Q72.5449 162.657 71.4899 154.483C69.3514 137.077 66.7169 119.702 64.6634 102.3C65.2814 101.072 66.6946 101.673 67.6478 100.624C68.5555 99.6253 68.1999 97.0091 68.16 95.7064Z"/>
</svg>