<svg xmlns="http://www.w3.org/2000/svg" xmlns:xlink="http://www.w3.org/1999/xlink" viewBox="62.7 3.57 2077.05 503.09">
	<path fill="#7F7F7F" d="M821.561 93.4999C831.752 93.7536 840.939 95.693 848.546 102.986C855.198 109.361 858.706 118.315 858.801 127.466C858.895 136.553 855.621 145.571 849.185 152.074C841.658 159.681 832.121 161.957 821.75 162.05C813.132 162.336 803.959 159.609 797.353 153.989C790.444 148.111 786.518 139.575 785.848 130.593C785.16 121.369 787.9 112.049 794.022 105.039C801.488 96.4902 810.757 94.2352 821.561 93.4999Z"/>
	<path fill="#7F7F7F" d="M1112.31 241.499C1125.22 239.723 1139.92 240.996 1152.99 240.998L1235.76 241.036C1236.61 242.432 1237.13 243.791 1237.33 245.425C1238.19 252.332 1238.9 290.727 1236.96 295.367C1236.64 296.122 1235.52 297.199 1234.98 297.881L1111.85 297.881C1112.02 297.627 1112.16 297.376 1112.29 297.098C1114.67 291.814 1114.39 246.59 1112.31 241.499Z"/>
	<path fill="#7F7F7F" d="M789.808 180.499C810.612 179.454 831.896 180.29 852.749 180.297Q853.28 181.577 853.569 182.932C855.772 193.281 854.033 235.453 854.038 248.482L854.036 343.212C854.031 359.648 854.592 376.321 853.899 392.732C853.805 394.967 853.495 396.588 852.245 398.48C842.506 400.496 802.459 398.761 789.273 398.703C790.28 396.54 790.514 394.513 790.593 392.156C792.184 344.942 790.717 297.179 790.703 249.911C790.699 235.141 792.699 191.989 789.808 180.499Z"/>
	<path fill="#7F7F7F" d="M1358.2 174.5C1377.09 173.655 1397.25 175.794 1414.56 183.797Q1416.37 184.641 1418.13 185.572Q1419.89 186.503 1421.61 187.517Q1423.33 188.532 1424.99 189.628Q1426.66 190.724 1428.27 191.899Q1429.88 193.074 1431.43 194.326Q1432.99 195.577 1434.48 196.902Q1435.97 198.227 1437.39 199.622Q1438.82 201.018 1440.17 202.48Q1441.53 203.942 1442.81 205.468Q1444.1 206.994 1445.3 208.58Q1446.51 210.166 1447.64 211.809Q1448.77 213.451 1449.83 215.147Q1450.88 216.842 1451.84 218.586Q1452.81 220.329 1453.69 222.118Q1454.57 223.906 1455.37 225.735Q1456.16 227.564 1456.87 229.429C1459.76 237.321 1465.06 256.204 1461.47 263.931L1398.78 263.931C1399.2 263.31 1399.5 262.659 1399.71 261.937C1401.38 256.159 1400.69 246.818 1397.79 241.604C1393.81 234.425 1386.63 229.534 1378.86 227.286C1368.03 224.156 1354.81 224.975 1344.89 230.554C1334.85 236.206 1328.59 246.579 1325.6 257.463C1319.52 279.517 1319.32 314.232 1331.04 334.628C1336.01 343.28 1343.65 349.525 1353.34 352.098C1363.76 354.862 1376.94 354.183 1386.37 348.68C1392.39 345.163 1397.75 339.056 1399.49 332.204C1400.65 327.633 1401.13 319.495 1398.61 315.359C1398.57 315.294 1398.53 315.229 1398.49 315.164L1433.75 315.164L1460.36 315.164C1461.31 316.624 1461.78 318.06 1461.94 319.785C1463.64 338.501 1455.48 358.363 1443.7 372.613C1427.34 392.42 1404.76 401.67 1379.57 404.002C1349.65 406.772 1318.73 400.967 1295.21 381.318C1272.75 362.555 1261.02 335.665 1258.43 306.88C1255.38 272.992 1260.27 236.858 1282.75 210.026C1302.49 186.467 1328.32 177.149 1358.2 174.5Z"/>
	<path fill="#7F7F7F" d="M2054.33 176.5C2067.49 175.395 2081.76 176.958 2094.19 181.509C2110.24 187.388 2123.23 198.524 2130.46 214.119C2134.96 223.818 2137.23 234.518 2138.31 245.112C2139.83 260.159 2140.76 390.594 2137.81 398.703L2074.42 398.703C2074.82 398 2075.14 397.294 2075.37 396.515C2077.33 389.835 2076.62 272.1 2075.68 258.574C2075.27 252.711 2074.37 243.81 2071.47 238.735C2069.04 234.501 2062.59 231.01 2058.05 229.756C2044.56 226.032 2032.22 230.862 2020.7 237.499C2017.73 242.872 2012.18 248.089 2008.39 253.089C2008.52 253.283 2008.7 253.529 2008.79 253.754C2010.56 258.034 2009.88 380.122 2009.21 393.269C2009.12 395.167 2008.63 396.949 2007.92 398.703L1944.46 398.703C1944.84 398.142 1945.18 397.571 1945.42 396.935C1947.1 392.522 1946.81 206.432 1945.98 185.934C1945.9 183.875 1945.48 182.156 1944.6 180.297L2004.45 180.297C2004.49 180.373 2004.53 180.448 2004.57 180.525C2006.94 185.113 2007.03 191.446 2005.54 196.283C2009.55 194.621 2013.37 191.289 2017.17 189.082C2029.36 181.991 2040.42 178.534 2054.33 176.5Z"/>
	<path fill="#7F7F7F" d="M1003.7 176.499C1018.11 175.205 1034.13 177.272 1047.45 183.021C1063.49 189.941 1075.28 201.926 1081.68 218.185C1085.37 227.57 1087.17 237.661 1088.02 247.676C1089.3 262.868 1090.34 391.895 1087.37 398.703L1023.71 398.703C1024.18 398.001 1024.56 397.297 1024.83 396.489C1026.23 392.204 1026.13 268.833 1025.16 256.243C1024.74 250.837 1023.63 245.396 1021.01 240.6C1017.97 235.028 1013.04 231.057 1006.92 229.335C994.616 225.871 982.033 230.77 971.392 236.678C966.86 241.904 962.927 248.036 958.228 252.962C960.252 263.855 960.06 393.231 957.465 398.703L894.233 398.703C894.94 396.973 895.431 395.2 895.536 393.327C897.374 360.448 895.723 324.996 895.724 291.872C895.725 256.751 897.355 220.743 895.539 185.711C895.441 183.822 894.954 182.043 894.244 180.297L953.961 180.297C954.291 180.765 954.574 181.244 954.797 181.772C956.721 186.311 956.47 192.169 954.625 196.655C958.698 194.911 962.513 191.514 966.377 189.242C978.627 182.039 989.702 178.557 1003.7 176.499Z"/>
	<path fill="#7F7F7F" d="M1485.42 87.4991C1500.25 84.9281 1531.86 86.8884 1548.28 86.9283C1548.33 86.9971 1548.38 87.0652 1548.42 87.1348C1549.28 88.5174 1549.8 90.0101 1549.94 91.6345C1551.03 104.511 1551.24 187.827 1549.18 196.931C1557.56 192.621 1564.45 186.084 1573.29 182.254C1592.34 174.005 1618.18 174.511 1637.3 182.165Q1638.74 182.725 1640.15 183.355Q1641.55 183.986 1642.93 184.687Q1644.3 185.387 1645.64 186.156Q1646.98 186.924 1648.28 187.759Q1649.57 188.593 1650.83 189.492Q1652.08 190.39 1653.29 191.35Q1654.5 192.31 1655.66 193.33Q1656.81 194.349 1657.92 195.425Q1659.02 196.501 1660.07 197.631Q1661.12 198.761 1662.12 199.943Q1663.11 201.124 1664.04 202.353Q1664.97 203.583 1665.84 204.857Q1666.71 206.132 1667.52 207.448Q1668.32 208.765 1669.06 210.12Q1669.79 211.475 1670.46 212.866Q1671.13 214.256 1671.73 215.678C1675.76 225.152 1677.81 235.414 1678.71 245.637C1679.92 259.315 1681.03 391.01 1677.93 398.703L1614.48 398.703C1615.11 397.731 1615.61 396.625 1615.83 395.48C1617.48 386.707 1616.82 328.436 1615.91 317.919C1615.77 316.259 1615.24 314.893 1614.33 313.5Q1614.95 312.549 1615.36 311.488C1617.4 306.202 1616.54 262.301 1615.8 255.18C1615.35 250.86 1614.39 246.426 1612.56 242.469C1609.91 236.742 1605.3 232.679 1599.37 230.546C1590.01 227.179 1578.71 228.164 1569.83 232.467C1562.02 236.249 1554.59 243.215 1551.68 251.531C1547.7 262.864 1550.22 349.162 1550.32 368.724C1550.36 377.425 1551.82 390.303 1548.92 398.424C1548.89 398.517 1548.85 398.61 1548.82 398.703L1485.45 398.703C1485.86 397.993 1486.21 397.225 1486.44 396.436C1488.69 388.597 1487 331.926 1487 317.947C1487.03 243.699 1488.4 169.155 1486.92 94.938C1486.86 92.2011 1486.83 89.9479 1485.42 87.4991Z"/>
	<path fill="#7F7F7F" d="M1813.5 174.5C1831.7 174.827 1849.76 176.776 1866.38 184.749C1882.5 192.483 1894.55 204.995 1900.47 221.973C1911.01 252.186 1902.32 317.108 1904.99 351.837C1905.77 362.027 1914.41 390.378 1912.9 396.341C1912.7 397.165 1912.4 397.939 1912.04 398.703C1892.28 398.743 1872.44 399.142 1852.7 398.515C1850.58 392.771 1848.7 385.622 1845.05 380.719C1844.75 382.146 1843.43 383.211 1842.4 384.173C1827.05 398.568 1802.84 402.863 1782.48 402.259C1761 401.623 1738.61 394.893 1724.25 378.133C1719.87 373.03 1716.87 366.533 1712.37 361.794L1712.2 361.621C1712.8 359.922 1708.15 335.129 1708.16 329.46C1708.2 312.784 1714.37 296.234 1726.29 284.403C1755.89 255.003 1801.76 257.36 1840.2 257.49C1840.31 257.323 1840.41 257.156 1840.51 256.984C1842.8 252.902 1842.19 244.683 1840.94 240.286C1839.28 234.456 1834.7 229.517 1829.45 226.657C1820.53 221.794 1807.22 221.494 1797.6 224.405C1777.6 230.454 1786.37 241.307 1780.49 251.953C1780.45 252.025 1780.41 252.096 1780.37 252.168L1717.58 252.168C1722.4 245.362 1715.44 224.811 1735.44 203.368C1755.74 181.61 1784.95 175.476 1813.5 174.5ZM1801.21 302.5C1791.45 304.19 1781.85 306.077 1775.73 314.761C1771.87 320.229 1770.75 327.084 1771.9 333.615C1773.03 340.087 1776.51 345.985 1781.93 349.777C1789.38 354.999 1799.72 355.168 1808.45 353.619C1809.07 353.508 1809.64 353.26 1810.2 352.969Q1811.18 352.793 1812.15 352.568Q1813.12 352.343 1814.08 352.069Q1815.04 351.795 1815.99 351.473Q1816.93 351.151 1817.86 350.782Q1818.78 350.412 1819.69 349.997Q1820.6 349.581 1821.48 349.12Q1822.36 348.659 1823.22 348.154Q1824.08 347.649 1824.92 347.101Q1825.75 346.554 1826.56 345.964Q1827.36 345.375 1828.13 344.746Q1828.91 344.117 1829.65 343.45Q1830.39 342.782 1831.1 342.078Q1831.8 341.374 1832.47 340.636Q1833.14 339.897 1833.77 339.125Q1834.41 338.354 1835 337.551Q1835.59 336.748 1836.14 335.917C1842.32 326.773 1843.6 315.319 1841.57 304.607C1841.39 303.658 1840.92 302.798 1840.39 302C1827.42 301.988 1814.13 301.446 1801.21 302.5Z"/>
	<path fill="#7F7F7F" d="M535.943 102.464C548.025 99.8903 569.189 101.756 582.129 101.769C609.497 101.797 638.28 100.077 665.487 102.736C677.203 103.881 688.927 106.17 699.983 110.274C718.55 117.166 734.495 128.88 742.87 147.244C751.54 166.255 752.681 191.461 745.293 211.059C740.557 223.622 730.778 236.654 718.344 242.3C727.136 245.408 735.163 252.622 741.012 259.745C755.312 277.159 759.295 299.8 757.116 321.796C756.11 331.945 752.673 349.47 744.371 356.291C744.403 356.572 744.415 356.603 744.406 356.921C744.31 360.359 738.109 366.273 735.59 368.782C701.952 402.292 654.638 398.794 610.947 398.77L535.734 398.703Q536.365 397.735 536.753 396.647C538.489 391.895 537.919 133.418 537.262 108.765C537.2 106.428 536.943 104.61 535.943 102.464ZM600.788 269.497C602.727 276.117 603.34 341.763 600.22 347.482C600.18 347.555 600.139 347.626 600.098 347.698C617.286 347.764 667.799 351.893 680.052 339.583C680.627 339.005 681.351 338.304 681.574 337.5C687.926 332.995 690.881 325.445 692.175 317.993C694.121 306.788 693.053 293.501 686.363 284.029C680.695 276.004 671.81 271.896 662.33 270.298C644.368 267.27 619.283 268.769 600.788 269.497ZM600.248 153.492C602.714 158.374 603.179 211.217 601.197 217.584Q600.769 218.926 599.947 220.069C615.446 220.129 663.886 223.674 674.551 212.775C675.172 212.141 675.734 211.36 675.976 210.501C681.044 207.556 683.843 200.947 685.251 195.49C687.459 186.935 685.725 175.619 681.167 168.073C676.699 160.676 669.413 156.366 661.171 154.337C648.472 151.211 614.36 152.357 600.248 153.492Z"/>
	<path d="M335.679 3.56719C337.549 3.75817 338.371 4.39527 339.751 5.63166C342.776 11.7404 341.451 18.2252 340.807 24.7544C350.951 23.1295 360.4 22.9488 370.302 26.0411C373.503 27.0406 375.446 27.9877 377.008 31.0068C375.787 38.1115 361.821 46.9664 356.329 51.6649Q357.13 51.9483 357.923 52.252C365.289 55.0776 376.056 58.8853 379.412 66.6767C380.641 69.53 380.489 72.676 379.306 75.5184C372.714 91.3563 338.854 104.717 323.565 111.031C349.862 126.601 371.556 155.627 384.924 182.553L381.235 189.576C393.22 194.207 405.678 198.308 414.51 208.098C413.75 220.27 412.346 233.785 409.432 245.58C407.76 252.35 406.489 250.805 401.637 254.007C399.771 255.238 399.646 256.608 399.23 258.653C395.908 274.964 394.9 292.619 392.607 309.164L376.542 422.799C374.215 439.132 372.868 456.568 369.024 472.592C367.24 480.028 363.728 483.935 357.216 487.859C347.955 493.437 336.359 496.482 325.946 499.02Q321.827 500.003 317.681 500.861Q313.534 501.719 309.364 502.451Q305.193 503.182 301.002 503.787Q296.811 504.393 292.604 504.871Q288.397 505.348 284.177 505.699Q279.957 506.049 275.729 506.271Q271.5 506.493 267.267 506.587Q263.034 506.681 258.799 506.647Q254.565 506.613 250.334 506.45Q246.103 506.287 241.878 505.997Q237.654 505.706 233.44 505.288Q229.227 504.869 225.028 504.323Q220.829 503.777 216.648 503.104Q212.468 502.431 208.31 501.632Q204.151 500.833 200.019 499.908Q195.887 498.983 191.785 497.933C181.607 495.335 170.947 491.321 162.13 485.533C156.991 482.16 153.436 478.591 151.306 472.777C145.541 457.043 144.85 437.459 142.507 420.85Q136.693 380.649 131.932 340.31C128.698 312.559 126.09 284.905 120.355 257.529L110.662 251.048C107.117 237.734 103.585 224.512 102.22 210.758L110.292 205.056L109.102 206.252C110.089 194.896 112.69 186.854 117.313 176.392C104.384 180.711 86.5695 187.004 72.9699 182.965C69.4039 181.907 65.5076 179.82 63.7814 176.356C61.8524 172.484 62.8415 167.888 64.0622 163.965C76.0861 125.318 124.793 94.0838 158.666 76.22C157.801 72.0561 156.938 67.0493 157.387 62.8281C157.814 58.8166 159.322 55.8216 162.471 53.2709C174.21 43.7609 209.55 31.1693 224.388 32.8078C232.463 33.6996 239.369 43.5362 244.068 49.4985C267.567 46.7113 293.175 41.5595 316.698 45.0927C316.55 40.5216 316.401 35.6898 317.131 31.1753C319.139 18.7546 325.782 10.706 335.679 3.56719Z"/>
	<path fill="#1E1E20" d="M274.244 87.7848L276.508 87.8269C278.334 89.4029 278.418 89.7266 279.048 92.0757L278.005 93.6756L275.787 93.2131C273.15 92.5024 270.62 91.6611 268.062 90.7077C269.127 88.9832 272.382 88.3958 274.244 87.7848Z"/>
	<path fill="#434344" d="M82.1073 176.038C78.7328 175.988 74.6801 176.331 71.6487 174.709L71.4613 173.348C72.917 171.546 74.3423 169.179 76.7695 168.781C77.368 169.467 77.9699 170.155 78.601 170.811C81.2042 173.517 83.5192 172.946 87.0074 173.036L82.1073 176.038Z"/>
	<path fill="#FAC0B3" d="M267.148 176.869C270.335 176.865 275.141 175.024 277.722 176C277.917 177.786 277.875 179.076 277.393 180.81C274.433 180.928 271.707 182.083 268.688 181.909C267.606 181.847 267.307 181.156 266.633 180.386L267.148 176.869Z"/>
	<path fill="#94130F" d="M352.347 180.333C359.501 184.164 361.595 190.626 364.52 197.772L358.32 202.477Q355.664 191.316 352.347 180.333Z"/>
	<path fill="#1E1E20" d="M393.819 213.776C392.695 214.228 391.418 214.496 390.206 214.522C384.557 214.641 366.295 207.775 362.419 204.178L363.088 202.517C373.471 205.826 384.746 207.522 393.819 213.776Z"/>
	<path fill="#2E2F35" d="M355.69 71.3759C355.689 71.4377 355.706 71.5022 355.688 71.5613C354.273 76.2007 338.297 83.752 333.553 86.409C333.242 83.7295 333.332 81.2811 333.548 78.6084C337.99 72.6298 348.632 72.8371 355.69 71.3759Z"/>
	<path fill="#72FB5B" d="M329.459 41.595C332.152 37.3187 335.017 33.9617 339.632 31.6915C348.503 27.3278 358.082 28.493 367.148 31.5387C359.732 33.2492 351.179 32.5699 344.135 34.8873C339.59 36.3828 333.999 41.3371 329.459 41.595Z"/>
	<path fill="#FAC0B3" d="M164.15 196.686C164.293 196.769 175.681 221.106 179.325 225.818L167.462 224.3C166.052 215.109 164.604 205.988 164.15 196.686Z"/>
	<path fill="#434344" d="M335.74 368.559C335.245 382.519 334.188 415.698 331.048 428.054C328.475 422.025 332.067 415.328 330.462 408.989L329.251 408.417C330.032 395.039 331.236 381.27 335.74 368.559Z"/>
	<path fill="#2E2F35" d="M319.309 184.218C321.816 190.968 321.903 208.105 321.638 215.649C321.518 219.028 320.477 222.179 320.842 225.577L322.486 225.787L324.906 226.307C322.019 227.502 317.536 227.423 314.381 227.758Q316.467 216.987 317.701 206.085Q318.935 195.183 319.309 184.218Z"/>
	<path fill="#2E2F35" d="M345.847 85.4886C350.883 82.1144 366.023 69.3947 371.732 69.9688C372.064 72.5024 370.557 75.1438 369.009 77.1896C366.635 80.3289 361.889 83.8581 358.477 85.8816C354.291 86.0807 349.947 86.5343 345.847 85.4886Z"/>
	<path fill="#2E2F35" d="M135.732 157.048C118.919 168.867 102.53 174.499 82.1073 176.038L87.0074 173.036C91.4793 170.66 97.3288 169.705 102.201 168.213C113.446 164.77 124.803 161.409 135.732 157.048Z"/>
	<path fill="#FAC0B3" d="M270.329 118.016C271.749 124.447 281.382 162.753 278.374 167.185C278.078 167.621 277.744 167.958 277.326 168.271C271.379 158.568 273.913 138.184 266.472 126.705L270.329 118.016Z"/>
	<path fill="#25901B" d="M203.805 189.471C205.148 184.308 206.714 175.13 211.09 171.694C213.255 172.84 213.736 174.846 214.458 177.15C215.75 181.269 214.716 186.17 215.544 190.434L214.922 192.941C211.086 193.068 206.827 193.942 203.65 191.727L203.805 189.471Z"/>
	<path fill="#ACE898" d="M203.805 189.471C207.848 189.453 211.567 189.699 215.544 190.434L214.922 192.941C211.086 193.068 206.827 193.942 203.65 191.727L203.805 189.471Z"/>
	<path fill="#FDFDFD" d="M200.265 214.469C202.635 216.048 205.344 218.104 208.134 218.802C212.537 219.903 215.844 217.836 219.443 215.638C221.145 219.707 223.063 223.654 224.999 227.614L225.247 228.048L224.641 228.908C216.537 229.357 208.271 228.286 200.194 227.587L200.265 214.469Z"/>
	<path fill="#FAC0B3" d="M289.063 132.646C291.796 134.276 302.996 152.39 306.341 156.705L305.777 158.378C300.248 158.945 294.888 160.307 289.49 161.581C289.572 151.948 289.226 142.28 289.063 132.646Z"/>
	<path fill="#25901B" d="M333.417 11.5237L335.473 12.4661C336.835 16.6745 336.109 21.9452 335.962 26.3362L323.496 44.3592C322.964 44.5146 322.433 44.1498 321.925 43.9448C320.807 30.2446 324.81 21.7408 333.417 11.5237Z"/>
	<path fill="#72FB5B" d="M203.65 191.727C206.827 193.942 211.086 193.068 214.922 192.941C216.211 199.53 219.098 208.648 215.338 214.908C213.892 217.315 212.64 217.743 210.063 218.359C207.449 217.666 205.615 216.232 204.164 213.982C199.638 206.966 202.104 199.304 203.65 191.727Z"/>
	<path fill="#1E1E20" d="M358.477 85.8816C347.077 94.4204 333.107 100.959 319.486 105.187C315.725 106.354 310.53 108.232 306.816 106.278C307.203 105.101 307.544 104.094 308.56 103.302C313.963 99.0937 320.971 97.7846 327.104 94.9961C333.461 92.1063 339.662 88.7297 345.847 85.4886C349.947 86.5343 354.291 86.0807 358.477 85.8816Z"/>
	<path fill="#434344" d="M374.424 193.122C385.401 197.484 395.24 201.65 404.888 208.607L393.819 213.776C384.746 207.522 373.471 205.826 363.088 202.517C367.156 199.59 370.906 196.725 374.424 193.122Z"/>
	<path fill="#7F7F7F" d="M153.991 128.066C155.19 133.134 147.343 147.09 145.429 153.104C143.397 159.487 141.59 165.837 140.986 172.532C140.153 181.748 142.005 213.935 139.766 219.207C138.878 218.295 138.22 217.326 137.696 216.161C130.095 199.247 137.606 159.851 144.083 143.001C146.163 137.589 148.395 130.565 153.991 128.066Z"/>
	<path fill="#25901B" d="M367.148 31.5387L367.904 32.8774C363.242 40.2181 352.847 46.2584 346.689 52.8093C339.135 50.7572 331.694 49.0105 323.966 47.7542L329.459 41.595C333.999 41.3371 339.59 36.3828 344.135 34.8873C351.179 32.5699 359.732 33.2492 367.148 31.5387Z"/>
	<path fill="#434344" d="M342.269 167.699C344.383 169.266 345.245 172.135 346.223 174.505C350.518 184.902 358.261 210.217 353.874 220.757C348.022 217.606 349.665 206.461 345.654 201.619L345 203.327C342.335 213.906 336.884 222.094 329.634 230.037C330.975 224.658 333.836 219.535 335.872 214.376C342.033 198.765 344.026 184.427 342.269 167.699Z"/>
	<path fill="#2E2F35" d="M143.36 132.851L144.186 132.966C145.054 135.872 137.917 149.745 136.44 153.585C126.213 158.136 115.203 161.101 104.51 164.347C106.359 161.721 107.946 158.937 109.569 156.168C104.211 157.156 98.7258 159.191 93.4865 160.75C108.325 149.778 127.019 141.425 143.36 132.851Z"/>
	<path fill="#434344" d="M332.303 163.012C337.891 182.725 331.21 207.938 322.486 225.787L320.842 225.577C320.477 222.179 321.518 219.028 321.638 215.649C321.903 208.105 321.816 190.968 319.309 184.218C319.04 179.267 318.525 174.312 318.109 169.37C325.833 169.132 327.08 168.4 332.303 163.012Z"/>
	<path fill="#2E2F35" d="M322.211 77.2902C324.542 76.8403 326.239 76.4278 328.461 77.5695C330.448 80.3169 329.357 85.3286 329.072 88.599C320.469 92.5749 303.565 102.673 294.735 100.095C289.848 98.4078 285.112 97.2929 282.43 92.4808C282.324 90.9367 282.073 90.1469 282.981 88.7905C287.803 81.5903 313.645 78.9038 322.211 77.2902Z"/>
	<path fill="#7F7F7F" d="M279.252 97.6325C296.446 104.039 319.839 108.834 328.114 126.86C339.199 151.008 343.671 184.812 334.159 210.138C332.113 215.586 329.118 222.249 324.906 226.307L322.486 225.787C331.21 207.938 337.891 182.725 332.303 163.012L332.069 162.17C331.839 154.595 329.971 146.504 327.831 139.252C320.36 113.93 305.501 113.849 285.639 102.632C283.245 101.28 280.596 100.154 279.252 97.6325Z"/>
	<path fill="#434344" d="M382.579 254.771L391.64 250.8C387.561 280.096 384.824 310.307 379.257 339.321C374.104 342.935 371.984 354.528 367.84 360.007C368.551 347.677 370.993 335.07 372.783 322.853Q377.872 288.839 382.579 254.771Z"/>
	<path fill="#ACE898" d="M294.316 172.433L303.213 171.692C304.809 182.178 306.814 194.689 301.803 204.544C299.358 209.353 296.607 211.385 291.549 213.02C289.127 211.657 286.523 210.283 284.758 208.084C277.339 198.835 279.384 185.767 280.661 174.92C285.118 173.751 289.77 173.172 294.316 172.433Z"/>
	<path fill="#2E2F35" d="M354.613 66.4867C356.014 66.2337 357.519 66.4356 358.935 66.512C355.374 69.1892 319.936 74.2668 312.799 75.8138C296.875 79.2653 281.002 83.5683 265.199 87.5656C200.952 103.817 142.363 126.476 86.5694 162.159L83.3074 163.439L83.4747 162.206C127.819 118.933 292.132 70.2116 354.613 66.4867Z"/>
	<path fill="#7F7F7F" d="M302.043 486.589C302.611 478.915 302.022 461.789 307.469 456.717Q310.037 457.728 312.572 458.818C319.826 454.079 319.964 416.395 325.7 405.513C324.402 426.623 320.683 447.751 321.538 468.951C322.13 449.021 326.477 428.205 329.251 408.417L330.462 408.989C332.067 415.328 328.475 422.025 331.048 428.054C331.128 445.181 327.917 463.036 326.632 480.221C318.65 483.463 310.489 485.087 302.043 486.589Z"/>
	<path fill="#FDFDFD" d="M222.356 39.1845C222.825 39.2852 223.282 39.401 223.733 39.5665C232.306 42.711 240.286 56.277 243.824 64.42C240.161 66.6162 236.224 68.3609 232.366 70.1863C228.974 62.5849 224.4 55.7533 219.828 48.8269C204.745 51.8599 190.421 57.3491 176.243 63.1829C175.958 63.4845 175.804 63.652 175.64 64.0367C173.329 69.4609 177.98 79.1601 179.9 84.3121L170.11 88.7354C167.277 79.4864 165.97 70.3589 165.089 60.7471C181.051 48.3555 203.072 43.9232 222.356 39.1845Z"/>
	<path fill="#C62E2B" d="M327.421 121.229C347.042 139.032 364.681 159.046 377.497 182.342C373.72 187.991 369.709 193.316 364.52 197.772C361.595 190.626 359.501 184.164 352.347 180.333C348.954 172.578 344.813 165.091 341.747 157.219C336.921 144.827 333.789 133.122 327.421 121.229Z"/>
	<path fill="#7F7F7F" d="M181.709 353.914C184.322 376.013 185.53 398.33 187.547 420.495C189.342 440.232 192.066 460.142 192.999 479.914C188.514 478.579 183.638 477.487 179.466 475.355C179.642 464.808 177.516 453.787 176.834 443.21C175.622 424.415 175.147 369.212 181.709 353.914Z"/>
	<path fill="#434344" d="M342.294 266.375L344.616 266.484C347.356 272.278 339.027 316.106 337.497 324.631C333.864 321.381 329.764 318.76 325.722 316.057C321.235 313.021 315.607 310.829 310.715 308.451Q311.997 289.393 312.208 270.294C322.213 269.985 332.399 267.877 342.294 266.375Z"/>
	<path fill="#7F7F7F" d="M242.051 485.66C240.862 440.581 244.074 398.836 256.554 355.235C258.518 348.374 260.047 339.648 263.494 333.432L264.292 334.769L260.975 487.05C254.544 486.988 248.388 486.88 242.051 485.66Z"/>
	<path fill="#434344" d="M146.586 260.311C155.677 262.883 164.888 264.624 174.159 266.387C176.158 283.068 177.247 299.965 178.781 316.705C179.904 328.966 181.866 341.635 181.709 353.914C175.147 369.212 175.622 424.415 176.834 443.21C177.516 453.787 179.642 464.808 179.466 475.355C178.111 474.85 176.344 474.321 175.207 473.419C174.697 473.015 173.941 472.283 173.62 471.714C169.104 463.704 148.538 284.238 146.586 260.311Z"/>
	<path fill="#FDFDFD" d="M266.472 126.705C273.913 138.184 271.379 158.568 277.326 168.271C273.425 170.685 269.924 173.151 267.148 176.869L266.633 180.386C267.307 181.156 267.606 181.847 268.688 181.909C271.707 182.083 274.433 180.928 277.393 180.81Q277.095 184.142 277.185 187.486C277.456 195.386 278.663 205.619 284.832 211.221C286.89 213.09 289.546 214.292 292.37 214.064C295.688 213.796 298.54 211.886 300.626 209.376C309.008 199.289 306.642 183.422 305.517 171.399L306.979 169.689C308.764 169.531 309.643 169.334 311.319 170.094C313.462 171.067 314.99 173.03 315.811 175.205C319.76 185.666 314.515 217.548 309.807 228.121C303.373 228.466 266.839 231.364 263.848 228.986C262.454 227.878 262.125 225.791 260.297 224.704C253.348 220.571 247.5 228.403 241.534 229.626C239.475 230.048 236.068 230.343 234.272 229.112C228.34 196.283 251.763 154.633 266.472 126.705Z"/>
	<path fill="#434344" d="M226.05 272.852Q245.987 273.671 265.94 273.478C265.974 286.586 266.623 324.66 264.292 334.769L263.494 333.432C260.047 339.648 258.518 348.374 256.554 355.235C244.074 398.836 240.862 440.581 242.051 485.66L233.878 483.988C232.328 462.399 231.905 440.62 231 418.991Q227.783 345.946 226.05 272.852Z"/>
	<path fill="#FDFDFD" d="M313.097 312.749C324.956 318.454 335.715 327.67 345.68 336.15C330.396 364.743 320.713 398.862 316.387 430.836C315.581 436.788 315.249 450.207 311.541 454.42L309.317 454.03C297.574 448.703 285.572 443.866 273.686 438.866C273.572 398.675 286.425 343.902 313.097 312.749Z"/>
	<path d="M306.203 328.137C308.355 328.011 311.862 328.083 313.833 329.06C316.381 330.323 316.705 331.892 317.597 334.337C315.024 334.385 311.809 334.328 309.475 333.097C307.122 331.856 306.854 330.479 306.203 328.137Z"/>
	<path d="M291.849 373.337C295.351 373.063 298.899 372.891 302.411 372.848C307.142 372.79 312.889 374.667 316.31 378.013C312.508 379.484 305.577 376.897 301.339 376.865C298.238 376.842 294.992 377.384 291.917 377.783C295.64 390.291 301.797 398.655 311.483 407.176C300.993 408.588 295.465 411.742 288.276 419.257C287.301 420.929 286.339 422.362 286.509 424.366C286.755 427.269 296.905 427.253 299.142 429.115C297.611 430.179 296.097 430.332 294.286 430.464C290.369 430.75 286.444 430.492 283.349 427.833C282.134 425.284 281.306 423.768 282.357 420.883C285.155 413.207 294.819 407.886 301.766 404.532C296.286 397.758 289.198 388.189 288.964 379.18C288.887 376.179 289.894 375.338 291.849 373.337Z"/>
	<path fill="#7F7F7F" d="M309.628 50.4694C325.021 47.9416 348.686 54.8568 362.325 62.0461C273.962 71.0962 139.816 109.767 71.4597 167.777C76.6717 154.958 83.748 143.993 93.0743 133.754C97.3753 129.032 116.071 109.482 121.438 109.235L120.11 111.86C114.574 120.123 109.356 128.785 105.734 138.076L107.708 139.103L105.606 138.784L106.845 139.528C125.559 125.513 117.141 101.453 157.35 86.0538C159.976 85.048 161.389 83.9996 164.075 85.2006Q164.35 85.7899 164.567 86.4033C166.294 91.3267 163.087 94.5567 161.1 98.6756C159.456 102.085 157.84 105.524 159.132 109.23L161.154 108.396C164.822 104.263 166.463 98.2818 168.397 93.1821C172.694 91.7641 180.326 90.1256 182.636 86.0088C184.565 82.5713 183.042 78.7158 182.077 75.1895C195.019 69.1427 208.466 65.1888 222.296 61.827C224.607 65.4754 227.157 70.4658 231.38 72.0795C236.102 73.8841 241.372 70.9517 245.71 69.1376Q248.024 71.2307 250.399 73.2539C252.705 75.2087 256.65 79.0684 259.706 78.8182C259.843 69.6674 249.601 70.388 247.312 61.3642C250.648 55.4132 268.301 53.9981 274.758 55.1297C285.395 56.9939 308.039 67.416 317.686 64.05L317.267 62.7597C305.317 57.1716 289.212 54.7901 276.111 54.1011C287.276 52.4602 298.384 51.3716 309.628 50.4694Z"/>
	<path fill="#7F7F7F" d="M117.844 208.508C118.451 208.478 118.855 208.49 119.432 208.715C121.192 209.403 121.948 209.484 122.699 211.225C121.022 212.168 119.677 213.063 118.333 214.446C119.949 216.572 121.3 217.187 123.778 218.141C135.098 222.497 148.346 224.249 160.327 226.117C222.499 235.812 348.208 237.846 404.784 212.732L402.191 228.064C320.969 258.45 213.795 255.502 129.657 240.239C134.367 242.391 139.312 243.851 144.244 245.396C164.546 250.249 185.231 251.933 206.006 253.285C270.205 257.463 340.938 254.995 401.357 230.764C400.37 235.136 399.805 239.671 399.072 244.097C388.681 249.366 377.376 253.734 366.226 257.088C306.589 275.028 174.183 275.846 118.527 245.918C116.092 236.881 110.968 224.756 112.035 215.458C112.439 211.935 115.31 210.491 117.844 208.508Z"/>
	<path fill="#434344" d="M262.762 91.3118C268.236 93.2392 274.124 94.904 279.252 97.6325C280.596 100.154 283.245 101.28 285.639 102.632C305.501 113.849 320.36 113.93 327.831 139.252C329.971 146.504 331.839 154.595 332.069 162.17C325.48 159.434 318.897 157.38 311.77 156.586C303.658 148.037 295.336 138.408 289.926 127.859C287.508 123.144 285.889 110.44 282.009 107.732C283.863 119.157 290.435 154.015 284.114 163.308C280.734 160.633 271.13 107.408 268.19 98.3718C268.729 103.867 269.169 108.722 267.694 114.14C263.758 128.607 254.956 141.688 248.835 155.324C242.519 169.391 238.046 183.72 232.869 198.19C231.41 208.382 231.114 218.325 231.394 228.607C230.046 228.394 229.452 228.057 228.488 227.095C228.331 226.945 228.173 226.794 228.025 226.635C227.94 226.543 227.856 226.448 227.77 226.356C221.775 219.98 219.385 207.021 218.033 198.53C217.237 193.532 214.636 177.051 217.669 172.969C218.336 172.072 219.506 171.496 220.146 170.521C221.095 169.078 219.346 165.456 218.945 163.775C216.257 152.516 230.06 126.008 236.072 116.197C222.746 129.699 215.118 147.481 207.877 164.72C197.247 163.013 180.392 160.517 171.137 166.978L171.321 168.388C180.083 172.989 194.864 172.305 204.724 172.979C199.19 191.141 197.489 209.091 196.08 227.914L184.266 225.905Q182.993 224.566 181.87 223.099C162.074 197.588 163.881 169.859 167.712 139.507C157.159 164.186 159.973 197.992 163.876 223.803Q151.896 221.113 139.766 219.207C142.005 213.935 140.153 181.748 140.986 172.532C141.59 165.837 143.397 159.487 145.429 153.104C147.343 147.09 155.19 133.134 153.991 128.066C188.668 112.993 226.163 100.726 262.762 91.3118Z"/>
	<path fill="#7F7F7F" d="M228.488 227.095C222.533 205.345 228.122 182.582 236.973 162.445C235.019 173.568 231.43 186.995 232.869 198.19C231.41 208.382 231.114 218.325 231.394 228.607C230.046 228.394 229.452 228.057 228.488 227.095Z"/>
	<path fill="#7F7F7F" d="M128.348 255.165L143.792 259.737C147.376 301.142 152.996 342.555 157.847 383.838Q161.028 411.23 164.918 438.53C166.573 450.413 167.688 462.818 171.282 474.307C176.092 477.576 187.317 484.393 193.209 483.19C194.18 482.992 194.545 482.747 195.055 481.883C197.964 476.956 179.274 290.343 176.916 266.641C191.867 269.939 207.593 270.844 222.827 272.279L227.879 426.617C228.569 443.878 227.75 471.102 231.1 486.878C241.834 489.849 252.482 491.493 263.653 490.772C267.084 468.517 265.152 437.977 265.686 414.556C266.76 367.461 269.038 320.251 269.271 273.158Q289.301 272.317 309.286 270.722Q308.625 292.323 307.727 313.915C287.677 342.34 276.46 379.413 271.91 413.694C270.917 421.18 269.499 429.388 270.793 436.89C271.202 439.259 271.77 440.887 273.779 442.28C281.814 447.852 293.148 450.054 302.125 453.937C300.9 461.7 296.067 482.27 299.857 488.848C306.304 491.14 320.151 487.141 326.251 484.15C328.527 483.034 329.227 481.791 329.982 479.475C332.364 472.172 331.975 460.84 332.625 453.043L337.419 391.688C338.437 378.495 338.613 364.6 341.841 351.731C343.267 346.047 346.085 340.601 348.551 335.306L340.829 327.119C343.538 306.384 345.844 285.497 349.368 264.885C359.492 262.409 369.708 259.793 379.57 256.389C376.157 272.943 374.443 290.122 371.97 306.855Q364.007 360.345 356.842 413.948C354.721 429.679 353.914 446.274 350.696 461.743C350.077 464.719 349.01 469.045 346.303 470.847C342.331 473.491 338.02 472.833 334.428 476.756L334.684 478.31C336.802 479.288 338.909 478.674 340.991 477.905C345.095 476.389 349.969 473.358 351.79 469.197C355.192 461.427 355.534 451.145 356.599 442.731L363.376 389.297C364.594 379.75 365.068 369.204 367.84 360.007C371.984 354.528 374.104 342.935 379.257 339.321C375.621 384.983 364.991 430.429 359.372 475.939C335.687 496.619 270.609 499.492 238.874 497.352C210.591 495.446 184.487 489.677 160.307 474.501C155.459 452.337 152.996 429.629 150.043 407.154Q144.68 368.151 139.859 329.078C136.947 304.703 135.191 278.78 128.348 255.165Z"/>
</svg>